/* XPM */
static char *result[] = {
/* columns rows colors chars-per-pixel */
"32 32 203 2 ",
"   c #5F369E",
".  c #6D2F9E",
"X  c #752B99",
"o  c #693695",
"O  c #66359B",
"+  c #6B3598",
"@  c #75359D",
"#  c #5636A5",
"$  c #5E33A5",
"%  c #5435A9",
"&  c #5D33A8",
"*  c #5F3FB7",
"=  c #553FBE",
"-  c #5C3EBB",
";  c #6A2FA1",
":  c #6433A2",
">  c #6638A0",
",  c #6F33AC",
"<  c #6539AC",
"1  c #6935A7",
"2  c #7636A7",
"3  c #7834A8",
"4  c #643FB6",
"5  c #6C3CB6",
"6  c #6C36BF",
"7  c #653CBD",
"8  c #6B3BBB",
"9  c #6F33B1",
"0  c #7537B5",
"q  c #7A35B2",
"w  c #7339B4",
"e  c #7B39B2",
"r  c #7237BC",
"t  c #7A37B9",
"y  c #7138B9",
"u  c #5540BE",
"i  c #5B40BC",
"p  c #6440BB",
"a  c #4E3FC5",
"s  c #4E3FC8",
"d  c #533EC4",
"f  c #5C3EC2",
"g  c #5637CF",
"h  c #5D37CB",
"j  c #563CCE",
"k  c #5B3DCA",
"l  c #4E3CD5",
"z  c #4C37D9",
"x  c #4C3CDB",
"c  c #4C37D6",
"v  c #5536D5",
"b  c #5C36D6",
"n  c #533CD4",
"m  c #5C3CD4",
"M  c #5237D9",
"N  c #5D37D8",
"B  c #523BDB",
"V  c #5A39D9",
"C  c #6437C5",
"Z  c #6C37C2",
"A  c #623CC3",
"S  c #6A3DC4",
"D  c #6C36CE",
"F  c #663DCC",
"G  c #6C3BCC",
"H  c #743DC6",
"J  c #7334CD",
"K  c #7C33CC",
"L  c #733ECB",
"P  c #7B3CCC",
"I  c #6435D3",
"U  c #6B33D0",
"Y  c #633CD2",
"T  c #6E3DD2",
"R  c #7337D0",
"E  c #743BD2",
"W  c #7C3BD1",
"Q  c #763FDA",
"!  c #7C3EDB",
"~  c #4C3EE1",
"^  c #3F46E6",
"/  c #3E46EC",
"(  c #3E48EB",
")  c #4E40C5",
"_  c #4C40C9",
"`  c #4341C8",
"'  c #5340C4",
"]  c #5B41C4",
"[  c #5242CB",
"{  c #5C41CA",
"}  c #4D42D4",
"|  c #4443DE",
" . c #4A42DC",
".. c #5343D2",
"X. c #5C42D2",
"o. c #5343DB",
"O. c #5C43DA",
"+. c #6340C3",
"@. c #6340CA",
"#. c #6A40CC",
"$. c #6441D2",
"%. c #6B40D2",
"&. c #6441DC",
"*. c #6C40DA",
"=. c #7640DF",
"-. c #4344E3",
";. c #4A44E4",
":. c #4248E5",
">. c #4346EB",
",. c #4C46EC",
"<. c #4348EA",
"1. c #4948EA",
"2. c #5344E3",
"3. c #5C43E3",
"4. c #5446EC",
"5. c #5C45EC",
"6. c #4347F0",
"7. c #4946F0",
"8. c #6443E5",
"9. c #6D42E4",
"0. c #6444EB",
"q. c #6A44EA",
"w. c #7642E5",
"e. c #7C41E3",
"r. c #7443E8",
"t. c #9E2FAB",
"y. c #8433A5",
"u. c #8E31A6",
"i. c #8633AC",
"p. c #9331A7",
"a. c #9C30A6",
"s. c #9231AB",
"d. c #9D31AC",
"f. c #9E2FB7",
"g. c #9D2FB8",
"h. c #932FB1",
"j. c #8236B3",
"k. c #8C34B6",
"l. c #8239B2",
"z. c #8D38B6",
"x. c #8435B8",
"c. c #9534B5",
"v. c #9E32B5",
"b. c #9532BD",
"n. c #9933BA",
"m. c #9638B9",
"M. c #A42EA6",
"N. c #A42FAC",
"B. c #AB2DAB",
"V. c #AA2DA7",
"C. c #A330AF",
"Z. c #A42FB3",
"A. c #A92EB0",
"S. c #A234B6",
"D. c #AC33B5",
"F. c #A334BC",
"G. c #AC34BA",
"H. c #A13ABF",
"J. c #AB38BB",
"K. c #B335B8",
"L. c #BB37BF",
"P. c #B534B7",
"I. c #8533C7",
"U. c #8C34C3",
"Y. c #8439CD",
"T. c #8937CA",
"R. c #9136C4",
"E. c #9C35C1",
"W. c #9639CB",
"Q. c #9C3ACC",
"!. c #8B3CD4",
"~. c #833EDB",
"^. c #8E3EDE",
"/. c #833BD2",
"(. c #933DD6",
"). c #9D3ED6",
"_. c #923EDE",
"`. c #9B3EDC",
"'. c #A137C5",
"]. c #AC3CCB",
"[. c #A838C7",
"{. c #B938C1",
"}. c #BE37CF",
"|. c #BF38CF",
" X c #B339C2",
".X c #A03AD7",
"XX c #AC3AD6",
"oX c #A23CDA",
"OX c #AB3DD9",
"+X c #B239D3",
"@X c #BB39D1",
"#X c #823FE0",
"$X c #8A3FE1",
"%X c #C436CD",
"&X c #C836CC",
"*X c #8C41DF",
"=X c #9341DF",
"-X c #9A40DD",
";X c #A040D3",
":X c #8441E3",
">X c #8D41E2",
",X c #9342E1",
"<X c #9841E0",
/* pixels */
"&X%X@X+XOX;X<X,X>X:X,X;X;XH.m.z.l.w < < > O o o o O $ % & : X X ",
"%X%X}.@X+XOXoX<X<X,X>X<X;X{.J.J.m.z.t w , 2 @ @ + O O # % & ; X ",
"}.}.}.}.+XOXOX-X`.-X=X,X;X].{.P.D.v.c.x.x.j.i.y.y.3 @ : % % : . ",
"+XXXXXXXOXOXoX`.-X=X=X=X=X;X].L.P.D.S.c.k.k.s.p.p.u.y.3 2 < & : ",
".X.X.X.XoX`.`._.,X>X>X*X*X*X-X XL.P.G.S.n.c.c.t.a.a.a.u.i.3 9 9 ",
"_._.$X$X$X$X$X$X:X:X:X:Xe.e.*X-X].K.K.G.S.n.c.N.N.M.V.t.a.h.i.q ",
"#Xe.e.e.e.e.e.r.r.r.w.w.w.w.w.=.!..XJ.F.n.n.n.f.N.N.V.V.B.M.Z.h.",
"~.e.r.r.q.q.q.q.0.0.0.0.q.q.q.q.w.!.Q.'.'.E.R.n.f.N.B.V.B.B.B.N.",
"~.=.=.9.q.0.5.5.4.4.4.4.5.5.5.5.0.9.~.W.W.R.U.R.b.f.N.B.B.B.B.B.",
"! =.9.9.8.0.3.5.4.7.7.7.1.,.4.4.4.4.9.! !.W.T.U.U.b.v.Z.B.B.B.A.",
"! Q 9.8.3.5.5.4.4.7.7.1.:.:.:.:.;.1.2.9.E /./.Y.I.U.R.n.Z.A.A.B.",
"W Q =.&.3.5.4.,.7.7.7.<.<.:.:.-.-.:.:.2.&.E W W K Y.I.b.g.Z.A.A.",
"W E =.&.3.3.2.,.7.7.6.6.( ( ^ -.| | ^ | o.$.T E E K K T.U.g.g.Z.",
"P W %.*.O.3.2.4.1.1.>.>./ ( ^ ^ ^ :.:.|  .o.Y T R E E K I.U.E.g.",
"P P E %.&.O.o.;.1.:.>.>./ / / ( | ^ | | |  .X.Y G T R R K I.U.b.",
"H P #.#.$.O.o.2.;.;.:.>./ / / / ^ ^ | | |  .B m F D U U J K I.U.",
"p #.#.#.$.X...o. .| | ^ ^ / -./ ^ -.-.-.~ | B m Y D D D D J K I.",
"*X#.#.#.#.X.X...o.| | | ^ ~ ^ -.^ -.~ ~ ;.x  .n m Y D D J J J I.",
"p #.+.@.@.X.X.....} | | | | | -.~ -.-.~ ;.~ ~ B m I D D J J J K ",
"#.p @.{ { X.{ ....} } } } | | | | | | ~ ~ x ~ x V m F D D J J K ",
"#.#.+.] { [ ......[ } } ..} } } x | x | x x x B B N I U D J J K ",
"p +.+.] ] [ [ [ [ [ ..[ [ [ j [ s } } x x x x x M M b I U J J K ",
"+.+.+.] ] [ [ _ [ [ _ [ ' { { k j { j ..} l x x x M v b I U J K ",
"p p +.] ] ] [ [ _ [ _ [ [ ' ] +.f A f A k j j l x x M v b I U J ",
"p p p i i ] [ ' ) _ [ [ ' ] f - f 7 7 7 S A A k v n c x v b I U ",
"p p p p i u ' ' ' ) ' ) ' d ] A 7 8 8 8 8 8 Z Z C h g c z z b b ",
"p l.p p i i u ' ) ) ) ) ' d f f 7 7 8 5 5 y w 5 8 6 C C g c z M ",
"p p p p i u u ' ) ) ) a d d d f - 7 5 5 w w 9 w 0 0 y 6 C h v z ",
"p p p i i i u u u a a a a d d d f - 6 5 5 w e e w w 0 t r Z C g ",
"i p p i i u u u a = a a a a a a d - - 7 8 w w e 3 e q e q 0 r Z ",
"u i i i i i u u = a a a a a s s d d d - 7 5 y w e l.l.e q q x.t ",
"` u u i i i u u a a a a s s s s s d d h A S p 5 y e e l.l.j.j.t "
};
