/* XPM */
static char *result[] = {
/* columns rows colors chars-per-pixel */
"32 32 97 2 ",
"   c #211B1D",
".  c #2C1A1E",
"X  c #1D1C24",
"o  c #211B23",
"O  c #351E24",
"+  c #391F29",
"@  c #3B2425",
"#  c #332228",
"$  c #2C2D39",
"%  c #332D35",
"&  c #322C3A",
"*  c #323035",
"=  c #442A29",
"-  c #493634",
";  c #543635",
":  c #523837",
">  c #303744",
",  c #574242",
"<  c #5D4843",
"1  c #574C48",
"2  c #5A4B49",
"3  c #62494C",
"4  c #85473B",
"5  c #83493A",
"6  c #854543",
"7  c #995F47",
"8  c #975849",
"9  c #B66F4F",
"0  c #B96E4E",
"q  c #B6714E",
"w  c #B9704F",
"e  c #A56C5A",
"r  c #A86B59",
"t  c #B66F51",
"y  c #B96E53",
"u  c #BA6D59",
"i  c #AA745A",
"p  c #B67051",
"a  c #B87250",
"s  c #BA745B",
"d  c #857F7F",
"f  c #B67B68",
"g  c #BF8564",
"h  c #B8816B",
"j  c #C6805E",
"k  c #C48464",
"l  c #C08964",
"z  c #C48569",
"x  c #C5886A",
"c  c #CE8D6B",
"v  c #D18C69",
"b  c #D0916C",
"n  c #DF9F6E",
"m  c #DD9F74",
"M  c #D59D7C",
"N  c #DEA275",
"B  c #DDAA76",
"V  c #D2A17B",
"C  c #DDA27A",
"Z  c #DBA97C",
"A  c #E3A66D",
"S  c #E9A76A",
"D  c #E2A96E",
"F  c #E3A673",
"G  c #E8A771",
"H  c #E2A973",
"J  c #E2AC7A",
"K  c #A5A3A6",
"L  c #A6A5AB",
"P  c #A9A4AB",
"I  c #A6A8AD",
"U  c #A9A9AB",
"Y  c #ABAAB1",
"T  c #C6A585",
"R  c #CEA682",
"E  c #DDB08F",
"W  c #E5B88B",
"Q  c #E2B193",
"!  c #E4BA91",
"~  c #D0B5A1",
"^  c #DDBDA4",
"/  c #C2B5BE",
"(  c #E6BFA0",
")  c #DDC39B",
"_  c #ECC793",
"`  c #EDC799",
"'  c #EDC99A",
"]  c #F0CB96",
"[  c #F2C59B",
"{  c #F3C99B",
"}  c #DDC0A1",
"|  c #E1E1DF",
" . c #DBDFE0",
".. c #F6F6F6",
"X. c #F8F6F6",
"o. c #F7F6F9",
"O. c #FEFFFE",
/* pixels */
"O.O.O.O.O.O.O...O.O.O.O.O.O.O.O.X.O.O.O.O.O.O.O.O.O.O.O.O.O.O.O.",
"O.O.O.O.O.O.O.O.O.O.O.O.O.O.O.O.O.O.O.O.O.O.O.O.o.O.O.O.O.O.O.O.",
"O.O.O.O.O.O.O.O.O.O.O.O.O.O.O.O.O.O.O.O.O.O.O.O.O.O.O.O.O.O.O.O.",
"O.O.O.O.O.O.O.O.O.O.O.O.O.O.O.O.O.O.O.O.O.O.O.O.O.O.O.O.O.O.O.O.",
"O.O.O.O.O.O.O.O.O.O.O.O.O.O.O.O.O.O.O.O.O.O.O.O.O.O.O.O.O.O.O.O.",
"O.O.O.O.O.O.O.O.O.O.O.O.O.O.O.O.O.O.O.O.O.O.O.O.O.O.O.O.O.O.O.O.",
"O.O.O.O.O.O.O.O.O.O.O.O.O.O.O.O.O.O.O.O.O.O.O.O.O.O.O.O.O.O.O.O.",
"O.O.O.O.O.O.O.O.O.O.O.O.O.O.O.O.O.O.O.O.O.O.O.O.O.O.O.O.O.O.O.O.",
"O.O.O.O.O.O.O.O.O.O.O.O.O.O.O.O.O.O.O.O.O.O.O.O.O.O.O.O.O.O.O.O.",
"O.O.O.O.O.O.O.O.O.O.O.O.O.O.O.O.O.O.O.O.O.O.O.O.O.O.O.O.O.O.O.O.",
"O.O.O.O.O.O.O.O.O.O.O.O.O.O.O.O.O.O.O.O.O.O.O.O.O.O.O.O.O.O.O.O.",
"O.O.O.O.O.O.O.O.O.O.O.O.O.O.O.O.O.O.O.O.O.O.O.O.O.O.O.O.O.O.O.O.",
"O.O.O.O.O.O.O.O.O.O.O.O.O.O.O.O.O.O.O.O.O.O.O.O.O.O.O.O.O.O.O.O.",
"O.O.O.O.O.O.O.O.o.O.O.O.O.O.O.O.O.O.O.O.O.O.O.X.O.O.O.O.O.O.O.O.",
"O.O.O.O.X.O.O.O.O.O.O.O.o.O.O.O.O.O.O.X.O.O.O.O.O.O.O.O.O.O.O.O.",
"O.O.O.O...U U Y U I U U U U U U U U U L U U U I L  .o.O.O.O.O.O.",
"O.O.O.o./ 3 < 2 1 < , 2 2 1 1 , @ O + @ - - @ # + d | O.O.O.O.O.",
"O.O.O.... T _ ' { ! W [ { ' ' ! 7 4 4 5 h h 8 5 6 = K O.O.O.O.O.",
"O.O.O.o.X ) B J F F F A F G H ] l t y a k j s q u ; K O.O.O.O.O.",
"O.O.O.o.o ) J N n N m m F m Z ` z q p w 9 q p q 0 ; K O.O.O.O.O.",
"O.O.O...o } J x k k g k k k C [ z t t t q q q t w ; P X.O.X.O.O.",
"O.O.O...o } Z c s k s s s j m ' l 0 0 0 0 0 0 y 0 ; P O.X.O.O.O.",
"O.O.O.X.X } J b b c c c v v C [ k y 0 0 0 q w y w ; K O.O.O.O.O.",
"O.O.O...X ^ H J F F F F F G N ` x 0 0 0 0 0 q u w ; P O.O.O.O.O.",
"O.O.O.o.X ` J F F F F H F F J ` z w q 0 0 0 0 t 0 : P O.O.O.O.O.",
"O.O.O.o.X ^ J F F G H F F F J ` l w 0 0 9 0 0 t 0 : P O.O.O.O.O.",
"O.O.O.X.o ^ Z G J Z Z Z B N J ` g y y 9 y 9 9 t q : P O.O.O.O.O.",
"O.O.O.X.  } J J A D D A S D G [ x u y u u 0 0 y 0 ; P O.X.O.O.O.",
"O.O.O.X.. ~ R V M E Q V M V M ( h r r r f h i e e ; P O.O.O.O.O.",
"O.O...X.> * % % % $ $ & % % * $ & % % & % * * % % * U O.O.O.O.O.",
"O.O.O.O.O.X.O.O.O.O.O.O.O.O.O.o.O.O.O.O.O.O.O.O.O.O.O.O.O.O.O.O.",
"O.O.O.O.O.O.O.O.O.O.O.O.O.O.O.O.O.O.O.O.O.O.O.O.O.O.O.O.O.O.O.O."
};
