/* XPM */
static char *result[] = {
/* columns rows colors chars-per-pixel */
"32 32 163 2 ",
"   c #1F1723",
".  c #231426",
"X  c #281622",
"o  c #311C23",
"O  c #321E2A",
"+  c #3A2127",
"@  c #31212B",
"#  c #3B262F",
"$  c #2C2336",
"%  c #3B2730",
"&  c #342B34",
"*  c #332B39",
"=  c #3C3030",
"-  c #30303C",
";  c #472219",
":  c #402222",
">  c #4A2826",
",  c #46282E",
"<  c #4B2C2B",
"1  c #522B2B",
"2  c #4A302F",
"3  c #59322D",
"4  c #452B32",
"5  c #4C363E",
"6  c #5C3635",
"7  c #573835",
"8  c #623433",
"9  c #633C35",
"0  c #6B3F34",
"q  c #623C3B",
"w  c #694036",
"e  c #7A4536",
"r  c #73423B",
"t  c #764A3D",
"y  c #2F2E41",
"u  c #3A3644",
"i  c #4A3D46",
"p  c #454347",
"a  c #584547",
"s  c #5D4E4B",
"d  c #554F55",
"f  c #624A48",
"g  c #724E47",
"h  c #7F4841",
"j  c #69524C",
"k  c #72564A",
"l  c #7D5E54",
"z  c #7B695F",
"x  c #706762",
"c  c #7C6961",
"v  c #786D73",
"b  c #834A3C",
"n  c #894B3B",
"m  c #885446",
"M  c #955B45",
"N  c #935F4A",
"B  c #9F5A4B",
"V  c #935A51",
"C  c #9D634E",
"Z  c #8F6358",
"A  c #9C6353",
"S  c #A2634B",
"D  c #A46D4F",
"F  c #A86B4F",
"G  c #B66E4F",
"H  c #BA6E4D",
"J  c #B4724E",
"K  c #B9704D",
"L  c #A76E55",
"P  c #AA6C52",
"I  c #AE6658",
"U  c #A56B59",
"Y  c #B56F51",
"T  c #BA6D52",
"R  c #B56C5D",
"E  c #A5705D",
"W  c #A8795B",
"Q  c #B57052",
"!  c #BF7757",
"~  c #BE7A52",
"^  c #B7755A",
"/  c #BD795C",
"(  c #816F6B",
")  c #817370",
"_  c #8E7475",
"`  c #A77A63",
"'  c #A47F6C",
"]  c #B77C68",
"[  c #BF8061",
"{  c #B58170",
"}  c #C38264",
"|  c #C7846A",
" . c #CD8E6A",
".. c #D48F66",
"X. c #D48E6A",
"o. c #D39065",
"O. c #D3946C",
"+. c #D89B6E",
"@. c #C48D73",
"#. c #CE9278",
"$. c #D39C72",
"%. c #DE9E73",
"&. c #D09E79",
"*. c #DDA36D",
"=. c #CDA277",
"-. c #CBA47B",
";. c #DDA173",
":. c #DDAC71",
">. c #D4A37C",
",. c #E4A76E",
"<. c #E1A96E",
"1. c #E5A673",
"2. c #E1A874",
"3. c #E4A579",
"4. c #E2A878",
"5. c #7E7B82",
"6. c #857784",
"7. c #807981",
"8. c #888389",
"9. c #978586",
"0. c #928886",
"q. c #969396",
"w. c #9A9594",
"e. c #95939A",
"r. c #9C969C",
"t. c #96999D",
"y. c #9A989C",
"u. c #9699A2",
"i. c #9898A1",
"p. c #A4A3AB",
"a. c #AAA8AD",
"s. c #AFB0B5",
"d. c #B4B5B3",
"f. c #BEB9B5",
"g. c #D7AB86",
"h. c #DCAE8C",
"j. c #D7B08F",
"k. c #DEB88E",
"l. c #DDBB92",
"z. c #D2B99B",
"x. c #E5B384",
"c. c #EBB389",
"v. c #E3B291",
"b. c #E3BA93",
"n. c #E9BF92",
"m. c #C2BEBD",
"M. c #E5C28D",
"N. c #E9C28F",
"B. c #EAC193",
"V. c #C7C3C2",
"C. c #CECECE",
"Z. c #D3C6CD",
"A. c #E2E0E9",
"S. c #E8E7EC",
"D. c #ECEBEC",
"F. c #F1F0EC",
"G. c #EEEEF0",
"H. c #F4F4F2",
"J. c #FBFCF6",
"K. c #F5F6FC",
"L. c #F8F6F9",
"P. c #F5FEFF",
"I. c #FEFEFE",
/* pixels */
"I.I.I.I.I.I.I.I.I.I.I.I.I.I.I.I.P.I.I.I.I.I.I.I.I.I.I.I.I.I.I.I.",
"I.I.I.I.J.I.I.I.I.I.I.I.I.I.I.I.I.I.I.I.I.I.I.I.I.I.I.I.I.I.I.I.",
"I.I.I.I.I.I.I.I.I.I.I.I.I.I.I.I.I.I.I.I.I.I.I.I.I.I.I.I.I.I.I.I.",
"I.I.I.I.I.I.I.I.I.I.I.I.I.I.I.I.I.I.I.I.I.I.I.I.I.I.I.I.I.I.I.I.",
"I.I.I.I.I.I.I.I.I.I.I.I.I.I.I.I.I.I.I.I.I.I.I.I.I.I.I.I.I.I.I.I.",
"I.I.I.I.I.I.I.I.I.I.I.I.I.I.I.I.I.I.I.I.I.I.I.I.I.I.I.I.I.I.I.I.",
"I.I.I.I.I.I.I.I.I.I.I.I.I.I.I.I.I.I.I.I.I.I.I.I.I.I.I.I.I.I.I.I.",
"I.I.I.I.I.I.I.I.I.I.I.I.I.I.I.I.I.I.I.I.I.I.I.I.I.I.I.I.I.P.J.I.",
"I.I.I.I.I.I.I.I.I.I.I.I.I.I.I.I.I.I.I.I.I.I.I.I.I.I.I.I.I.I.I.I.",
"I.I.I.I.I.I.I.I.I.I.I.I.I.I.I.I.I.I.I.I.J.I.I.I.I.I.I.I.I.I.I.I.",
"I.I.I.I.I.I.I.I.I.I.I.I.I.I.I.I.I.I.I.J.I.I.P.I.I.I.P.I.I.I.I.I.",
"P.L.I.I.I.I.I.I.I.I.I.I.P.I.I.I.I.J.D.t.u.i.t.y.t.i.i.r.r.y.H.I.",
"J.C.e.e.q.e.e.q.q.e.q.q.a.I.J.I.P.A.0.q 9 q q q q q 9 q f   G.J.",
"I.w.= k k k j k k k k j i s.J.J.A.5.: V M M M N M M B R k 7.H.I.",
"I.V.( ` X.O.o.X.......} b a d.A.6.@ 4 6 8 6 6 6 8 8 0 g ) H.I.P.",
"I.I.m.l N J J J Q Q G Y I r s 8.  $ O @ O @ @ O O + 5 v L.I.J.J.",
"P.I.P.r.3 P T H T T Y Q K S r , X o 7 < 4 < < < < < 7 f.L.P.P.I.",
"I.J.S.9.6 V [ ~ ~ ! ~ ~ ~ ~ Y b 3 w @.~ K H H H H H U > Z.K.J.J.",
"I.D.9.0 m ' M.4.1.,.1.3.3.1.1.$.W e b #./ G Y Y H K K P ; V.P.I.",
"J.e.5 g 2 _ n.1.,.+.%.%.%.;.*.x.c.F h e @.A A A C C N M ( . F.I.",
"I.d.d d u z N.$.| } | } [ }  .x.b.Q D t 1 1 1 1 < ,   d a d H.I.",
"I.J.I.I.e.z N.$.[ ] } ^ ^ /  .x.b.J Q R n n n b b r & I.I.I.J.I.",
"I.I.I.I.t.z B.+. . . . .X...O.x.b.J H T Y Y Q Q Q A % I.I.I.I.I.",
"I.I.I.I.i.c b.3.3.2.1.3.3.3.4.x.k.T K Y Y H K K H S # I.I.I.I.I.",
"I.I.I.I.t.c B.3.,.1.,.1.,.1.,.x.l.T H H H T H H H S & I.I.I.I.I.",
"I.I.I.I.t.c M.:.,.2.2.2.1.1.2.x.l.H H T K T Q Q Y C & J.I.I.I.I.",
"I.I.I.I.y.c n.3.1.:.:.:.:.<.:.x.l.H T T T K Q Q H S & P.I.I.I.I.",
"I.I.I.I.e.z n.3.1.4.3.4.3.1.1.x.b.H T Y Y Y Q Q G S & J.I.I.I.I.",
"I.I.I.I.t.x z.-.=.>.v.h.=.>.&.g.j.U L U U { ] E U Z $ I.I.I.I.I.",
"I.I.I.I.p.& & & * & * & & * & - y & & & & & & & & & p I.I.I.I.I.",
"I.I.I.I.I.I.I.I.I.I.I.I.J.J.I.I.I.I.I.I.I.I.I.I.I.I.I.I.I.I.I.I.",
"I.I.I.I.I.I.I.I.I.I.I.I.I.I.I.I.I.I.I.I.I.I.I.I.I.I.I.I.I.I.I.I."
};
