/* XPM */
static char * bretzel_xpm[] = {
"32 32 4 1",
" 	c #FEFEFE",
".	c #D77643",
"+	c #BE4A2F",
"@	c #E4A672",
"                                ",
"                                ",
"                                ",
"                                ",
"                                ",
"                                ",
"                                ",
"                                ",
"                                ",
"                                ",
"       .....       .....        ",
"      .+++++.     .+++++.       ",
"     .+++++++.   .+++++++.      ",
"    .+++...+++. .+++...+++.     ",
"    .++.@@@.+++.+++.@@@.++.     ",
"    .++.@@@@.+.+++.@@@@.++.     ",
"    .++.   @@.+++.@@   .++.     ",
"    .++.    .+++.+.    .++.     ",
"    .+++.  .+++.+++.  .+++.     ",
"    @.+++..+++.+.+++..+++.@     ",
"    @@.+..+++.+++.+++..+.@@     ",
"    @@@..+++.+++++.+++..@@@     ",
"    @@@@...............@@@@     ",
"     @@@@@@@@@@@@@@@@@@@@@      ",
"      @@@@@@@@@@@@@@@@@@@       ",
"       @@@@@@@@@@@@@@@@@        ",
"                                ",
"                                ",
"                                ",
"                                ",
"                                ",
"                                "
};