/* XPM */
static char *_1693316230[] = {
/* columns rows colors chars-per-pixel */
"32 32 148 2 ",
"   c #78613F",
".  c #7F6944",
"X  c #74664C",
"o  c #7B6753",
"O  c #746953",
"+  c #7C6C55",
"@  c #796B5A",
"#  c #7E725C",
"$  c #7E7862",
"%  c #865F36",
"&  c #8A5C38",
"*  c #86663F",
"=  c #916A3F",
"-  c #836044",
";  c #8C6543",
":  c #856945",
">  c #9C6443",
",  c #956E43",
"<  c #9D6D44",
"1  c #906449",
"2  c #857949",
"3  c #92744C",
"4  c #9C794F",
"5  c #836C51",
"6  c #8B6C57",
"7  c #877352",
"8  c #8C7354",
"9  c #80745E",
"0  c #8D755B",
"q  c #86785D",
"w  c #897958",
"e  c #937C53",
"r  c #92725B",
"t  c #957E5F",
"y  c #A37754",
"u  c #837561",
"i  c #8C7563",
"p  c #867966",
"a  c #8B7A60",
"s  c #847E69",
"d  c #907967",
"f  c #8B7F71",
"g  c #898055",
"h  c #998354",
"j  c #B3885E",
"k  c #888165",
"l  c #938060",
"z  c #998262",
"x  c #9E8C64",
"c  c #94856B",
"v  c #9A846C",
"b  c #8B8375",
"n  c #85817E",
"m  c #948975",
"M  c #9A8778",
"N  c #948A7D",
"B  c #9D8E7B",
"V  c #AA8568",
"C  c #BD8866",
"Z  c #BD9067",
"A  c #A08B76",
"S  c #BEA57D",
"D  c #CE875B",
"F  c #D38C5E",
"G  c #D1945D",
"H  c #DE935C",
"J  c #C58C65",
"K  c #C88F64",
"L  c #CC9B61",
"P  c #C5926C",
"I  c #CF916C",
"U  c #C49C6F",
"Y  c #D39461",
"T  c #DE9463",
"R  c #C79A71",
"E  c #E49769",
"W  c #C7A26E",
"Q  c #CAA574",
"!  c #CCA17E",
"~  c #8F8B84",
"^  c #948C84",
"/  c #9A8E84",
"(  c #9C9385",
")  c #9B938A",
"_  c #979694",
"`  c #9A9691",
"'  c #9D9A99",
"]  c #A2958C",
"[  c #A1988F",
"{  c #A29C95",
"}  c #D8D1B5",
"|  c #F3D2A5",
" . c #EFD0B3",
".. c #EED8B3",
"X. c #F5DEB2",
"o. c #FDD9B7",
"O. c #F0DDBB",
"+. c #EFE1B4",
"@. c #FDE3B7",
"#. c #FFECB6",
"$. c #FDE3BB",
"%. c #FDE9BE",
"&. c #FFF1BC",
"*. c #E3D5C5",
"=. c #E3D9C0",
"-. c #EDDCC8",
";. c #F3DECD",
":. c #F0DED0",
">. c #E9E4CE",
",. c #F4E3C5",
"<. c #FCE7C2",
"1. c #F6E8C5",
"2. c #FFEBC2",
"3. c #F4E4CB",
"4. c #FAE6CA",
"5. c #FDEECC",
"6. c #FFF2C4",
"7. c #FDF3CB",
"8. c #FFFCCC",
"9. c #EBE5D2",
"0. c #EFEBDD",
"q. c #F8E1D3",
"w. c #F5EED1",
"e. c #FEEBD3",
"r. c #F2ECDB",
"t. c #F6F0D0",
"y. c #FFF5D4",
"u. c #FFFBD5",
"i. c #FFF1DF",
"p. c #FFFCDA",
"a. c #EFEEEB",
"s. c #F4ECE1",
"d. c #F9EFE5",
"f. c #F2EEE9",
"g. c #FBEDEA",
"h. c #F5F2E4",
"j. c #FDF4E2",
"k. c #FFF9E3",
"l. c #F7F3ED",
"z. c #FBF3EC",
"x. c #FEFDEE",
"c. c #EFFFFC",
"v. c #F4F3F2",
"b. c #FBF4F4",
"n. c #FEFCF4",
"m. c #FCF7FD",
"M. c #F4FEFC",
"N. c #FEFEFE",
/* pixels */
"N.N.N.N.N.N.N.N.N.N.N.N.N.N.N.N.N.N.N.N.N.N.N.m.N.N.N.N.N.N.N.N.",
"N.N.N.N.N.N.N.N.N.N.N.N.N.N.N.N.N.N.N.N.N.N.N.N.N.N.N.N.N.N.N.N.",
"N.N.N.N.N.N.N.N.N.M.N.N.N.N.N.m.N.N.N.m.N.N.N.N.N.N.N.N.N.N.N.N.",
"N.N.N.N.N.N.N.N.n.N.N.M.N.N.N.N.m.N.N.n.N.n.N.n.N.N.N.N.N.N.N.N.",
"N.N.n.n.n.n.N.N.N.m.m.N.N.N.N.n.N.N.N.N.N.N.n.n.M.N.n.N.N.M.N.N.",
"N.N.N.n.n.N.M.N.m.m.N.N.N.m.M.N.N.N.n.N.m.N.n.N.N.N.n.N.N.M.N.N.",
"N.N.N.n.N.N.N.N.N.N.N.N.n.n.n.N.N.N.M.N.N.m.N.m.N.N.N.N.N.N.N.n.",
"N.N.N.N.M.N.N.N.m.N.N.n.s.n.n.N.M.M.N.n.g.m.b.N.N.N.M.N.N.N.N.N.",
"N.N.N.N.N.N.N.N.N.N.n.f.k >.n.n.N.n.n.9.i q.n.N.N.N.N.N.N.N.N.N.",
"N.N.N.N.M.N.N.N.N.M.h.$ } k 0.l.s.x.e.0 V r k.n.m.N.N.N.N.N.N.N.",
"N.N.M.M.M.N.N.N.N.n.k.+ e.w.u 5 r 1 > I J ; i.n.n.N.N.N.N.N.N.N.",
"N.N.N.N.N.N.N.N.n.n.3.w 5.p.4.5.o.P D E F < 4.x.n.N.N.N.M.m.N.N.",
"n.N.N.N.N.N.N.N.n.h.w <.u.p.u.y.6.W G H T J 3 j.N.N.N.N.n.N.N.N.",
"N.n.N.N.N.N.N.N.n.9.7 %.u.7.<.%.8.&.L G K J ; 3.n.N.n.N.N.N.N.N.",
"n.N.N.N.n.N.N.N.b.$   u.5.7 * , %.6.#.Q Q ! - d n.N.n.n.N.N.N.N.",
"N.N.N.n.n.N.N.N.n.*.q $.y.: j Z 3 2.u.@.7. .6 *.n.M.N.N.N.N.N.N.",
"N.N.N.n.N.N.N.N.l.^ O.c ..2 = R C y X.x O.A :.^ c.c.M.N.n.n.N.n.",
"N.N.N.n.N.N.N.N.b.l.x.3.e o.@.< P & 5.1.8 ;.b.f.c.M.M.N.N.N.n.N.",
"N.N.N.N.N.N.N.N.m.N.n.x.: U $.4 | e 7.7.5 d.n.n.n.n.N.N.N.N.N.N.",
"N.N.n.N.N.N.N.N.N.b.n.j.: U @.3 X.2 7.e.0 e.n.n.n.N.N.N.N.N.N.N.",
"N.N.N.N.N.N.N.N.N.N.n.k.3 ] @.h +.g 7.t.9 i.n.N.N.N.N.N.N.N.N.n.",
"N.N.N.N.N.N.N.N.N.n.n.r.g +.6.6.u.6.p.t.$ r.n.N.N.N.N.N.N.N.N.N.",
"N.N.N.N.N.N.N.N.m.n.l.] o u.y.8.2.7.p.u.O ) l.n.N.N.N.N.N.N.N.n.",
"N.N.N.N.N.N.N.N.N.f.{ b @ 1.u.6.e 7.y.3.# b { l.N.N.N.N.N.N.N.N.",
"N.N.N.N.N.N.N.N.N._ ~ ) m a 5.%.. 1.y.u v ( N _ N.N.N.M.N.N.N.N.",
"N.N.N.N.N.N.N.N.v.' n ) N @ w.d z h 4.5 B / ^ ` n.N.N.N.N.N.N.N.",
"N.N.N.N.N.N.N.N.N.v.' ~ f p -.5 v o ;.i f / ` v.N.M.N.N.N.N.N.N.",
"N.N.N.N.N.N.N.N.N.N.v._ ) N @ o N @ @ N ) { a.N.N.N.N.N.N.N.N.N.",
"N.N.N.N.N.N.N.N.N.N.m.N.v.[ N / ] / / ' l.n.N.M.N.M.N.N.N.N.N.N.",
"N.N.N.N.N.N.N.N.N.N.N.n.n.z.n.n.n.m.n.v.N.m.N.N.N.N.N.N.N.N.N.N.",
"N.N.N.N.N.N.N.N.N.N.N.n.N.N.n.m.N.N.N.N.N.N.N.N.N.M.N.N.N.n.N.N.",
"N.N.N.N.N.N.N.N.m.N.N.N.N.N.N.N.N.n.N.N.N.n.N.m.N.N.N.N.N.N.N.N."
};
