/* XPM */
static char *_31693316231[] = {
/* columns rows colors chars-per-pixel */
"32 32 139 2 ",
"   c #2E2508",
".  c #332502",
"X  c #4A1700",
"o  c #6A5B34",
"O  c #746E4E",
"+  c #7B6C4D",
"@  c #746353",
"#  c #7F6652",
"$  c #776C56",
"%  c #7D6759",
"&  c #797353",
"*  c #7B755C",
"=  c #7D7663",
"-  c #95663A",
";  c #A56D3E",
":  c #856043",
">  c #886F46",
",  c #8A674B",
"<  c #836B49",
"1  c #946745",
"2  c #986E44",
"3  c #90614F",
"4  c #92694D",
"5  c #91704D",
"6  c #8D6754",
"7  c #836C54",
"8  c #8B6D56",
"9  c #826B59",
"0  c #896A58",
"q  c #9F6D56",
"w  c #877350",
"e  c #8B7052",
"r  c #8F7D55",
"t  c #827459",
"y  c #8A745B",
"u  c #8C7B5C",
"i  c #997050",
"p  c #937855",
"a  c #96775A",
"s  c #957D59",
"d  c #8F7262",
"f  c #827B65",
"g  c #807269",
"h  c #8A7D6C",
"j  c #957161",
"k  c #957961",
"l  c #907969",
"z  c #987E6D",
"x  c #8E7E71",
"c  c #90815A",
"v  c #8D846A",
"b  c #95806D",
"n  c #9A856A",
"m  c #978576",
"M  c #988372",
"N  c #948679",
"B  c #958A7C",
"V  c #9C917F",
"C  c #A78361",
"Z  c #B5816C",
"A  c #BC866E",
"S  c #B6896A",
"D  c #AA946D",
"F  c #BE976B",
"G  c #C3895A",
"H  c #C48F65",
"J  c #CA8F63",
"K  c #C59064",
"L  c #CB9364",
"P  c #C5946B",
"I  c #C9956D",
"U  c #C79C6F",
"Y  c #D89B6C",
"T  c #CEA27B",
"R  c #E0A070",
"E  c #988581",
"W  c #978B83",
"Q  c #9F8880",
"!  c #978D8B",
"~  c #9C8D88",
"^  c #979183",
"/  c #9E968F",
"(  c #99998F",
")  c #9C9292",
"_  c #999896",
"`  c #A39592",
"'  c #A19997",
"]  c #A0979A",
"[  c #A19C98",
"{  c #CFA985",
"}  c #ECCEB6",
"|  c #E3D6B4",
" . c #EDD4B3",
".. c #EAD5BA",
"X. c #E6DCB8",
"o. c #F7D5B2",
"O. c #F1DEB6",
"+. c #FFDBB1",
"@. c #EDE1B7",
"#. c #F5E1BE",
"$. c #FAE4BE",
"%. c #EFDCCE",
"&. c #FFDFC3",
"*. c #F7DECA",
"=. c #ECE4CA",
"-. c #F4E7C3",
";. c #FFE6C4",
":. c #F5E9C1",
">. c #FDECC4",
",. c #F5E3CB",
"<. c #FFE6CB",
"1. c #F5EBCD",
"2. c #FFEBC9",
"3. c #FFF3CB",
"4. c #FFFBCF",
"5. c #ECE5D2",
"6. c #EEEBDC",
"7. c #F4E5D3",
"8. c #FCE9D2",
"9. c #FDE7D9",
"0. c #FCECDC",
"q. c #FFF4D1",
"w. c #FFFCD3",
"e. c #FEF2DE",
"r. c #FFFCDB",
"t. c #EEEBE6",
"y. c #F9ECE6",
"u. c #FEF4E4",
"i. c #FFFAE4",
"p. c #F5F5ED",
"a. c #FEF2EA",
"s. c #FEFBED",
"d. c #F4F4F3",
"f. c #FAF5F3",
"g. c #F1FFF7",
"h. c #FEFDF5",
"j. c #FFF7F8",
"k. c #F5FEFE",
"l. c #FEFEFE",
/* pixels */
"l.l.l.l.l.l.l.l.l.l.l.l.l.l.h.h.h.h.k.l.l.l.l.l.l.l.l.l.h.l.l.l.",
"l.l.l.l.l.k.l.l.l.l.l.l.l.j.l.j.l.h.l.h.j.l.l.l.l.l.l.l.l.l.l.l.",
"l.l.l.l.k.l.k.l.l.j.l.l.l.l.l.l.l.l.l.h.l.l.l.l.l.h.l.l.l.l.l.l.",
"l.l.l.l.l.l.l.l.l.l.l.l.l.j.l.l.l.l.l.l.l.l.l.l.l.l.l.l.l.l.l.l.",
"l.l.l.l.l.h.l.l.k.k.k.l.l.j.l.l.l.l.l.h.h.l.l.k.l.l.l.l.l.l.l.l.",
"l.l.l.l.l.l.l.l.k.l.l.l.h.l.l.l.l.l.l.h.h.f.l.k.l.l.l.l.l.l.l.l.",
"l.l.l.l.l.l.l.l.k.k.g.l.l.h.h.g.k.g.l.h.l.l.l.l.l.l.l.l.l.l.l.l.",
"l.l.l.l.l.l.l.l.l.k.j.l.h.l.l.l.g.k.h.j.l.j.l.l.l.l.l.l.l.l.l.l.",
"l.l.l.l.l.l.l.l.l.l.l.l.h.l.h.h.h.h.h.l.l.l.l.l.l.l.l.l.l.l.l.l.",
"l.l.l.l.l.l.l.l.h.l.l.l.l.l.s.h.e.0.l.l.j.l.l.l.l.l.l.l.l.l.l.l.",
"l.l.l.l.l.l.l.l.h.l.l.l.k.j.j.9.6 j y.l.l.k.l.l.l.l.l.l.l.l.l.l.",
"l.l.k.l.l.l.l.l.l.h.l.l.l.l.a.d Z , a.j.l.k.l.l.l.l.l.l.l.l.l.k.",
"l.l.l.k.l.l.k.l.l.h.l.l.l.l.u.0 A q 0.l.l.l.l.l.l.l.l.l.l.l.l.k.",
"l.l.l.l.l.l.l.l.l.f.l.l.l.h.a.7 S 4 i.h.h.l.f.h.l.l.l.l.l.l.l.l.",
"h.l.l.l.l.l.l.l.l.l.l.l.l.h.,.u  .s ,.s.h.j.l.l.l.l.l.l.l.l.l.l.",
"l.l.h.l.l.l.l.l.l.l.h.h.i.0.y #.4.@.y e.u.h.h.h.l.l.l.l.l.l.l.l.",
"l.h.l.l.l.l.l.l.l.h.h.7.n o.p 3.w.w.w ..z 5.h.l.l.l.l.l.l.l.l.l.",
"l.l.l.l.l.l.l.l.j.l.u.y C 2 +.>.>.:.D p ..h p.l.l.l.l.l.l.l.l.l.",
"l.l.k.l.l.l.l.l.l.l.0., I L ; - 5 < > $.3.$ s.h.l.l.l.l.l.l.l.l.",
"l.l.l.l.l.l.l.l.l.h.8.1 J R G P &.<.3.w.-.f 6.h.l.l.l.l.l.l.l.l.",
"l.l.l.l.l.l.k.l.j.i.i H Y G H { e.i.r.1.r.=.= u.h.l.l.l.l.l.l.l.",
"l.l.l.l.l.l.k.l.l.*.1 K G X F 2.8.i.=.  1.r.* 5.h.h.l.l.l.l.l.l.",
"l.l.l.l.l.l.l.l.y.l : T U F >.@.. | r.-.w.q.O * s.h.l.l.l.l.l.l.",
"l.l.l.l.l.l.l.l.j.*.e o.3.3.3.r o c 3.w.r.X.& =.s.h.l.l.l.l.l.l.",
"l.l.l.l.l.l.l.l.p.g M k <.q.;.$.>.$.2.3.>.v v = a.l.l.l.l.l.l.l.",
"l.l.l.l.l.l.l.l.f./ B m 7 8 a e w 7 7 + & v V ^ h.l.l.l.l.l.l.l.",
"l.l.l.l.l.k.l.l.l.t.[ W x 9  .e z % @ m m W / p.l.l.l.l.l.l.l.l.",
"l.l.l.l.l.l.l.h.f.l.d._ ) B 9 # Q E ~ W ! ' d.l.l.l.l.l.l.l.h.l.",
"l.l.l.l.l.l.l.l.l.l.k.k.d.( B V ` ) ) ] f.k.l.l.l.l.l.l.l.l.l.h.",
"l.l.l.l.l.l.l.j.j.l.l.k.k.d.s.s.f.l.l.d.l.l.l.l.l.l.l.l.l.l.h.l.",
"l.l.l.l.l.l.l.h.l.l.k.k.k.l.h.h.j.l.l.l.j.l.k.l.l.l.l.l.l.l.l.l.",
"l.l.l.l.l.l.l.l.j.l.j.l.l.l.k.k.l.l.l.l.l.l.l.j.l.l.l.l.l.l.l.l."
};
