/* XPM */
static char *_01693316230[] = {
/* columns rows colors chars-per-pixel */
"32 32 154 2 ",
"   c #351E00",
".  c #392A09",
"X  c #420E00",
"o  c #735C3D",
"O  c #7B613E",
"+  c #6F5D45",
"@  c #75664F",
"#  c #7C634B",
"$  c #7D6654",
"%  c #756857",
"&  c #7C6B55",
"*  c #786B58",
"=  c #7C7353",
"-  c #7E775A",
";  c #845E39",
":  c #945F3E",
">  c #88623E",
",  c #A8673D",
"<  c #805B41",
"1  c #846941",
"2  c #846D4C",
"3  c #946547",
"4  c #966942",
"5  c #936C4F",
"6  c #9C694C",
"7  c #877148",
"8  c #8B744D",
"9  c #90774E",
"0  c #836D56",
"q  c #896D53",
"w  c #866E5B",
"e  c #8F6C58",
"r  c #926D53",
"t  c #827255",
"y  c #8A7755",
"u  c #8C7B50",
"i  c #85745E",
"p  c #8B745C",
"a  c #847A5A",
"s  c #8A7B5D",
"d  c #937354",
"f  c #907950",
"g  c #927C5D",
"h  c #98795D",
"j  c #867662",
"k  c #8D7464",
"l  c #897C65",
"z  c #8A7B6E",
"x  c #9E7563",
"c  c #867C73",
"v  c #9A835D",
"b  c #8E8065",
"n  c #868068",
"m  c #908067",
"M  c #9A8765",
"N  c #978169",
"B  c #9D846E",
"V  c #8F8174",
"C  c #8E8178",
"Z  c #938475",
"A  c #9A8572",
"S  c #92867C",
"D  c #95897C",
"F  c #A38364",
"G  c #B48865",
"H  c #B08268",
"J  c #B58869",
"K  c #BA8F6D",
"L  c #BD946F",
"P  c #A08977",
"I  c #BB9473",
"U  c #C98659",
"Y  c #C4895D",
"T  c #DA905F",
"R  c #C98860",
"E  c #CA9365",
"W  c #C6916B",
"Q  c #CA966E",
"!  c #D29465",
"~  c #DD9763",
"^  c #D49866",
"/  c #D89A69",
"(  c #C59571",
")  c #CD9D75",
"_  c #CDA37D",
"`  c #D8A47C",
"'  c #968E83",
"]  c #9C8B81",
"[  c #958D8A",
"{  c #9C9085",
"}  c #95908C",
"|  c #9C938C",
" . c #9D9593",
".. c #9F9A97",
"X. c #A99789",
"o. c #A3998F",
"O. c #A89889",
"+. c #A19592",
"@. c #A19992",
"#. c #DFC8A8",
"$. c #E7D2B5",
"%. c #EDD6B2",
"&. c #ECDCBB",
"*. c #F9D5B1",
"=. c #F4DDB4",
"-. c #F7E1B7",
";. c #F3E4BD",
":. c #FCE4BE",
">. c #F4E9BF",
",. c #E4CEC1",
"<. c #E3D9CB",
"1. c #EDDECE",
"2. c #F4DFC4",
"3. c #EEE0C3",
"4. c #ECE3CA",
"5. c #F5E4C4",
"6. c #FAE4C4",
"7. c #F1E8C7",
"8. c #FDEBC4",
"9. c #F4E5C8",
"0. c #FDE3CB",
"q. c #F4EECD",
"w. c #FEECCC",
"e. c #F7F1CD",
"r. c #FEF2CB",
"t. c #F4E4D3",
"y. c #FDE6D3",
"u. c #FEEDD2",
"i. c #F9E2DA",
"p. c #F4EADB",
"a. c #F8ECDC",
"s. c #FAF5D4",
"d. c #FFFBD3",
"f. c #F6F1DE",
"g. c #FEF1DC",
"h. c #FFFADC",
"j. c #EFEDEE",
"k. c #F2E9E0",
"l. c #FFEDE2",
"z. c #F4EFEE",
"x. c #FBEEE8",
"c. c #F7F3E7",
"v. c #FEF2E2",
"b. c #FFFAE6",
"n. c #F5F7EC",
"m. c #FCF2ED",
"M. c #FFFCED",
"N. c #F4F4F2",
"B. c #FCF5F3",
"V. c #F6F9F3",
"C. c #FEFDF4",
"Z. c #FDF4F9",
"A. c #F5FCFD",
"S. c #FEFEFD",
/* pixels */
"S.S.S.S.S.S.S.A.S.S.S.S.A.S.S.S.S.S.S.A.S.S.C.S.S.S.S.S.S.S.S.S.",
"S.S.S.S.S.S.A.S.S.A.S.S.A.S.S.A.A.S.S.A.S.S.S.S.C.S.S.S.S.S.S.S.",
"S.S.S.S.S.S.S.S.C.S.S.S.S.S.S.S.S.S.S.S.S.S.S.S.S.S.S.S.S.S.S.S.",
"S.S.S.S.S.S.C.S.S.S.S.S.S.S.C.C.S.S.S.S.S.S.S.S.S.S.S.C.S.C.S.A.",
"C.S.S.S.S.S.A.C.C.C.S.S.A.S.S.C.S.S.S.S.S.S.S.S.A.S.S.S.S.S.S.S.",
"S.C.S.S.S.S.S.C.C.B.S.A.S.A.S.S.S.S.S.S.S.S.S.S.S.S.S.S.S.S.S.S.",
"A.A.S.S.S.S.S.S.S.S.S.S.A.S.C.C.C.S.S.C.S.C.S.S.S.S.S.S.S.S.S.S.",
"A.A.S.S.S.S.S.S.S.S.S.S.S.S.C.C.S.S.S.S.S.S.S.S.S.S.S.A.S.S.S.S.",
"S.S.Z.S.S.S.S.A.S.S.S.S.S.B.S.C.S.S.S.S.S.S.S.S.S.S.S.S.S.S.S.S.",
"S.S.S.S.S.S.S.S.C.C.M.C.S.S.S.S.S.S.S.S.S.S.S.A.S.S.S.S.S.S.S.S.",
"Z.S.S.S.S.A.S.S.M.g.v.v.C.S.Z.S.S.S.S.S.S.S.S.S.A.S.S.S.S.S.S.S.",
"S.S.S.S.S.A.S.C.y.w # w x.S.S.S.S.C.Z.S.S.S.S.C.V.C.C.S.C.S.S.S.",
"C.C.S.A.A.S.C.y.r I F $ m.S.S.S.i.k t.M.C.C.B.p.c p.C.C.S.S.S.S.",
"B.C.S.A.S.S.l.e J ( x l.C.C.S.m.x H d u.g.g.t.l ,.z c.C.C.A.S.S.",
"C.S.S.S.S.B.l.r L > s.b.C.S.C.v.3 U Q 4 3 5 2 = 2.w l.C.S.S.A.A.",
"B.C.S.S.C.C.g.q *.F 9.M.M.C.M.0., T ^ E W G :.h.u.k t.M.C.S.S.A.",
"S.S.S.A.S.C.a.k ;.6.l 4.b.b.0.6 U ~ ! R W _ r.d.w.2.i v.C.S.S.A.",
"S.A.C.S.S.C.C.p.l w.e.- & t o : ! / R X I r.r.6.. 3.s 1.B.C.S.A.",
"S.S.S.A.A.A.S.C.1.m 7.e.e.7.2 ; ) ` ( I r.&.  $.s.s.+ j M.N.C.S.",
"S.C.S.S.S.S.S.S.C.4.a r.d.d.%.9 *.r.w.h.d.a o g h.q.i <.C.C.S.S.",
"S.S.C.S.S.S.S.S.C.b.= >.d.8.N =.v =.r.8.8.-.-.:.&.n <.[ j.S.S.S.",
"S.S.S.S.S.S.S.S.C.h.a 8.d.d.w.h.8.u 7 9 > 9 f u a f.C.j.A.S.S.S.",
"S.S.S.C.A.S.S.S.S.p.t >.r.>.u.g.w.r.8.=.1 # 0.a.a.C.S.S.S.S.Z.S.",
"S.S.S.S.S.S.S.S.m.D t ;.u 8 q # p w.r.v %.g u.M.C.S.S.S.S.S.S.S.",
"S.S.S.S.S.S.S.Z.@.c s 6.M #.p B N s 5.y 5.w ] B.S.S.S.A.S.A.n.C.",
"S.S.S.S.S.S.S.S...C * w.0.0 0 A A p 9.t $ Z +.Z.Z.S.S.S.S.C.C.S.",
"S.S.S.S.A.S.S.S.B.o.D @ i 0 z X.O.Z * % V o.Z.S.S.S.A.A.A.C.V.S.",
"S.S.S.S.S.S.S.S.S.B.o.D Z S { ] D { C } @.z.S.S.S.A.A.S.S.S.A.C.",
"S.S.S.S.S.S.S.S.S.S.C.m.o.{ |  . .[ ..B.S.S.S.S.S.S.S.S.S.S.S.S.",
"S.S.S.S.S.S.S.S.S.S.S.S.B.S.S.A.S.S.j.S.A.A.S.C.S.S.S.S.S.S.S.S.",
"S.S.S.S.S.S.S.S.S.S.S.A.S.S.A.S.A.S.S.S.S.S.C.S.C.S.S.S.S.S.S.S.",
"S.S.S.S.S.C.S.S.S.C.S.S.C.C.S.C.C.S.S.C.S.S.S.Z.S.S.S.S.C.S.S.S."
};
