/* XPM */
static char *_41693316231[] = {
/* columns rows colors chars-per-pixel */
"32 32 143 2 ",
"   c #3D0C00",
".  c #2A1E04",
"X  c #2E2B0A",
"o  c #726241",
"O  c #7C6446",
"+  c #756148",
"@  c #7B654D",
"#  c #7A694D",
"$  c #7F6858",
"%  c #885F3F",
"&  c #85683E",
"*  c #8A6A39",
"=  c #976E3A",
"-  c #9E6B3C",
";  c #846247",
":  c #8E6341",
">  c #82674F",
",  c #8B6149",
"<  c #816A48",
"1  c #9B6E4F",
"2  c #8B734B",
"3  c #977343",
"4  c #91754D",
"5  c #99764C",
"6  c #977F4F",
"7  c #846C54",
"8  c #816F5B",
"9  c #8E6F5D",
"0  c #926D52",
"q  c #827053",
"w  c #8B7F57",
"e  c #83735C",
"r  c #8B735A",
"t  c #88795A",
"y  c #957053",
"u  c #9A7D57",
"i  c #9B765B",
"p  c #967B5E",
"a  c #A06D4E",
"s  c #867660",
"d  c #8F7365",
"f  c #8B7B62",
"g  c #827A6F",
"h  c #8C7C6C",
"j  c #907665",
"k  c #947B64",
"l  c #917E6F",
"z  c #877D73",
"x  c #8F7F70",
"c  c #9A805B",
"v  c #BF945F",
"b  c #8B806C",
"n  c #90846E",
"m  c #9C896B",
"M  c #8F8470",
"N  c #948674",
"B  c #9B877D",
"V  c #968A7B",
"C  c #9A8C7E",
"Z  c #AF856D",
"A  c #AF8A6D",
"S  c #B58F60",
"D  c #B28E6E",
"F  c #B88B6A",
"G  c #A0917E",
"H  c #B39175",
"J  c #BD9B72",
"K  c #C98C55",
"L  c #CB8959",
"P  c #C9945E",
"I  c #C58F67",
"U  c #C58F6D",
"Y  c #D5936B",
"T  c #DC9869",
"R  c #C99C75",
"E  c #D19771",
"W  c #CBA775",
"Q  c #D1A17B",
"!  c #8E8B84",
"~  c #8F8C8B",
"^  c #958D86",
"/  c #9A8C82",
"(  c #928C8A",
")  c #9B8D8A",
"_  c #989284",
"`  c #96918D",
"'  c #999491",
"]  c #9F9C93",
"[  c #97979C",
"{  c #9D9E99",
"}  c #A39884",
"|  c #A59693",
" . c #A09EA3",
".. c #F7DAAE",
"X. c #E3D6BD",
"o. c #E8DEBB",
"O. c #FED7B0",
"+. c #F2D8B5",
"@. c #F4DBBB",
"#. c #FDDEBB",
"$. c #EFE1B4",
"%. c #F4E1B6",
"&. c #FFE3B5",
"*. c #F7E6B8",
"=. c #FFE7BA",
"-. c #FFE8BC",
";. c #E5D4C2",
":. c #EDDCC4",
">. c #ECDFCF",
",. c #F5D6C1",
"<. c #F7DBC3",
"1. c #FDDDC8",
"2. c #ECE4CB",
"3. c #E9E8CA",
"4. c #F3E3C7",
"5. c #FDE6C3",
"6. c #FFE9C0",
"7. c #F2E3CB",
"8. c #FEE5CD",
"9. c #F6EDC9",
"0. c #FFECCA",
"q. c #F5F1CC",
"w. c #FEF4CE",
"e. c #EDE0D0",
"r. c #EEE6D9",
"t. c #F8EED3",
"y. c #F2EBDB",
"u. c #FDECDE",
"i. c #FFF3D3",
"p. c #FFFAD4",
"a. c #FEF3DB",
"s. c #FEFCDC",
"d. c #F6ECED",
"f. c #FEF2E3",
"g. c #FEFBE4",
"h. c #FDF5EA",
"j. c #FEFBED",
"k. c #F9EEF2",
"l. c #F4F5F4",
"z. c #FDF7F2",
"x. c #FEFCF4",
"c. c #F6FDFC",
"v. c #FEFEFE",
/* pixels */
"v.v.v.v.v.v.v.v.v.v.x.v.v.v.v.v.v.v.v.v.v.v.v.v.x.v.v.v.v.v.v.v.",
"v.v.v.v.c.v.v.v.v.v.v.v.v.v.k.v.v.v.v.c.v.v.v.v.v.v.v.v.v.v.v.v.",
"v.v.c.v.v.v.v.v.v.l.v.x.v.v.v.v.v.v.v.c.v.v.v.v.v.v.v.v.v.v.v.v.",
"v.v.v.x.v.v.v.v.v.v.v.c.v.v.v.v.v.v.v.v.v.v.v.v.v.v.v.v.v.v.v.v.",
"v.v.v.x.v.v.v.v.v.v.v.v.v.c.v.v.c.c.v.v.x.x.v.v.v.v.v.v.c.v.v.v.",
"v.v.v.v.v.v.v.v.k.v.v.v.c.v.v.v.v.c.v.c.v.v.v.v.v.v.v.v.v.v.v.x.",
"v.v.v.v.v.v.v.v.v.v.v.v.v.c.v.v.v.v.v.v.v.v.z.v.v.c.v.v.v.v.v.v.",
"v.v.v.v.v.v.v.v.v.v.v.v.v.v.v.v.x.v.v.l.v.v.v.v.v.c.c.v.v.v.v.v.",
"v.v.v.v.v.v.v.v.v.v.v.v.v.v.v.v.v.x.v.v.v.v.c.v.v.v.v.v.v.v.v.v.",
"v.v.v.v.v.v.v.v.v.v.v.v.v.v.x.x.j.u.f.h.z.v.v.v.v.v.v.v.v.v.v.v.",
"v.v.v.v.v.v.v.x.v.v.v.v.c.v.v.g.1.i ; 7 h.z.v.c.v.v.v.v.v.v.v.v.",
"v.v.v.v.c.v.v.v.v.v.v.v.c.v.z.f.y F D > f.x.x.v.x.v.v.v.v.v.v.v.",
"v.v.v.v.v.c.v.v.v.v.v.v.v.v.j.e H H k u.x.x.v.v.v.v.v.v.v.v.v.v.",
"v.v.v.v.v.v.v.v.v.v.v.v.v.z.y.e +.p <.x.j.v.x.v.c.c.v.v.v.v.v.v.",
"v.v.v.v.v.v.v.v.v.v.v.v.z.f.e 4.s.:.b g.h.x.v.v.v.v.v.v.v.v.v.v.",
"x.v.v.v.v.v.v.v.x.v.z.u.d ,.p i.p.i.t X.b r.x.v.v.v.v.v.v.v.v.v.",
"v.v.v.v.v.v.v.v.v.z.h.r Z 1 O.-.=.&.v 4 +.f a.j.x.x.v.v.v.v.v.v.",
"v.v.v.v.v.v.v.v.c.x.f., U E - = 3 * 3 &.5.q a.x.x.v.v.v.v.v.v.v.",
"v.v.v.v.v.v.v.v.x.x.1.a Y T L P %.q.9.s.i.f e.x.v.v.v.v.v.v.v.x.",
"v.v.v.v.v.v.v.v.x.j.0 I Y L P W s.a.g.3.a.2.h f.v.v.v.v.v.v.v.v.",
"v.v.v.v.v.v.v.v.j.8.: I I   J q.t.g.3.X 9.p.q e.x.v.v.v.v.v.v.l.",
"v.v.v.v.v.v.c.z.h.k % R R J w.o.X X.s.9.i.i.# s j.v.v.v.v.v.v.v.",
"v.v.v.v.v.v.v.v.x.;.r #.0.w.p.c o t i.p.s.9.$ 2.j.v.v.v.v.v.v.c.",
"v.v.v.v.v.v.v.v.z.z N t 6.p.*.$.6.@.4.s.3.s N g z.v.v.v.v.v.v.v.",
"c.x.v.v.v.v.v.v.l.( ^ B e < 2 c 4 u 2 O e N _ ! l.v.v.v.v.v.v.v.",
"v.v.x.v.v.v.v.v.v. .~ ^ h 7 -...; %.0.> N / ( { v.v.v.v.v.v.v.v.",
"c.v.v.v.v.v.v.v.v.k.[ ( ^ e 5.u c p <.j B ^ ~ l.v.v.v.v.c.v.v.v.",
"v.v.v.v.v.v.v.v.v.v.c.[ ` B O O m + 7 B ) ' v.v.v.v.v.v.v.v.v.v.",
"v.v.v.v.v.v.v.v.v.v.c.v.l.] V G } / B | d.v.v.v.v.v.v.x.v.v.v.v.",
"z.v.v.v.v.v.v.v.x.v.c.c.c.l.z.z.h.v.k.k.v.v.v.v.v.v.x.v.v.c.v.v.",
"v.v.v.v.v.v.v.v.x.v.l.c.v.v.v.c.v.v.v.v.v.v.v.v.v.v.x.x.v.c.v.v.",
"v.v.v.v.v.v.v.v.v.v.v.v.c.z.v.v.v.v.v.v.v.v.v.c.v.v.v.v.v.x.v.v."
};
