/* XPM */
static char *_1693316230[] = {
/* columns rows colors chars-per-pixel */
"32 32 147 2 ",
"   c #2A1C01",
".  c #373014",
"X  c #441000",
"o  c #6C5E39",
"O  c #745D3D",
"+  c #75664F",
"@  c #79644F",
"#  c #79684E",
"$  c #7F7245",
"%  c #766752",
"&  c #7C6D56",
"*  c #78655E",
"=  c #7F7655",
"-  c #7E725C",
";  c #8A5930",
":  c #855E3D",
">  c #945F37",
",  c #81633F",
"<  c #97613B",
"1  c #A16737",
"2  c #866249",
"3  c #856D4A",
"4  c #8C6C4D",
"5  c #956E45",
"6  c #986C47",
"7  c #946D4D",
"8  c #87744A",
"9  c #8A734C",
"0  c #826C57",
"q  c #8C6D53",
"w  c #846759",
"e  c #816D5C",
"r  c #916F56",
"t  c #906F5E",
"y  c #807057",
"u  c #897256",
"i  c #8B7D56",
"p  c #83735B",
"a  c #8B755D",
"s  c #827A5D",
"d  c #8B7D5A",
"f  c #937B54",
"g  c #997C5E",
"h  c #8B7362",
"j  c #817964",
"k  c #897962",
"l  c #877E6F",
"z  c #8D7C6C",
"x  c #8A7C71",
"c  c #A07B60",
"v  c #8A805C",
"b  c #94865F",
"n  c #BE895D",
"m  c #938266",
"M  c #988662",
"N  c #988068",
"B  c #8D8379",
"V  c #938676",
"C  c #958877",
"Z  c #93897A",
"A  c #9A8B7C",
"S  c #98917F",
"D  c #B48562",
"F  c #B3876A",
"G  c #B48C68",
"H  c #BB9167",
"J  c #A38F77",
"K  c #BD9371",
"L  c #BC9876",
"P  c #CD8D5D",
"I  c #DB935C",
"U  c #C58A62",
"Y  c #CF8E66",
"T  c #CB9567",
"R  c #DC9562",
"E  c #D99B6C",
"W  c #C49674",
"Q  c #DE9B71",
"!  c #D39D7A",
"~  c #D2A87E",
"^  c #968E84",
"/  c #9B8E81",
"(  c #96918B",
")  c #9C948B",
"_  c #9E998E",
"`  c #939192",
"'  c #9D9C97",
"]  c #9D9A9A",
"[  c #A29B95",
"{  c #EDD6AC",
"}  c #F1D3AF",
"|  c #E3CEB9",
" . c #EBD7B6",
".. c #EDDCB1",
"X. c #E3D6BE",
"o. c #F3D6B4",
"O. c #F0DCBD",
"+. c #F8E1B7",
"@. c #F6E4BE",
"#. c #FDE6BD",
"$. c #FFEABF",
"%. c #E5D4C2",
"&. c #E7D6CC",
"*. c #FCDCC7",
"=. c #F1DFCB",
"-. c #FBDCCA",
";. c #E7E2C5",
":. c #ECE2C7",
">. c #EFE9C5",
",. c #EEE4CA",
"<. c #F3E3C4",
"1. c #FAE4C4",
"2. c #F1E8C1",
"3. c #FDEDC4",
"4. c #FFE3CC",
"5. c #FBEACD",
"6. c #FFF2C5",
"7. c #FDF3CA",
"8. c #FFF9CF",
"9. c #FEE6D4",
"0. c #F4EAD3",
"q. c #FFEBD4",
"w. c #F3E5DA",
"e. c #FAE6DF",
"r. c #F4ECDD",
"t. c #FDECD8",
"y. c #FEF2D3",
"u. c #FFFAD5",
"i. c #F6F1DD",
"p. c #FFF3DD",
"a. c #FFFFDA",
"s. c #ECEEE3",
"d. c #F3EAE1",
"f. c #FFEFE1",
"g. c #F5ECE9",
"h. c #FEF4E4",
"j. c #FFFAE6",
"k. c #F5F2EC",
"l. c #FBF4EC",
"z. c #FFFCEE",
"x. c #F6F4F4",
"c. c #FFF6F2",
"v. c #FEFDF5",
"b. c #F6F5FA",
"n. c #FDF6F9",
"m. c #F7FDFE",
"M. c #FEFEFD",
/* pixels */
"v.M.M.M.M.M.M.M.M.M.m.M.M.M.M.M.M.M.M.M.M.M.M.M.M.m.m.M.M.M.M.M.",
"M.M.M.M.M.M.M.M.M.M.M.m.M.M.M.M.M.M.M.M.n.M.M.M.M.M.M.M.M.M.M.M.",
"M.M.M.M.M.M.M.M.M.v.M.M.M.M.M.M.M.M.M.M.M.M.n.M.M.M.M.M.M.M.M.M.",
"M.M.M.M.M.M.M.M.M.M.M.M.M.M.M.n.M.M.n.M.M.M.M.M.M.M.M.M.M.M.M.M.",
"M.M.M.M.M.m.m.M.M.n.M.M.M.M.M.v.M.v.M.M.n.M.v.v.m.m.M.M.M.M.M.v.",
"M.M.M.M.M.M.M.M.M.M.M.M.M.M.M.M.M.M.M.M.M.M.M.M.m.M.M.M.M.M.M.M.",
"M.M.M.v.M.M.M.M.M.M.M.M.M.M.M.M.M.M.M.M.M.M.M.M.M.M.M.M.M.M.M.M.",
"M.v.v.v.v.v.M.M.M.M.M.v.M.M.M.M.M.M.M.M.M.M.M.M.M.M.M.n.M.M.M.M.",
"M.M.v.M.v.M.M.M.M.M.M.M.M.M.M.M.M.M.v.M.v.M.M.M.M.M.M.v.M.M.M.M.",
"m.M.M.M.M.M.M.M.M.M.M.M.M.M.M.M.M.M.m.v.m.v.M.M.M.M.M.m.M.v.M.M.",
"m.m.M.m.M.m.M.M.M.v.v.n.M.M.M.M.M.M.M.M.v.v.M.M.M.M.m.m.m.M.M.M.",
"m.m.M.m.m.M.v.v.t.h.l.v.M.M.M.M.M.M.M.v.m.v.M.M.M.M.M.M.M.M.M.M.",
"M.M.M.m.M.z.z.q.q 2 w z.M.M.M.v.c.l.M.M.M.M.M.M.g.M.v.M.M.M.M.M.",
"M.n.M.M.M.v.t.u K F t d.M.M.v.v.t.a &.v.v.M.v.d.l w.v.v.v.n.M.M.",
"n.n.M.M.v.v.t.4 D 6 9.c.M.M.M.j.7 D c 9.j.j.=.h | z r.M.M.M.M.M.",
"n.n.v.v.M.M.f.q G 7 h.v.M.m.v.h.> P U 6 2 3 3 i <.& h.v.M.M.M.M.",
"M.M.M.M.m.M.l.w o.f 0.z.M.M.v.5.1 I R E n H #.7.u.s r.v.M.M.M.m.",
"M.v.M.M.M.M.g.z 1.5.s r.l.g.9.7 Y I I P T ~ 7.u.>.;.j l.v.v.M.m.",
"m.m.M.M.M.M.M.e.d 3.7.= y a : < Y Q U X K y.y.,.. :.y ,.v.l.M.m.",
"M.M.m.M.M.M.n.v.,.v 2.7.5.#.5 ; ! ! W W 7.=.  X.y.y.# a f.v.M.M.",
"M.M.M.M.M.M.M.v.v.,.- 7.u.u.{ 9 o.u.y.u.u.i o v u.1.a %.z.v.n.M.",
"M.M.m.M.M.M.M.M.v.z.- 5.u.6.f ..b @.7.3.3.@.1.@.O.m X./ k.v.M.M.",
"M.M.M.M.M.M.M.v.v.i.- q.a.7.8.u.6.8 8 f , 4 g u y 0.z.s.M.M.M.m.",
"M.M.M.M.M.M.M.M.l.S % 5.u.3.3.#.$.6.o.{ 7 2 -.t.h.v.v.M.m.M.b.M.",
"M.M.M.M.M.M.M.M._ Z + s 5.M 8 3 8 6.f u 4.*.h l.v.M.n.M.M.M.M.M.",
"M.M.M.M.M.M.M.n.( S V & <.q.O.O 8  .u N h e * c.M.n.M.M.m.M.m.m.",
"M.M.M.M.M.M.M.M.l._ Z C k - a J % e A A B ) g.M.n.M.M.n.n.M.M.M.",
"M.M.M.M.M.M.M.M.M.k._ ) l V V A / B ^ ( ' k.M.M.M.M.M.M.M.v.M.M.",
"M.v.M.M.M.M.M.M.M.M.v.k.' ) ( [ ] ` ] x.M.M.M.M.M.M.M.M.M.v.M.M.",
"v.M.M.M.M.M.M.M.M.M.v.M.x.n.M.b.b.b.b.M.n.M.M.M.M.M.M.M.M.M.n.M.",
"M.M.v.M.M.M.M.M.M.M.M.m.M.M.M.M.m.M.M.M.M.M.M.v.M.m.m.m.M.M.M.M.",
"M.M.M.M.M.M.M.M.n.M.v.M.M.n.M.M.M.M.M.M.M.n.M.M.M.M.M.M.M.M.M.M."
};
