/* XPM */
static char *_1693316230[] = {
/* columns rows colors chars-per-pixel */
"32 32 150 2 ",
"   c #7B5D39",
".  c #77694E",
"X  c #79684E",
"o  c #746957",
"O  c #7E6D55",
"+  c #716A5A",
"@  c #796E59",
"#  c #7D7156",
"$  c #7E745B",
"%  c #7C7462",
"&  c #83623F",
"*  c #8C6639",
"=  c #976037",
"-  c #9F6132",
";  c #966D3F",
":  c #A26E3E",
">  c #AE703F",
",  c #835B41",
"<  c #896147",
"1  c #8B6A47",
"2  c #816849",
"3  c #906542",
"4  c #9A6641",
"5  c #867349",
"6  c #8B744E",
"7  c #8B784E",
"8  c #95754C",
"9  c #9E724D",
"0  c #9D784D",
"q  c #816C51",
"w  c #8A6C52",
"e  c #816F59",
"r  c #857456",
"t  c #8D7A50",
"y  c #83765C",
"u  c #87795F",
"i  c #887958",
"p  c #917453",
"a  c #957B51",
"s  c #95745D",
"d  c #A26E46",
"f  c #A07354",
"g  c #877760",
"h  c #857961",
"j  c #8B7C65",
"k  c #82766A",
"l  c #8A7E6E",
"z  c #937965",
"x  c #95865D",
"c  c #9D845C",
"v  c #BE8452",
"b  c #BD8957",
"n  c #BC8B5D",
"m  c #8B806E",
"M  c #9F8167",
"N  c #978A6A",
"B  c #9E8C68",
"V  c #878070",
"C  c #888075",
"Z  c #8F8876",
"A  c #8C867C",
"S  c #8F887E",
"D  c #968B77",
"F  c #928A7C",
"G  c #998979",
"H  c #B28663",
"J  c #BD9B6D",
"K  c #BF9370",
"L  c #C98652",
"P  c #CC8859",
"I  c #D08E5E",
"U  c #C48B60",
"Y  c #CB8D64",
"T  c #CD9266",
"R  c #CF986F",
"E  c #D69869",
"W  c #DA9A6C",
"Q  c #D09C77",
"!  c #E19765",
"~  c #E49D69",
"^  c #C9A67E",
"/  c #D8A77E",
"(  c #8D8680",
")  c #8D8A83",
"_  c #8C8C8D",
"`  c #918D84",
"'  c #9B8F82",
"]  c #969084",
"[  c #999387",
"{  c #97918B",
"}  c #9C948C",
"|  c #959593",
" . c #999691",
".. c #9D9993",
"X. c #9A9A9C",
"o. c #A19A90",
"O. c #A29D99",
"+. c #D9CEB8",
"@. c #EAD6AE",
"#. c #FFD1A5",
"$. c #F2D2A9",
"%. c #FED5B7",
"&. c #F1D9B0",
"*. c #FBD9B3",
"=. c #F4D5B8",
"-. c #F8DEBD",
";. c #ECE4BF",
":. c #F7E0B7",
">. c #FCE4BB",
",. c #FFE9BD",
"<. c #DDD3C7",
"1. c #E5CFC1",
"2. c #E4DCC5",
"3. c #EADEC7",
"4. c #F1D7C8",
"5. c #F6DFCF",
"6. c #EFE6C9",
"7. c #F4E4C4",
"8. c #FFE6C0",
"9. c #FEEDC3",
"0. c #F5E2CC",
"q. c #FFE7CD",
"w. c #F5EBCD",
"e. c #FEEECA",
"r. c #FFF2CC",
"t. c #EDE1D5",
"y. c #E8E4D9",
"u. c #F1E5D3",
"i. c #FFE7D3",
"p. c #F6E9D6",
"a. c #FCEED2",
"s. c #F4EADA",
"d. c #FFF5D2",
"f. c #FFFBD4",
"g. c #FFF3DB",
"h. c #FFFEDB",
"j. c #F5EEE4",
"k. c #F3EEEA",
"l. c #F4F0E7",
"z. c #FDF3E4",
"x. c #FFFAE2",
"c. c #F4F0ED",
"v. c #FFF5EA",
"b. c #FFFDEB",
"n. c #F4F4F4",
"m. c #FAF6F4",
"M. c #FEFCF5",
"N. c #F7F7F9",
"B. c #F6FCFC",
"V. c #FEFEFE",
/* pixels */
"V.V.V.V.V.V.V.V.V.V.V.V.V.V.V.V.V.V.V.V.V.V.V.N.V.V.V.V.V.V.V.V.",
"V.V.V.V.V.V.V.V.V.V.V.V.V.V.V.V.V.V.V.V.V.V.V.V.V.V.V.V.V.V.V.V.",
"V.V.V.V.V.V.V.V.V.B.V.V.B.V.V.V.V.V.V.V.V.V.V.V.V.V.V.V.V.V.V.V.",
"V.V.V.V.V.V.V.V.B.M.V.V.B.B.V.V.V.V.N.V.V.V.V.V.V.V.V.V.V.V.V.V.",
"V.V.V.V.M.M.V.V.V.V.V.M.V.V.V.V.V.V.V.V.V.V.V.V.V.V.M.M.V.V.V.V.",
"V.V.V.V.M.V.V.B.V.N.V.M.V.V.N.V.V.V.V.V.M.V.B.V.V.V.V.V.V.V.V.V.",
"V.V.V.V.V.V.V.V.V.V.V.B.B.V.V.V.V.V.V.N.V.V.V.V.V.V.V.V.V.V.V.V.",
"V.V.V.V.B.V.V.V.V.V.B.M.M.M.V.V.V.V.B.V.V.M.M.M.V.V.V.V.V.V.V.V.",
"V.V.V.V.V.V.V.V.V.B.V.M.v.M.M.V.M.M.V.M.s.b.M.V.V.B.V.V.V.V.V.V.",
"V.V.V.B.V.V.V.V.V.M.M.y.l 0.M.M.b.M.v.5.z 5.b.V.V.V.V.V.B.V.V.V.",
"V.V.V.V.V.V.V.V.M.M.l.V +.j u.z.z.g.q.f H p z.V.V.V.V.V.B.V.V.V.",
"V.V.V.V.V.V.V.V.V.M.l.@ g.w.g O g w 4 Y T 3 z.V.V.V.V.V.V.B.V.V.",
"V.V.V.V.V.V.V.V.M.M.p.y w.h.w.d.=.T Y ! L d i.V.V.V.M.V.V.B.V.V.",
"V.V.V.V.M.V.V.V.M.v.u w.f.f.f.8.9 = P ! ~ U s v.V.V.V.V.V.V.B.V.",
"V.V.V.V.V.M.V.V.V.t.X e.f.f.e.0 n = E W I Y , u.V.V.V.V.V.B.V.V.",
"V.V.V.V.M.V.V.B.m.k X r.h.f.,.* L d #./ R Q , z m.V.V.V.V.V.V.V.",
"V.V.V.V.V.V.V.V.M.<.g 7.e.r :.0 v : 9.9.r.%.s 1.m.V.V.V.V.V.V.V.",
"V.V.V.V.V.V.V.V.k.[ 2.N @.c &.8 n 4 &.B -.M 4.G m.B.V.V.V.V.V.V.",
"V.V.V.V.V.V.V.V.M.j.b.w.p *.e.a $.x 9.6.r u.M.k.B.B.V.V.V.V.V.V.",
"V.V.V.V.B.B.V.V.M.V.b.x.& ^ ,.6 &.7 9.f.# g.M.V.B.B.V.V.V.V.V.V.",
"V.V.V.V.B.V.V.V.V.V.V.v.1 J >.x @.7 r.d.# v.M.M.V.V.V.V.V.V.V.V.",
"V.V.V.V.B.V.M.M.V.V.V.j.6 J 9.f.,.5 9.w.h s.M.V.V.V.V.V.V.V.V.V.",
"V.V.V.V.V.B.M.M.V.B.N.}   ,.f.f.f.9.f.d.# Z b.M.V.V.V.V.V.V.V.V.",
"V.V.V.V.B.V.M.M.V.n.X.l 8 ,.f.d.r.r.h.g.@ F o.n.V.V.V.V.V.V.V.V.",
"V.V.V.V.V.B.V.M.n.| _ ( 2 e.d.d.i 7.x.6.% S S  .V.V.V.V.V.V.V.V.",
"V.V.V.V.B.V.M.V.N.X._ ` q e.h.6.. # 2.m Z ' ) { M.V.V.V.V.V.V.M.",
"V.V.V.V.V.V.V.V.N.n.X.S e 7.a.$ D G % + ) ` ..n.V.V.V.V.V.V.V.V.",
"V.V.V.V.V.V.V.V.V.V.n.o.G O o A F ] A F { ..N.V.V.V.V.V.V.V.V.M.",
"V.V.V.V.V.V.V.V.V.V.V.V.v.' G { } {  .O.k.V.V.V.V.V.V.V.V.V.V.V.",
"V.V.V.V.V.V.V.V.V.V.B.V.V.v.M.M.M.V.m.m.V.V.V.V.V.V.V.V.V.V.V.V.",
"V.V.V.V.V.V.V.V.V.V.N.V.m.V.V.M.V.V.V.V.N.V.V.V.V.V.V.V.V.V.V.V.",
"M.V.V.V.V.V.V.V.M.V.M.B.V.V.B.V.V.V.V.V.V.M.M.M.V.M.V.V.V.V.V.V."
};
