/* XPM */
static char *_1693316229[] = {
/* columns rows colors chars-per-pixel */
"32 32 158 2 ",
"   c #3F1200",
".  c #332405",
"X  c #2C2C10",
"o  c #755F38",
"O  c #7F6041",
"+  c #73674D",
"@  c #78694C",
"#  c #7D6752",
"$  c #7E6853",
"%  c #7F6D5F",
"&  c #815F3A",
"*  c #8A5B3D",
"=  c #88653F",
"-  c #835F49",
";  c #846244",
":  c #8B6745",
">  c #836A42",
",  c #8A6A44",
"<  c #8C674A",
"1  c #876849",
"2  c #8F6E4B",
"3  c #946343",
"4  c #94654B",
"5  c #976B4E",
"6  c #986B4A",
"7  c #84754B",
"8  c #8C734B",
"9  c #93744D",
"0  c #876450",
"q  c #856C54",
"w  c #8F6D51",
"e  c #816E59",
"r  c #8A6E5C",
"t  c #916F53",
"y  c #936F59",
"u  c #827650",
"i  c #8D7352",
"p  c #87715A",
"a  c #8D755B",
"s  c #84795D",
"d  c #8B7B5E",
"f  c #947151",
"g  c #987056",
"h  c #947D54",
"j  c #997C50",
"k  c #90755A",
"l  c #927D5D",
"z  c #987E5D",
"x  c #A56645",
"c  c #847764",
"v  c #8A7461",
"b  c #877863",
"n  c #8B7E64",
"m  c #8C7C6D",
"M  c #947561",
"N  c #957964",
"B  c #987E63",
"V  c #978158",
"C  c #8E826A",
"Z  c #998061",
"A  c #928268",
"S  c #8E8171",
"D  c #928375",
"F  c #9A8272",
"G  c #91877E",
"H  c #99877D",
"J  c #9B8A7C",
"K  c #A48362",
"L  c #BF8762",
"P  c #BE8967",
"I  c #B0846B",
"U  c #B58E69",
"Y  c #B98C6B",
"T  c #B1946A",
"R  c #A28671",
"E  c #BB8E71",
"W  c #BC9A75",
"Q  c #BAAE7E",
"!  c #C78B66",
"~  c #C68B6B",
"^  c #C6916F",
"/  c #CB946D",
"(  c #D2916C",
")  c #C89872",
"_  c #C4A27C",
"`  c #948C84",
"'  c #9D9683",
"]  c #9D928E",
"[  c #97998E",
"{  c #919392",
"}  c #959891",
"|  c #999B91",
" . c #9B9B9D",
".. c #A29181",
"X. c #A1958A",
"o. c #A09790",
"O. c #A59992",
"+. c #CBAC85",
"@. c #D4A786",
"#. c #E2CCA7",
"$. c #F6DBAF",
"%. c #E1D4B4",
"&. c #E8DEBB",
"*. c #F5D4B7",
"=. c #FED7B8",
"-. c #F4DBBB",
";. c #FADDBB",
":. c #F9E1B5",
">. c #F3E6B9",
",. c #FBE2BA",
"<. c #F7EDBC",
"1. c #F9EDBE",
"2. c #FDF1BF",
"3. c #E5D5C5",
"4. c #E3DCC0",
"5. c #EFDDC7",
"6. c #E8DDCB",
"7. c #FCDEC3",
"8. c #E9E6C7",
"9. c #EAE5CC",
"0. c #E8E8CC",
"q. c #F5E6C3",
"w. c #FDE4C6",
"e. c #F6EEC5",
"r. c #FFEDC2",
"t. c #F3E4CD",
"y. c #FFE4CD",
"u. c #FEECCD",
"i. c #FFF1C7",
"p. c #F7F1CF",
"a. c #FEF2CE",
"s. c #FFFCCB",
"d. c #EDE6D6",
"f. c #F4E6D5",
"g. c #FDE6D1",
"h. c #F1EAD7",
"j. c #FFEED4",
"k. c #F4EADC",
"l. c #FBEEDC",
"z. c #FEF5D3",
"x. c #FFFCD3",
"c. c #FDF3DD",
"v. c #FFFCDC",
"b. c #F7EEE3",
"n. c #FDEEE4",
"m. c #FDF3E5",
"M. c #FFFBE2",
"N. c #F3F2EB",
"B. c #FDF4EB",
"V. c #EFF5F1",
"C. c #EFF8F3",
"Z. c gray95",
"A. c #FAF3F3",
"S. c #F6F9F6",
"D. c #FFFCF4",
"F. c #F4F6FA",
"G. c #F6FDFD",
"H. c #FEFEFE",
/* pixels */
"F.H.H.G.H.H.H.H.H.H.H.H.H.H.H.H.H.H.H.H.H.H.H.H.H.H.H.H.H.H.H.H.",
"H.G.H.H.H.H.H.H.H.H.H.H.D.H.D.H.H.H.H.H.H.H.H.H.H.H.H.H.H.H.H.H.",
"H.H.H.H.H.H.H.H.H.H.H.H.H.D.D.H.H.H.F.H.H.H.H.H.H.H.H.H.H.H.H.H.",
"H.H.H.H.H.H.H.H.H.H.H.H.H.H.D.H.D.H.H.H.H.H.H.H.H.H.H.H.H.H.H.H.",
"H.H.H.D.H.G.G.G.H.H.H.H.H.H.H.G.G.G.H.H.H.G.H.H.H.H.G.D.H.H.H.H.",
"H.H.H.H.H.H.G.H.H.H.H.H.H.H.H.H.H.H.H.H.H.H.H.H.H.H.H.H.H.H.H.H.",
"H.H.H.H.H.H.H.H.H.H.H.H.H.H.H.H.H.H.H.H.H.H.H.H.H.H.D.D.D.H.H.G.",
"H.H.H.H.H.H.H.H.H.H.D.D.H.D.H.H.D.H.D.H.H.G.H.H.H.H.D.D.H.G.H.H.",
"H.H.H.H.H.H.H.H.H.H.H.H.D.H.H.H.H.H.H.H.G.G.G.H.H.H.H.H.H.H.H.G.",
"H.H.H.H.H.H.H.H.H.H.H.H.H.H.H.H.H.H.H.H.H.G.H.H.H.H.H.H.H.H.G.G.",
"H.H.H.H.G.H.H.H.G.G.G.H.H.H.H.H.H.H.H.G.H.D.D.D.H.H.H.G.H.H.H.G.",
"H.H.H.H.H.H.H.D.H.G.G.H.H.H.H.H.H.H.H.H.G.D.B.n.m.A.H.H.G.H.H.D.",
"H.H.H.H.H.H.D.D.B.H.S.H.H.H.D.m.D.H.H.H.H.n.r - y g.D.H.H.H.H.D.",
"H.H.H.H.H.D.D.h.s g.D.D.D.D.k.c d.H.F.H.H.n.- E Y t l.D.H.H.H.B.",
"H.G.F.H.H.D.B.r I 4 u.c.n.t.n %.C b.H.H.H.H.g.t Y : c.D.H.H.H.H.",
"H.H.H.H.H.D.m.2 ~ x 3 2 u s e.s.@ l.H.H.F.D.M.: U f j.D.H.H.H.H.",
"H.H.G.H.H.D.y.6 ( ( ^ =.u.a.x.e.d g.D.D.H.D.5.B *.u m.D.H.F.H.H.",
"H.H.G.H.D.m.y L ! / @.j.v.p.p.v.-.a t.m.M.9.d j.y.c m.D.F.H.G.H.",
"S.H.H.H.B.y.3 !   W w.M.9.X 8.v.u.1 = i 7 u p.q.n h.D.S.H.H.H.H.",
"H.H.H.S.B.M * ) _ #.. 4.M.0.c.v.a.& = ;.,.i.q.C d.D.D.H.D.H.H.H.",
"H.H.H.H.D.3.i ;.s.h o d x.v.M.v.,., U r.+.w.l t.D.D.H.H.G.H.H.H.",
"H.H.H.H.N.` 6.m w.,.,.:.u.q.z.&.V $.j T +.-.q B.D.H.H.G.H.H.H.D.",
"D.H.H.F.S.N.D.k.$ a z 1 > 7 7 7 <.s.1.Q e.x.s k.D.D.H.H.H.H.H.D.",
"D.H.S.H.H.H.H.H.m.c.w.; 9 $.:.2.s.2.1.>.x.q.+ X.b.H.G.H.H.H.H.D.",
"D.H.G.H.H.G.H.H.D.m.v 7.;.9 9 i.9 , 5 K u.k e m O.F.H.H.H.H.H.H.",
"H.D.H.G.G.G.H.H.H.B.e $ d Z i *.; ; *.7.7.q B H ] A.H.H.F.H.H.H.",
"D.D.H.H.H.H.H.H.H.D.b.X.m ..J % q R N a r F H O.A.H.H.H.H.H.H.S.",
"H.D.H.H.H.H.H.H.D.H.D.N.O.` ` G H J D S D X.X.A.H.H.H.H.H.H.H.H.",
"H.H.H.H.H.H.H.H.D.H.H.H.D.Z. .{ } | } [ } N.H.H.H.H.H.H.H.H.H.H.",
"H.H.H.H.H.H.D.H.D.H.H.H.H.H.F.H.H.C.S.H.V.H.H.H.H.H.H.H.H.H.H.H.",
"H.H.H.H.H.H.H.H.H.H.H.H.F.F.H.H.H.H.H.H.H.H.H.H.H.H.H.H.H.H.H.H.",
"H.H.H.H.D.H.H.H.H.H.H.H.H.H.H.H.H.D.H.H.H.H.H.H.D.H.H.H.H.H.H.H."
};
