/* XPM */
static char *_1693316229[] = {
/* columns rows colors chars-per-pixel */
"32 32 161 2 ",
"   c #2D2808",
".  c #382600",
"X  c #4A1700",
"o  c #6B5F39",
"O  c #7B5F38",
"+  c #7E653D",
"@  c #776243",
"#  c #7D6545",
"$  c #7C664D",
"%  c #7A6B4E",
"&  c #736353",
"*  c #7A6C54",
"=  c #7D6E5D",
"-  c #7A7754",
";  c #7C7059",
":  c #875B40",
">  c #9B5B42",
",  c #846A45",
"<  c #876448",
"1  c #866E48",
"2  c #946E47",
"3  c #95634C",
"4  c #966A4D",
"5  c #9A6C4A",
"6  c #877047",
"7  c #8B734A",
"8  c #90744D",
"9  c #9A7E4F",
"0  c #826D55",
"q  c #876E58",
"w  c #946E54",
"e  c #966B5A",
"r  c #867255",
"t  c #8C7654",
"y  c #8E7A57",
"u  c #84715B",
"i  c #89755C",
"p  c #877C5C",
"a  c #8C7A5C",
"s  c #937155",
"d  c #997751",
"f  c #907852",
"g  c #94755A",
"h  c #917859",
"j  c #897365",
"k  c #817B61",
"l  c #8A7A61",
"z  c #8D776A",
"x  c #877B6D",
"c  c #897D6D",
"v  c #96805B",
"b  c #9B855E",
"n  c #96895C",
"m  c #BA845E",
"M  c #878066",
"N  c #978265",
"B  c #9A8263",
"V  c #94826C",
"C  c #99846F",
"Z  c #8E8576",
"A  c #8E8179",
"S  c #918575",
"D  c #908279",
"F  c #998779",
"G  c #948A7B",
"H  c #9C8A7B",
"J  c #AB8862",
"K  c #A7896D",
"L  c #B59465",
"P  c #B3966A",
"I  c #AD8472",
"U  c #B59475",
"Y  c #BB9570",
"T  c #BEA471",
"R  c #CA8A64",
"E  c #C28A6A",
"W  c #D48F6E",
"Q  c #C39468",
"!  c #D1936C",
"~  c #C78B71",
"^  c #C89872",
"/  c #D99272",
"(  c #C3A575",
")  c #928984",
"_  c #9B8B83",
"`  c #948B8C",
"'  c #9D9087",
"]  c #96938A",
"[  c #9C938C",
"{  c #9B9592",
"}  c #9F9D91",
"|  c #999498",
" . c #9A989B",
".. c #A3948D",
"X. c #A1988F",
"o. c #A29793",
"O. c #A29B91",
"+. c #A59B99",
"@. c #CBAE82",
"#. c #E1AC8A",
"$. c #DBD1B8",
"%. c #E0CCA7",
"&. c #E7D1A0",
"*. c #EDD3AE",
"=. c #EFD8AF",
"-. c #F9D8AD",
";. c #EDDCBB",
":. c #FFDAB5",
">. c #FED7B8",
",. c #F4DEBD",
"<. c #F9E2B0",
"1. c #F3E0BC",
"2. c #FBE3BC",
"3. c #FFE9BB",
"4. c #E9D6C8",
"5. c #FADFC2",
"6. c #F4DEC9",
"7. c #F8DBC9",
"8. c #E8EAC3",
"9. c #E9E6CC",
"0. c #F3E2C6",
"q. c #FCE5C3",
"w. c #F2EFC4",
"e. c #FFECC5",
"r. c #F6E6CB",
"t. c #FBE6CC",
"y. c #F4ECCA",
"u. c #FEECCC",
"i. c #FFF3C6",
"p. c #F4F2CC",
"a. c #FFF3CC",
"s. c #FFFACD",
"d. c #E8E7D5",
"f. c #EEE9D5",
"g. c #EEE8DA",
"h. c #F6E4D2",
"j. c #FAE2D6",
"k. c #F6EBD7",
"l. c #FDEED4",
"z. c #F5ECDE",
"x. c #FCEDDB",
"c. c #FBF6D1",
"v. c #FDFDD3",
"b. c #FEF2DC",
"n. c #FFFCDC",
"m. c #F4ECE2",
"M. c #FDEDE1",
"N. c #F5EEEA",
"B. c #F5F3E7",
"V. c #FDF3E4",
"C. c #FFFCE3",
"Z. c #F4F3ED",
"A. c #FDF4EC",
"S. c #FEFBED",
"D. c #F5F3F4",
"F. c #FBF6F1",
"G. c #FEFCF5",
"H. c #F6F5FB",
"J. c #FCF7FB",
"K. c #F5FCFB",
"L. c #FEFEFE",
/* pixels */
"L.L.L.L.L.L.L.L.L.L.L.L.L.L.L.L.K.L.L.K.L.L.L.L.L.L.L.L.L.L.L.L.",
"L.L.L.L.L.L.L.L.L.L.L.L.K.L.L.L.L.L.L.L.L.L.L.L.L.L.L.L.L.L.L.L.",
"L.L.L.L.L.L.L.L.L.L.L.L.L.L.L.L.L.L.L.L.L.L.L.L.L.L.L.L.L.L.L.L.",
"L.L.L.L.L.L.L.L.L.L.L.L.L.L.L.L.L.G.L.L.L.L.L.G.L.L.L.L.L.L.G.L.",
"L.L.L.L.L.L.L.L.L.L.L.L.L.L.L.L.L.L.L.L.L.L.L.L.L.L.L.K.L.L.L.L.",
"K.L.L.L.L.L.L.L.L.L.L.L.L.L.L.L.L.L.K.L.K.L.L.L.L.L.L.G.L.L.L.L.",
"L.L.G.L.L.L.L.L.L.L.L.L.L.L.L.L.L.L.L.L.L.L.L.L.L.L.L.L.G.L.L.L.",
"G.L.L.L.L.L.L.L.L.L.L.L.L.L.L.L.L.L.G.K.L.K.L.L.L.L.L.G.L.L.L.L.",
"G.L.L.L.L.L.L.L.L.K.L.L.L.L.L.L.L.J.L.L.L.K.L.L.L.J.L.L.L.L.L.L.",
"L.G.L.L.L.L.L.L.L.L.K.K.L.L.L.L.L.G.G.G.S.G.G.G.L.L.L.L.L.L.L.L.",
"L.L.L.L.L.L.L.L.G.L.K.K.L.L.L.G.L.L.L.G.G.m.V.A.F.G.L.L.L.L.L.L.",
"L.L.L.L.L.L.L.G.B.G.L.K.L.G.F.A.L.G.L.G.B.; $ r x.F.L.L.L.L.L.G.",
"L.L.L.L.L.L.G.g.z j.G.G.G.S.z.x m.G.L.L.A.= K U g t.G.L.K.K.L.G.",
"K.L.L.L.L.G.V.l I e 7.n.C.9.M $.c N.G.G.G.j.s Y J g V.G.L.K.L.G.",
"G.L.L.L.G.G.C.< ~ > 3 g * - p.v.* b.G.G.G.F.q.2 L , l.G.L.L.L.L.",
"G.J.G.L.G.C.q.5 W / E >.u.c.v.w.t u.A.G.G.V.t.d -.8 b.G.L.K.K.L.",
"L.G.L.K.S.V.s E R ! #.u.n.y.v.v.2.1 h.S.V.h.N 2.2.t z.G.K.L.L.L.",
"G.L.L.L.G.r.4 m X Q :.n.r.  8.n.a., # r 0 i u.l.l k.F.L.L.L.L.K.",
"L.L.L.H.G.j : ^ ( &.. ;.b.9.n.v.a.+ O 2.u.e.y.k d.G.L.L.L.L.L.L.",
"L.L.K.L.G.4.e :.a.n o p n.C.n.n.,.7 P 3.@.3.a f.G.L.L.J.L.L.L.L.",
"L.K.L.L.N.G 6.B 1.1.q.1.u.q.a.,.B *.9 L ( 2.i V.G.L.L.L.K.L.L.L.",
"K.L.L.L.G.z.G.x.r a y t , f 6 7 t.v.3.T i.e.r A.J.L.L.K.L.L.L.L.",
"L.L.G.J.G.L.F.G.A.b.r.@ # =.e.i.u.u.i.<.s.q.= M.L.J.L.L.L.L.L.L.",
"G.G.L.G.L.L.L.J.G.F.V.i ;.b i.u.t $ 1 7 7 q.r _ N.L.G.L.G.L.L.L.",
"G.G.G.L.L.L.L.L.L.G.) = 0.y 2.y C V i %.v u.q A +.G.G.L.G.L.L.L.",
"G.G.G.L.L.L.L.L.L.L.[ G * 0 ,.r F H * r r.r.= A | F.L.G.G.L.L.L.",
"G.L.L.L.L.K.L.K.L.L.Z.O.c & u H ..o.Z * ; - G [ D.G.G.L.G.L.L.J.",
"L.L.L.L.K.L.L.L.L.L.G.A.X.' A ) ) ) [ G S S O.F.G.L.L.L.L.G.L.L.",
"L.L.L.L.L.L.L.L.L.G.G.L.F.D.+.` |  .{ ] } Z.G.G.L.L.L.L.L.L.L.L.",
"L.L.L.L.L.L.L.L.L.L.L.L.L.L.D.L.L.H.K.L.Z.G.L.L.L.L.L.L.L.L.L.L.",
"L.L.L.L.L.L.L.L.L.L.L.L.L.J.L.L.L.L.L.L.L.L.L.L.L.L.L.L.L.L.L.L.",
"L.L.L.L.L.L.G.L.L.L.L.L.L.L.L.L.L.F.L.L.L.L.L.L.L.L.L.L.L.L.L.G."
};
