/* XPM */
static char * collectible_xpm[] = {
"32 32 352 2",
"  	c #9CDB43",
". 	c #86BB3C",
"+ 	c #7FB23A",
"@ 	c #80B33A",
"# 	c #7FB23B",
"$ 	c #80B23A",
"% 	c #82B739",
"& 	c #77A434",
"* 	c #433928",
"= 	c #432A28",
"- 	c #402827",
"; 	c #492E1F",
"> 	c #3A2525",
", 	c #4A3E2A",
"' 	c #78A636",
") 	c #85B83B",
"! 	c #81B239",
"~ 	c #666E57",
"{ 	c #4E4C54",
"] 	c #897445",
"^ 	c #CC7D54",
"/ 	c #CF7946",
"( 	c #E0833D",
"_ 	c #B46F4D",
": 	c #9B7D4B",
"< 	c #393540",
"[ 	c #414B37",
"} 	c #82B33A",
"| 	c #A3D841",
"1 	c #A0DD42",
"2 	c #62862F",
"3 	c #8C8E86",
"4 	c #B6BEC3",
"5 	c #9FD659",
"6 	c #B77C47",
"7 	c #DD803D",
"8 	c #C3714D",
"9 	c #D38E43",
"0 	c #9DD155",
"a 	c #838192",
"b 	c #434B46",
"c 	c #658831",
"d 	c #A1D940",
"e 	c #CAD34F",
"f 	c #C6D44E",
"g 	c #35451E",
"h 	c #8A9097",
"i 	c #CBE9A5",
"j 	c #CCB39B",
"k 	c #B5867E",
"l 	c #A07870",
"m 	c #BF9464",
"n 	c #96B076",
"o 	c #626270",
"p 	c #3B4822",
"q 	c #F6E082",
"r 	c #F5D46C",
"s 	c #C6CF42",
"t 	c #749433",
"u 	c #5F685D",
"v 	c #A2A6AB",
"w 	c #B9A8A4",
"x 	c #846F73",
"y 	c #7D6870",
"z 	c #7F6D75",
"A 	c #6D707D",
"B 	c #41493F",
"C 	c #6E9634",
"D 	c #A2D941",
"E 	c #C7D44E",
"F 	c #F5D76F",
"G 	c #F3CD5D",
"H 	c #C3CE42",
"I 	c #9DDB44",
"J 	c #354020",
"K 	c #71777E",
"L 	c #754D43",
"M 	c #98573E",
"N 	c #AF6530",
"O 	c #774E42",
"P 	c #666673",
"Q 	c #374222",
"R 	c #9FD941",
"S 	c #CED052",
"T 	c #CAD250",
"U 	c #9FDA41",
"V 	c #354121",
"W 	c #91979E",
"X 	c #93A950",
"Y 	c #A5B141",
"Z 	c #B7BC3B",
"` 	c #91A34F",
" .	c #787385",
"..	c #364221",
"+.	c #B7D547",
"@.	c #B3D646",
"#.	c #5A782C",
"$.	c #6E7572",
"%.	c #D5D8DB",
"&.	c #E3F5C9",
"*.	c #D9F1B7",
"=.	c #9EDC46",
"-.	c #9DDB45",
";.	c #91B166",
">.	c #5E5C63",
",.	c #5A792D",
"'.	c #A2D942",
").	c #9EDC43",
"!.	c #5A792C",
"~.	c #6B7071",
"{.	c #D7DBDD",
"].	c #FFFFFF",
"^.	c #FBFDF7",
"/.	c #A3DD50",
"(.	c #9DDB46",
"_.	c #90B268",
":.	c #756B66",
"<.	c #8FA134",
"[.	c #5D7C2E",
"}.	c #696E6F",
"|.	c #FEFFFD",
"1.	c #F7FCF0",
"2.	c #9BD947",
"3.	c #B8CD65",
"4.	c #A38959",
"5.	c #5C7B2E",
"6.	c #5F802F",
"7.	c #8F8E8E",
"8.	c #B8DD87",
"9.	c #E1F4C8",
"0.	c #FEFFFE",
"a.	c #FCFDF5",
"b.	c #B6E475",
"c.	c #A9E05B",
"d.	c #CBD34D",
"e.	c #F3E487",
"f.	c #F5D57A",
"g.	c #B2873C",
"h.	c #8BA137",
"i.	c #638432",
"j.	c #888788",
"k.	c #C6E797",
"l.	c #DDF3BE",
"m.	c #BFE680",
"n.	c #C8D553",
"o.	c #A9D544",
"p.	c #A0D341",
"q.	c #A1D343",
"r.	c #A1D243",
"s.	c #A0DB44",
"t.	c #C3D653",
"u.	c #DCD256",
"v.	c #9EBB67",
"w.	c #5A555C",
"x.	c #9BD942",
"y.	c #698C35",
"z.	c #838181",
"A.	c #CBEB9D",
"B.	c #A6D84B",
"C.	c #C3D248",
"D.	c #F3D97A",
"E.	c #F19E49",
"F.	c #E6703D",
"G.	c #E3663E",
"H.	c #E3603F",
"I.	c #D16441",
"J.	c #A2CC43",
"K.	c #AFCC42",
"L.	c #B8D541",
"M.	c #96B470",
"N.	c #514E57",
"O.	c #678934",
"P.	c #6F9B31",
"Q.	c #6E6A6F",
"R.	c #D5F0B0",
"S.	c #A2D242",
"T.	c #A6CB42",
"U.	c #D8983D",
"V.	c #F9B86D",
"W.	c #FFE88B",
"X.	c #FCB659",
"Y.	c #EE743F",
"Z.	c #E24541",
"`.	c #E14241",
" +	c #E04241",
".+	c #E04441",
"++	c #CE6D42",
"@+	c #A6C743",
"#+	c #A1CF43",
"$+	c #97AF7B",
"%+	c #453F4C",
"&+	c #729C33",
"*+	c #6D9830",
"=+	c #6F6C72",
"-+	c #DCE9B5",
";+	c #A0C03C",
">+	c #CE8A40",
",+	c #E85B3F",
"'+	c #E34A40",
")+	c #EA643F",
"!+	c #FAAB52",
"~+	c #EF7A41",
"{+	c #E24640",
"]+	c #E14141",
"^+	c #CA7942",
"/+	c #9EBF3F",
"(+	c #96A37C",
"_+	c #45404D",
":+	c #709A33",
"<+	c #6C9630",
"[+	c #66676D",
"}+	c #D6A2AA",
"|+	c #BD3A36",
"1+	c #E04A40",
"2+	c #E34141",
"3+	c #EF7639",
"4+	c #E44B3F",
"5+	c #E34241",
"6+	c #DF4141",
"7+	c #A52A38",
"8+	c #896279",
"9+	c #44414E",
"0+	c #6F9832",
"a+	c #7EAF38",
"b+	c #54614E",
"c+	c #9A7777",
"d+	c #B54C44",
"e+	c #C33D3D",
"f+	c #D03B40",
"g+	c #DD4041",
"h+	c #E9603E",
"i+	c #E24740",
"j+	c #D13C40",
"k+	c #B9333D",
"l+	c #8B344B",
"m+	c #75596E",
"n+	c #4D5645",
"o+	c #7FB038",
"p+	c #668F2E",
"q+	c #685B44",
"r+	c #EEB96B",
"s+	c #BF563F",
"t+	c #A3293C",
"u+	c #C1373F",
"v+	c #CD3B40",
"w+	c #DE3F41",
"x+	c #DE4041",
"y+	c #A92F3D",
"z+	c #9A2F35",
"A+	c #986B66",
"B+	c #504A4D",
"C+	c #668C2F",
"D+	c #A0DC42",
"E+	c #99A942",
"F+	c #B3A080",
"G+	c #FFEFA4",
"H+	c #E5A661",
"I+	c #C05842",
"J+	c #AC373C",
"K+	c #A72F3D",
"L+	c #C2383F",
"M+	c #C93A3F",
"N+	c #982336",
"O+	c #A2503D",
"P+	c #DDAD60",
"Q+	c #8B8846",
"R+	c #81B538",
"S+	c #A9D63F",
"T+	c #E1D152",
"U+	c #FFEAA9",
"V+	c #FEFDC1",
"W+	c #FFE379",
"X+	c #ED9942",
"Y+	c #B74439",
"Z+	c #A82E3D",
"`+	c #A7303D",
" @	c #A8303D",
".@	c #AB303D",
"+@	c #AE3D42",
"@@	c #AD624F",
"#@	c #D1AD8E",
"$@	c #FFEEA8",
"%@	c #E2DF66",
"&@	c #BAD747",
"*@	c #A1D942",
"=@	c #B7D545",
"-@	c #E1DA68",
";@	c #FFE180",
">@	c #B18D4D",
",@	c #9B765C",
"'@	c #AF4B4E",
")@	c #A92B39",
"!@	c #AA303C",
"~@	c #AA313D",
"{@	c #AB313E",
"]@	c #AC313E",
"^@	c #A22D3A",
"/@	c #7B192B",
"(@	c #914340",
"_@	c #DFB770",
":@	c #FFEBA5",
"<@	c #FFFEBF",
"[@	c #FFD874",
"}@	c #E8C345",
"|@	c #ACD53F",
"1@	c #B6D545",
"2@	c #E6C947",
"3@	c #9EA538",
"4@	c #455542",
"5@	c #805F70",
"6@	c #9F6F81",
"7@	c #8E3246",
"8@	c #8B2338",
"9@	c #8A2338",
"0@	c #791C2C",
"a@	c #781A2A",
"b@	c #79293A",
"c@	c #806378",
"d@	c #6F5862",
"e@	c #79783E",
"f@	c #DADE66",
"g@	c #FFDA7A",
"h@	c #DDD15C",
"i@	c #B6D041",
"j@	c #ABD53F",
"k@	c #A1DD42",
"l@	c #83B839",
"m@	c #49523F",
"n@	c #3B3946",
"o@	c #7B6377",
"p@	c #8C6E84",
"q@	c #8A6D83",
"r@	c #82697D",
"s@	c #826A7D",
"t@	c #746072",
"u@	c #3D3A46",
"v@	c #4A5341",
"w@	c #85BB39",
"x@	c #B4D845",
"y@	c #E4C744",
"z@	c #BAD141",
"A@	c #84B83A",
"B@	c #78A535",
"C@	c #42483C",
"D@	c #36323E",
"E@	c #36333E",
"F@	c #43483C",
"G@	c #A0DA42",
"H@	c #A8D640",
"I@	c #A2D841",
"J@	c #86BA3B",
"K@	c #80B139",
"                                                                ",
"                                                                ",
"                        . + @ # $ .                             ",
"                    % & * = - ; > , ' )                         ",
"                  ! ~ { ] ^ / ( _ : < [ }                       ",
"              | 1 2 3 4 5 6 7 8 9 0 a b c                       ",
"            d e f   g h i j k l m n o p                         ",
"          | e q r s t u v w x y z A B C                         ",
"          D E F G H I J K L M N O P Q                           ",
"            R S T U   V W X Y Z `  ...                          ",
"              +.@.  #.$.%.&.*.=.-.;.>.,.                        ",
"              '.).!.~.{.].].^./.  (._.:.<.                      ",
"                [.}.{.].].|.1./.    2.3.4.5.                    ",
"              6.7.8.9.0.a.b.c.I   D d.e.f.g.h.                  ",
"            i.j.k.  l.m.n.o.p.q.q.r.s.t.u.v.w.i.                ",
"        x.y.z.A.    B.C.D.E.F.G.H.I.J.K.L.  M.N.O.x.            ",
"        P.Q.R.  S.T.U.V.W.X.Y.Z.`. +.+++@+#+  $+%+&+            ",
"        *+=+-+;+>+,+'+)+!+~+{+]+]+]+]+`.]+^+/+(+_+:+            ",
"        <+[+}+|+1+2+]+]+3+4+]+]+]+]+]+]+5+6+7+8+9+0+            ",
"        a+b+c+d+e+f+g+2+h+i+]+]+]+]+5+g+j+k+l+m+n+o+            ",
"          p+q+r+s+t+u+v+w+2+5+5+5+x+v+u+y+z+A+B+C+              ",
"        D+E+F+G+H+I+J+K+L+M+M+M+M+L+K+y+N+O+P+Q+R+              ",
"        S+T+U+V+W+X+Y+Z+`+K+K+K+K+ @.@+@@@#@$@%@&@'.            ",
"        *@=@-@;@>@,@'@)@!@~@.@{@]@^@/@(@_@:@<@[@}@|@            ",
"            1@2@3@4@5@6@7@8@9@0@a@b@c@d@e@f@g@h@i@D             ",
"            *@j@k@l@m@n@o@p@q@r@s@t@u@v@w@x@y@z@                ",
"                    A@B@C@D@D@D@E@F@B@A@  G@H@I@                ",
"                        J@K@! ! K@J@                            ",
"                                                                ",
"                                                                ",
"                                                                ",
"                                                                "};
