/* XPM */
static char *result[] = {
/* columns rows colors chars-per-pixel */
"32 32 5 1 ",
"  c #C0D440",
". c #A4C263",
"X c #D2E077",
"o c #E8EEAA",
"O c white",
/* pixels */
"                                ",
"                                ",
"  . .             . .           ",
"   .               .            ",
"                                ",
"                                ",
"                  o o           ",
"                   o            ",
"    X                           ",
"   XXX    . .             . .   ",
"   XXX     .               .    ",
"    X                           ",
"                                ",
"    . .             . .         ",
"     .               .          ",
"                                ",
"                                ",
"                                ",
"                                ",
"                                ",
"          . .             . .   ",
"    o o    .               .    ",
"     o                          ",
"                                ",
"                    . .         ",
"                     .          ",
"                                ",
"                                ",
"                        X       ",
"                       XXX      ",
"                        X       ",
"                                "
};
