/* XPM */
static char *result[] = {
/* columns rows colors chars-per-pixel */
"32 32 130 2 ",
"   c #040402",
".  c #070805",
"X  c #0A0C06",
"o  c #0C0D09",
"O  c #0E1109",
"+  c #12140C",
"@  c #15180D",
"#  c #191A0F",
"$  c #161711",
"%  c #1A1D11",
"&  c #1D2113",
"*  c #212615",
"=  c #222917",
"-  c #282917",
";  c #23241A",
":  c #262C19",
">  c #2A2D1B",
",  c #273718",
"<  c #2C321C",
"1  c #2E3E1C",
"2  c #31371F",
"3  c #2A2B22",
"4  c #343426",
"5  c #353D22",
"6  c #3B3D24",
"7  c #31411E",
"8  c #354422",
"9  c #3B4426",
"0  c #344A22",
"q  c #394A24",
"w  c #3B5126",
"e  c #3F522A",
"r  c #414D26",
"t  c #43442D",
"y  c #434C2B",
"u  c #494D2E",
"i  c #43542B",
"p  c #4B542E",
"a  c #435A2A",
"s  c #495B2E",
"d  c #4B4A32",
"f  c #4D5431",
"g  c #4D5B33",
"h  c #525535",
"j  c #535B34",
"k  c #585837",
"l  c #555538",
"z  c #565D39",
"x  c #5B5D3B",
"c  c #47612F",
"v  c #4E6232",
"b  c #536435",
"n  c #586137",
"m  c #556A36",
"M  c #5B6D36",
"N  c #566438",
"B  c #5B643B",
"V  c #576A39",
"C  c #5C6B3A",
"Z  c #5C733C",
"A  c #577838",
"S  c #5B7A3C",
"D  c #62653E",
"F  c #616C3D",
"G  c #61733E",
"H  c #64793E",
"J  c #5E5F43",
"K  c #605E40",
"L  c #5C6544",
"P  c #5F6B45",
"I  c #636643",
"U  c #686744",
"Y  c #656A42",
"T  c #6B6D44",
"R  c #62604B",
"E  c #65684B",
"W  c #706D47",
"Q  c #716E48",
"!  c #647441",
"~  c #6B7543",
"^  c #667A42",
"/  c #6B7B44",
"(  c #6C724B",
")  c #717147",
"_  c #717D46",
"`  c #73744A",
"'  c #79754E",
"]  c #757C4B",
"[  c #797A4D",
"{  c #747D55",
"}  c #7E7C51",
"|  c #827E53",
" . c #668342",
".. c #6C8245",
"X. c #6B8944",
"o. c #6E8148",
"O. c #728347",
"+. c #74844A",
"@. c #7A844C",
"#. c #758A4A",
"$. c #7C8B4D",
"%. c #7B904E",
"&. c #7D8351",
"*. c #7D8C51",
"=. c #7D825B",
"-. c #7E9351",
";. c #818C4F",
":. c #82944F",
">. c #838353",
",. c #838D51",
"<. c #8D8D59",
"1. c #839252",
"2. c #8A9555",
"3. c #869A55",
"4. c #8B9A55",
"5. c #8B9758",
"6. c #8D9B5A",
"7. c #919559",
"8. c #949B5D",
"9. c #8EA35B",
"0. c #94A25B",
"q. c #8B8C64",
"w. c #8C9667",
"e. c #989E6A",
"r. c #9BA561",
"t. c #9BAB63",
"y. c #A1A763",
"u. c #A4A866",
"i. c #AAAF63",
"p. c #B8CD78",
/* pixels */
"~ Q x D D | W | I ` Y K F B C V M Z q s a v b  .E ! ~ #.F H :.H ",
">.Y # f [ U D ' T ) T U / / / F ! m i v % e > 5 { ^ #.~ $.O.j @.",
"x D k ) [ [ >.| Q ` U U O.! ^ V G s s 7 f + % & P H #.+._ G O.O.",
">.` ) x $ ' Q D T [ [ x +.B ..g / G Z 1 2 = X 9 g G $.+.F ;.H $.",
"o T k Q k [ T [ U >.` I -.! C N N ! v i   = 5 X v C 3.#.$._ #.:.",
"h <.| - - Q l l <.x J l 1./ G / C G Z m e 8 C + 1.G $./ #.9.:.~ ",
"4 u T D D h u h z x J t / V #.V / P Z H S w q 5 > b G a g Z G / ",
"D T Y D x h 2   5 O z d ^ / ..j +.! ! V m 0 s 9 & ! A G e Z m b ",
"6 Y D % u u # < O n h h V ! C g O.o.V e + 4.5 f < 3.& < : g Z v ",
"D } X t B # @ B j n F D H G / C ^ H i # 9 n 9 + $     & : o.c m ",
"~ F O h h u :   2 B p X N G V G ^ + r o   o . > e 0 O $ X < 7 c ",
"T ~ k ) Y   F u 2 6 + 2 @ X M g ! y 9 + <   y +.c c . , & : i w ",
"I Y T ` F Y t F r # X   ~ m r v & 5 7 o # & o q g v o 8 O + A s ",
"&.` T Y Y ` D T j h 5 9 & H V b g Z v 0 O . a  .L ^ v a 8 Z ^ v ",
"` ~ [ D @.D 4 x @.Y z y Z $.^ H G ^ H m v s A A =.Z m Z m / ^ m ",
">.>.{ >.e.D + T Y ` Y z V / Z Z O.+.H V ! g s P =.! m ^ Z Z S Z ",
"< G V ! Z V M / ^ ^ i C C +.F M / ^ ..o.H ..N ..( ^ ! Z v ^ ^ X.",
"/ V / o C / C C #.H ^ ..../ G O.#.! ^ C  ./ ! V -.L ! b  .^ ! V ",
"G C G C ..B - _ t.1.$.3.m o.H / ..C ^ Z G %.#.1.+.w...!  .G ^ Z ",
"y C ~ ~ _ g j D Y / ~ / i e 9 8 V O.%./ +.@.3._ Y w./ 3./ / *./ ",
"$.o B ;.:.;.;.~ 0.0.@.1.#./ G G $.! / @.@.$.+.$.:.q./ ~ ~ %.~ ..",
"F ] - 2.) ;.~ ;.3.,.@.O.%.H H O./ / H 1.$.@._ _ @.t #.O.4.O.G _ ",
"@.@.,._ @.$.;.@.0.,.;.;.;.F H H / +.$.:.O.$.$.@.$.>._ ~ / $.@.:.",
"$ @.,.;.2.2.@.;.;.:.[ 4.2.H / #.! +.%.+.$.$.@.#.w.E / N _ O./ $.",
"6 ,.; 1.;.0._ _ 2.;.@.;.1.:.G C C *.%.*./ ! $.-.r.*.+.~ N +./ $.",
"8._ 3 ) t.+.; 2.0.2.1.8.0.;.$._ -.O.%.C / C G P L z -.$./ $.*./ ",
"1.$.;.,.5.@.,.;.4.;.8.7.2.+.O.O.-.$.^ O.! ! ^ o.{ / 3.+.C ..+.#.",
";.4.3.;.1.4.1.4.2.7.y.8.4.@.$.F O.o.^ y & C / / E T Y ! G B P ! ",
"9.2.$.O.@.G = u 0.2.y.y.o.@.O.~ o & V = 5 ~ p &.E +.+./ B N V V ",
"4.2.2.~ M # j = @ ,.2.8.^ Y #.i @ & : $ r + / *.R / C j r g 3.X ",
"H ) @.@.C 8 < M   >.>.w./ B N p =   $.C Z b ! +.( ! Z p.9 < < o ",
"r i.D :._ < 2 $.,.7.8.r.o.&.Y f j r p Z o u > ! J ! p o t.8 C > "
};
