/* XPM */
static char *result[] = {
/* columns rows colors chars-per-pixel */
"32 32 20 1 ",
"  c #0C0A07",
". c #291A18",
"X c #362623",
"o c #3A2B28",
"O c #4C342F",
"+ c #553D39",
"@ c #4C403D",
"# c #554C3C",
"$ c #425059",
"% c #634A45",
"& c #657358",
"* c #57636B",
"= c #6E7D61",
"- c #B56A68",
"; c #87947C",
": c #C0AC98",
"> c #D2A394",
", c #E4B5A5",
"< c #DBCBBC",
"1 c #FEFEFE",
/* pixels */
"11111111111111111111111111111111",
"11111111111111111111111111111111",
"11111111111111111111111111111111",
"11111111111111111111111111111111",
"11111111111111111111111111111111",
"111111111111111 1  1111111111111",
"1111111111111  O OO  11111111111",
"111111111111 +%%O%%+O  111111111",
"1111111111111 %%%%%%%O+ 11111111",
"111111111111 +%%%%%%%++ 11111111",
"111111111111 %OO%%%%%%+ 11111111",
"11111111111 O%>O%O%%%+OO 1111111",
"111111111111 %>>%>%%%%O 11111111",
"111111111111 > >, >%O%++ 1111111",
"11111111111 O>.,,.>>-%+ 11111111",
"111111111111 >,,,,>>+++ 11111111",
"1111111111111 >,,,>+++ 111111111",
"11111111111111 >>> ++ 1111111111",
"1111111111111 o:::o=o 1111111111",
"1111111111111 o<<:@=o 1111111111",
"111111111111 @o<<<@;oo 111111111",
"111111111111 @o:<<@@=@ 111111111",
"11111111111 @oo<:<@o&@@ 11111111",
"11111111111 >oo$$$oo&>, 11111111",
"111111111111  ****$$   111111111",
"1111111111111 **$**$ 11111111111",
"1111111111111 *$ $*$ 11111111111",
"1111111111111 $$ $*$ 11111111111",
"1111111111111 XX XXX 11111111111",
"111111111111 ##X ### 11111111111",
"111111111111         11111111111",
"11111111111111111111111111111111"
};
