/* XPM */
static char *result[] = {
/* columns rows colors chars-per-pixel */
"32 32 4 1 ",
"  c #A4D5D5",
". c #7EA9B0",
"X c #BDF1E5",
"o c white",
/* pixels */
"            ..XXXX..          ..",
"            ..XXXX..          ..",
"            ..XXXX..          ..",
"            ..XXXX..          ..",
"            ..XXXX..          ..",
"            ..XXXX..          ..",
"            ..XXXXXX..        ..",
"            ..XXXXXX..        ..",
"          ..XXXXXXXXXX..      ..",
"          ..XXXXXXXXXX..      ..",
"        ..XXXXXXXXXXXXXX........",
"        ..XXXXXXXXXXXXXX........",
"........XXXXXXXXXXXXXXXXXXXXXX..",
"........XXXXXXXXXXXXXXXXXXXXXX..",
"XXXXXXXXXXXXXXXXXXXXXXXXXXXXXX..",
"XXXXXXXXXXXXXXXXXXXXXXXXXXXXXX..",
"XXXXXXXXXXXXXXXXXXXXXX..........",
"XXXXXXXXXXXXXXXXXXXXXX..........",
"......XXXXXXXXXXXXXX..        ..",
"......XXXXXXXXXXXXXX..        ..",
"      ..XXXXXXXXXX..          ..",
"      ..XXXXXXXXXX..          ..",
"        ..XXXXXX..            ..",
"        ..XXXXXX..            ..",
"          ..XXXX..            ..",
"          ..XXXX..            ..",
"          ..XXXX..            ..",
"          ..XXXX..            ..",
"          ..XXXX..            ..",
"          ..XXXX..            ..",
"................................",
"................................"
};
