/* XPM */
static char *result[] = {
/* columns rows colors chars-per-pixel */
"32 32 5 1 ",
"  c #A08662",
". c #5A4E44",
"X c #423934",
"o c #796755",
"O c white",
/* pixels */
"  .X.oo X     X.o   X      Xo   ",
"oo.X.oooXo   oX.ooooXoo   oX.o  ",
"o.XX..ooXXoooXX.ooooX.oooooX..oo",
"XXXX..XXX....XXX...XXX......XX..",
"  .X.X   XXXX  XXXXX  XXXXXXX.XX",
"   XX      X   o.X     X    X.  ",
"  o.Xo   ooXoooo.Xo   oXoo..X.oo",
"oo.X.ooooo.Xoooo.XXoooXXoo..XX.o",
"XXXX.ooooo.XXoo.XXX...X....XoXXX",
"oooX......XX.XXX.XoXXXoXXXXXo.Xo",
"oo.XXXXXXXXX.....X.oooo.X.ooo.X.",
"..XX......XXX...XXX....XXX...XXX",
"XX.XXXXXXX  XXXXX  XXXX   XXX.  ",
"  .X    X     X.o   X      Xo   ",
"oo.X..ooXo   oX.ooooXoo   oX.o  ",
"o.XXX.ooXXoooXX.ooooX.oooooX..oo",
"XXXXX....X...XXX.ooXX.ooooo.XXXX",
"oX.X.XXXXoXXXoX.XXX.XX.....XXooo",
".X.Xoo.X.oooo.X.....XXXXXXXX..oo",
"XXXX..XXX....XXX...XXX......XX..",
"  .XXX   XXXX  XXXXX  XXXXXXX.XX",
"   oX      X   o.X     X    X.  ",
"  oX.o   ooXoooo.Xo   oXoo..X.oo",
"oo.X.ooooo.Xoooo.XXoooXXoo..XX.o",
"..XX...XXo.XXoo.XXX...X....XoXX.",
"oooX...oo..X.XXX.XoXXXoXXXXXo.Xo",
"oo.X.......X.....X.oooo.X.ooo.Xo",
"..XXXX....XXX...XXX....XXX...XX.",
"XXXXooXXXXoXXXXXXXXXXXXXooXXXXoX",
"oo.X.ooooo.Xoooo.XXoooXXoo..XX.o",
"..XX......XXX...XXX....XXX...XXX",
"XX.XXXXXXX  XXXXX  XXXX   XXX.  "
};
