/* XPM */
static char *result[] = {
/* columns rows colors chars-per-pixel */
"32 32 21 1 ",
"  c black",
". c #0C0A07",
"X c #291A18",
"o c #362623",
"O c #3A2B28",
"+ c #4C342F",
"@ c #553D39",
"# c #4C403D",
"$ c #554C3C",
"% c #425059",
"& c #634A45",
"* c #657358",
"= c #57636B",
"- c #6E7D61",
"; c #B56A68",
": c #87947C",
"> c #C0AC98",
", c #D2A394",
"< c #E4B5A5",
"1 c #DBCBBC",
"2 c #C0D440",
/* pixels */
"22222222222222222222222222222222",
"22222222222222222222222222222222",
"22222222222222222222222222222222",
"22222222222222222222222222222222",
"22222222222222...2.2222222222222",
"2222222222....+++.+.222222222222",
"222222222.+++@&&&+&.222222222222",
"2222222222.@&&&&&&&&.22222222222",
"222222222.@&&&&&&&&&.22222222222",
"222222222.@&&&&++&&& 22222222222",
"22222222.++@&&&,+&+&@ 2222222222",
"222222222.+&&&,,,&,& 22222222222",
"222222222.@&&,,.<<.,@ 2222222222",
"22222222.+@&;,,X<<X, 22222222222",
"222222222.@@@,,<<<<, 22222222222",
"2222222222.@@@,<<<, 222222222222",
"22222222222.@@.,,,.2222222222222",
"22222222222.O-O>>>O.222222222222",
"22222222222.O-#11>O.222222222222",
"2222222222.OO:#111O#.22222222222",
"2222222222.#-##>11O#.22222222222",
"222222222.##*O#1>1OO#.2222222222",
"222222222.<,*OO%%%OO,.2222222222",
"2222222222...%%%%%%..22222222222",
"222222222222.%%===%.222222222222",
"222222222222.%==%==.222222222222",
"222222222222.%=%.%=.222222222222",
"222222222222.%=%.%%.222222222222",
"222222222222.ooo.oo.222222222222",
"222222222222.$$$.o$$.22222222222",
"222222222222.........22222222222",
"22222222222222222222222222222222"
};
