/* XPM */
static char * player_xpm[] = {
"32 32 26 1",
" 	c #C0D470",
".	c #7F0000",
"+	c #FFB27F",
"@	c #FFC0A3",
"#	c #000000",
"$	c #F7F7F7",
"%	c #030000",
"&	c #F2F2F2",
"*	c #000100",
"=	c #F2EDF0",
"-	c #194D72",
";	c #FFFFFF",
">	c #000002",
",	c #1F608E",
"'	c #FFF9FD",
")	c #000201",
"!	c #000102",
"~	c #000004",
"{	c #030002",
"]	c #563120",
"^	c #D3AC00",
"/	c #7A462E",
"(	c #000005",
"_	c #000104",
":	c #050000",
"<	c #010302",
"                                ",
"                                ",
"                                ",
"                                ",
"            ........            ",
"     .     ...........          ",
"      .  ..............         ",
"     ..................         ",
"      .................         ",
"     .  ...+++++++++...         ",
"      .  .++@@@@@@@+++.         ",
"         #++@@#@@+#@@@#         ",
"         #+@@+#@@+#@@@#         ",
"         #+@@@+@@@+@@@#         ",
"         #$$$$$$$$$$$$%         ",
"         #$$$$$&##$$$$*         ",
"          #$$$$&&&$$$#          ",
"          ##$$$$$$$$##          ",
"         #=%---+@;-->=*         ",
"         #=#-,=+@'',)=!         ",
"         #+#-,==''',~+{         ",
"         #+#--===''-#+#         ",
"          ##--===''-##          ",
"           #====='''#           ",
"           #]]]^^]]]#           ",
"           #]/]]////#           ",
"           #]//#(///_           ",
"           :%%%  #%%<           ",
"                                ",
"                                ",
"                                ",
"                                "};
