/* XPM */
static char *result[] = {
/* columns rows colors chars-per-pixel */
"32 32 142 2 ",
"   c #3E0D13",
".  c #350C1A",
"X  c #3C0D1A",
"o  c #31151C",
"O  c #3D141C",
"+  c #321620",
"@  c #3E1223",
"#  c #43070E",
"$  c #4D040F",
"%  c #560607",
"&  c #5D0306",
"*  c #57050A",
"=  c #5C040B",
"-  c #55080C",
";  c #460716",
":  c #450A12",
">  c #4B0A15",
",  c #4E061B",
"<  c #440C1B",
"1  c #4B0C19",
"2  c #530514",
"3  c #5C0511",
"4  c #510915",
"5  c #5A0912",
"6  c #520519",
"7  c #510B1B",
"8  c #49101F",
"9  c #650305",
"0  c #63040B",
"q  c #6A030B",
"w  c #76010A",
"e  c #630313",
"r  c #6A0510",
"t  c #4E0721",
"y  c #450C20",
"u  c #490D26",
"i  c #7E474C",
"p  c #983B36",
"a  c #9B373B",
"s  c #91383E",
"d  c #A3353E",
"f  c #98403C",
"g  c #883D41",
"h  c #8C3F49",
"j  c #973641",
"k  c #953D45",
"l  c #9B3C45",
"z  c #9F3748",
"x  c #933C4D",
"c  c #9B3D48",
"v  c #913F52",
"b  c #A23543",
"n  c #A33A43",
"m  c #AF3947",
"M  c #A2364A",
"N  c #A1384C",
"B  c #83434D",
"V  c #96404B",
"C  c #944653",
"Z  c #BD767C",
"A  c #DE5D6F",
"S  c #DD5F72",
"D  c #E25C6B",
"F  c #CB6663",
"G  c #CA6D66",
"H  c #CE656C",
"J  c #C76C6D",
"K  c #CC6B6D",
"L  c #D2666D",
"P  c #D9646B",
"I  c #D16A6C",
"U  c #DC696F",
"Y  c #D4706E",
"T  c #CD6773",
"R  c #C66D74",
"E  c #CE6C73",
"W  c #C56D79",
"Q  c #CC6D7A",
"!  c #D56676",
"~  c #DC6475",
"^  c #D46974",
"/  c #D96A75",
"(  c #D3677B",
")  c #DA657B",
"_  c #E3616E",
"`  c #E36372",
"'  c #E16379",
"]  c #BC9EAA",
"[  c #AEABA7",
"{  c #ACADAC",
"}  c #BEA4A5",
"|  c #B1ADA4",
" . c #B5A6AB",
".. c #BCA6AB",
"X. c #B3AAAD",
"o. c #B9A8AC",
"O. c #A5B1A9",
"+. c #ADADB2",
"@. c #B4A9B1",
"#. c #ABB3B3",
"$. c #FE9697",
"%. c #FD9D9C",
"&. c #F6A59D",
"*. c #FCA39D",
"=. c #F6A99E",
"-. c #C59DA5",
";. c #CA9DA4",
":. c #FD9DA3",
">. c #F997AC",
",. c #FC9DAA",
"<. c #C3A4AD",
"1. c #D6A0AD",
"2. c #F6A6A2",
"3. c #FCA3A3",
"4. c #F6A9A2",
"5. c #FAAAA4",
"6. c #F6A6A8",
"7. c #FDA2AA",
"8. c #F4B2A2",
"9. c #F8B1A4",
"0. c #F6ABB0",
"q. c #FEC3B6",
"w. c #FBCCB6",
"e. c #FDC3BA",
"r. c #FDCBBC",
"t. c #F6D2BB",
"y. c #FFBDC3",
"u. c #FFC2C2",
"i. c #FFCCC1",
"p. c #FEC5CC",
"a. c #FBD1C0",
"s. c #FEE6EE",
"d. c #FFEEEF",
"f. c #FEE6F3",
"g. c #FEEDF3",
"h. c #FFEEF9",
"j. c #FEF3F5",
"k. c #F1FAF5",
"l. c #FCFAF7",
"z. c #FEF5FB",
"x. c #F5FEFD",
"c. c #FEFEFE",
/* pixels */
"c.c.c.c.c.c.c.c.c.x.l.c.l.l.z.x.x.k.c.l.c.c.x.x.c.c.c.c.c.c.c.c.",
"c.c.c.c.c.c.c.c.c.c.c.x.k.x.x.x.z.z.l.x.c.x.c.c.c.c.c.c.c.c.c.c.",
"c.c.c.c.c.c.c.c.c.c.c.x.x.x.l.h.y . g.l.c.c.l.c.c.c.c.c.c.c.c.c.",
"c.c.c.c.c.c.c.c.l.c.c.c.x.c.f.u h.z.+ g.c.x.x.l.c.c.c.c.c.c.c.c.",
"c.c.c.c.c.c.c.c.l.c.c.c.x.z.@ t y . z.c.x.c.x.c.c.c.c.c.c.c.c.c.",
"c.c.c.c.c.c.c.c.l.c.x.x.x.l.f.; g.g.j.l.c.x.c.c.c.c.c.c.c.c.c.c.",
"c.c.c.c.c.c.c.c.c.c.c.c.z.g.  C h B i g.d.g.c.c.c.c.c.c.c.c.c.c.",
"c.c.c.c.c.c.c.c.c.c.l.z.< 6 W 7.y.2.0.g i s.z.x.c.c.c.c.c.c.c.c.",
"c.x.x.c.c.c.x.x.c.f.# = R 6.u.u.i.r.r.q.5.g i d.l.c.c.c.c.c.c.x.",
"c.x.x.c.c.c.x.c.j.: W :.2.e.i.r.i.a.t.r.r.y.Z : j.l.c.c.c.c.c.c.",
"c.x.x.c.c.c.c.z.: x ! %.&.8.r.r.i.r.w.t.w.u.6.h O j.z.c.c.c.c.c.",
"c.x.c.c.c.c.c.h.* ( P $.*.=.=.=.e.r.q.8.q.=.*.E 1 f.l.x.x.c.c.c.",
"c.c.c.c.x.c.z.X z ` D _ *.=.*.%.3.4.&.5.*.3.%.:.V : j.x.x.c.c.c.",
"c.c.c.c.c.x.z.y ~ D P ^ K 3.7.K U H 3.5.3.J ! ^ >.8 j.c.c.c.c.c.",
"c.c.c.c.x.c.z.6 ) b * * 0 ^ 0 & a n q E * 5 0 N ( # l.x.c.c.c.l.",
"x.c.c.c.c.x.h., k * u.y.6.q T 3.5.*.L q 7.p.y.= N > j.x.c.c.c.x.",
"c.c.c.c.c.c.g., = 7.Q l Y *.5.3.4.q.q.5.K n / ,.= 1 h.x.c.c.c.c.",
"c.c.c.c.z.l.g.6 5.7.r a %.5.*.3.&.9.a.0.3.b 9 7.,.7 h.c.c.c.c.c.",
"c.c.x.c.z.l.o v l = a E *.*.*.=.=.=.4.5.3.L V % k B + c.c.c.c.c.",
"c.c.x.x.c.c.h.2 ,.l 0 7.*.*.*.3.*.*.5.5.3.3.9 l 7.# j.c.c.c.c.x.",
"c.c.x.c.c.c.g.7 ,.,.0 7.5.G p *.%.*.f J 3.7.& 7.,.> g.c.c.c.c.c.",
"c.c.x.c.c.l.z.; I ,.0 7.G 9 *.%.*.*.%.9 I 3.= 3.R : g.c.c.c.c.c.",
"c.c.c.c.z.x.l.1 l H q 7.3.*.*.I F Y *.3.3.7.q ^ k : g.c.c.c.c.c.",
"c.c.c.c.c.x.l.;.N / b q ^ %.I %.*.*.P :.I 9 b / x 1.z.x.c.l.c.c.",
"c.c.c.c.c.c.c...5 ~ ` n r ) ~ 9 %.w ' / 9 d ~ / 7 -.l.x.c.c.c.x.",
"c.c.c.c.c.c.c...2 ~ D b c e M ^ K ) z e j m A ) > <.l.l.c.c.c.c.",
"c.c.c.c.c.c.c.o.7 b _ L k 2 1 , 4 2 6 , z _ ` s < ..c.x.c.c.c.c.",
"c.c.c.c.c.c.c.X.<.3 ` P * ;.....} } ..;.3 S ~ - <.o.c.x.c.c.c.c.",
"c.c.c.c.c.c.c.c.<.> / L - } X.@.{ { +.o.$ ' S 5 ..c.c.x.c.c.c.c.",
"c.c.c.c.c.c.c.c.o.  7.! 4 <.{ [ { #.+.o.> ( >.1  .l.c.x.c.c.c.c.",
"c.c.c.c.c.c.c.c.l.j.> v 1  .#.O.O.+.@...X B < h.l.c.c.c.c.c.c.c.",
"c.c.c.c.c.c.c.c.c.l.j.<.] #.O.| { X.@.{ [ z.z.c.c.x.c.c.c.c.c.c."
};
