/* XPM */
static char *result[] = {
/* columns rows colors chars-per-pixel */
"32 32 129 2 ",
"   c #330A1A",
".  c #3D0918",
"X  c #291519",
"o  c #31131B",
"O  c #39151F",
"+  c #2D1C25",
"@  c #3B1422",
"#  c #44060B",
"$  c #5C0305",
"%  c #5E030D",
"&  c #470717",
"*  c #4D0614",
"=  c #440B14",
"-  c #4D0815",
";  c #450B1A",
":  c #4C0B1A",
">  c #550513",
",  c #5C0414",
"<  c #55071A",
"1  c #5A061A",
"2  c #510B1A",
"3  c #5C0C19",
"4  c #630406",
"5  c #6A0207",
"6  c #64040C",
"7  c #6B000F",
"8  c #640413",
"9  c #690412",
"0  c #630418",
"q  c #440F23",
"w  c #560D20",
"e  c #77464B",
"r  c #7C464C",
"t  c #973B3E",
"y  c #98393D",
"u  c #A13B3E",
"i  c #8A3B41",
"p  c #833E4B",
"a  c #8F3C4E",
"s  c #9D3443",
"d  c #943C45",
"f  c #9B3945",
"g  c #9C364C",
"h  c #953D4E",
"j  c #9B3B4D",
"k  c #9C3B54",
"l  c #A43447",
"z  c #A13A44",
"x  c #A2364D",
"c  c #A43B4A",
"v  c #894049",
"b  c #BF706F",
"n  c #BD707A",
"m  c #CC6C66",
"M  c #CF6669",
"N  c #C66B6C",
"B  c #CB6B6E",
"V  c #D6646E",
"C  c #DA636C",
"Z  c #D36A6C",
"A  c #CF6373",
"S  c #C46F76",
"D  c #CA6A73",
"F  c #CA6C7B",
"G  c #D56576",
"H  c #DC6571",
"J  c #D26E73",
"K  c #D0647B",
"L  c #DB647A",
"P  c #D36A7A",
"I  c #C37177",
"U  c #D07072",
"Y  c #E16B77",
"T  c #BD7481",
"R  c #C66B80",
"E  c #D76780",
"W  c #D66980",
"Q  c #AFA7A5",
"!  c #B6A7A7",
"~  c #B6A7AA",
"^  c #BBA4AA",
"/  c #B5ABAC",
"(  c #BDA9AF",
")  c #BFA9B0",
"_  c #FB9E96",
"`  c #FF979E",
"'  c #FE9D9B",
"]  c #FCA397",
"[  c #F6A59F",
"{  c #FCA39C",
"}  c #F6A99E",
"|  c #FAAA9F",
" . c #D09CA9",
".. c #FD9EA1",
"X. c #FB9CAB",
"o. c #C2A3AB",
"O. c #F4A4A2",
"+. c #FDA3A3",
"@. c #F5AAA2",
"#. c #FAABA6",
"$. c #F4A5AA",
"%. c #FCA3AB",
"&. c #F2AAAA",
"*. c #F4B2A3",
"=. c #F5A2B0",
"-. c #FEA4B1",
";. c #FFBDB6",
":. c #FFBEB8",
">. c #FFC2B3",
",. c #FEC9B7",
"<. c #FEC5BB",
"1. c #F4CEB9",
"2. c #FCCDBE",
"3. c #FAD1BC",
"4. c #FFBAC0",
"5. c #FEC4C3",
"6. c #FFC9C7",
"7. c #FEC2CA",
"8. c #FEF3EF",
"9. c #FEE5F2",
"0. c #FEECF2",
"q. c #FFECF8",
"w. c #FEF3F5",
"e. c #F6FBF5",
"r. c #FCFAF6",
"t. c #F7F7F9",
"y. c #FEF5FA",
"u. c #F5FDFC",
"i. c #FEFEFE",
/* pixels */
"i.i.i.i.i.i.i.i.i.i.i.i.i.i.u.i.i.i.i.i.i.i.i.i.i.i.i.i.i.i.i.i.",
"i.i.i.i.i.i.i.i.i.i.i.i.i.i.i.i.u.u.i.i.i.i.i.i.i.i.i.i.i.i.i.i.",
"i.i.i.i.i.i.i.i.u.i.i.i.i.i.i.i.y.i.i.i.i.u.i.i.i.i.i.i.i.i.i.i.",
"i.i.i.i.i.i.i.i.i.i.i.i.i.i.i.i.i.i.i.i.i.i.i.i.i.i.i.i.i.i.i.i.",
"i.i.i.i.i.i.i.i.i.i.i.i.u.u.t.i.y.i.i.i.i.i.i.i.i.i.i.i.i.i.i.i.",
"i.i.i.i.i.i.i.i.i.i.i.i.u.u.y.q.@ o y.t.u.u.i.i.i.i.i.i.i.i.i.i.",
"i.i.i.i.i.i.i.i.i.i.t.i.u.t.9.@ 9.y.+ y.i.i.i.i.i.i.i.i.i.i.i.i.",
"i.i.i.i.i.i.i.i.i.i.i.i.u.t.@ q q   q.t.i.i.i.i.i.i.i.i.i.i.i.i.",
"i.i.i.i.i.i.i.i.i.u.t.i.t.i.w.< 9.w.r.i.r.y.i.t.i.i.i.i.i.i.i.i.",
"i.i.i.i.i.i.i.i.i.u.u.y.w.w.= g h p e 8.r.e.u.u.i.i.i.i.i.i.i.i.",
"i.i.i.i.i.i.i.i.u.u.y.0.= # n %.6.&.O.i r 8.y.r.i.i.i.i.i.i.i.i.",
"i.i.i.i.i.i.i.i.r.w.= , S $.2.2.3.6.6.<.#.v r 8.i.i.u.i.i.i.i.u.",
"i.i.i.i.i.i.i.i.y.. F ` +.>.3.1.3.3.3.2.5.5.T & w.i.u.i.i.y.i.u.",
"i.i.i.i.i.i.i.i.8.> G ..} *.>.,.3.3.3.3.2.5.$.> 0.y.i.u.i.i.i.i.",
"i.i.i.i.i.i.i.i.# W Y { } | ] @.2.<.<.@.<.[ +.D q w.t.u.i.i.i.i.",
"i.i.i.i.i.i.i.y., L C Z ] ' { #.' +.@.} } ' +.%.: 0.i.u.i.i.i.i.",
"i.u.i.i.i.i.r.- C H G Z B ..' Z V Z +.+.` H V D -.= y.i.i.i.i.i.",
"i.i.i.i.i.i.y.- G z % 8 4 J 6 6 y y 5 B $ $ 6 z D * w.i.u.i.i.i.",
"i.u.i.i.i.u.y.- j > 7.:.%.5 N +.@.+.U $ &.5.4.6 d 2 y.i.u.i.i.i.",
"i.i.i.i.i.i.y.- , $.n d D { +.#.#.<.;.#.b d I =.8 2 y.i.i.i.i.i.",
"i.i.i.i.i.y.0.> X.X.6 t { ' ] { [ } <.;.+.f 6 -.X.< y.y.i.i.i.u.",
"i.u.i.i.i.y.o R s 5 z N { ] ] ] } } @.{ +.B z 9 g < X i.i.i.i.i.",
"i.i.r.i.i.i.w.1 G c 4 +.{ { _ { { { { | ' +.% g X.> 0.i.i.i.i.u.",
"i.r.i.i.i.r.y.: l D % -.{ C v +.] ] u m O.%.6 %.P > 0.i.i.i.i.i.",
"i.i.i.i.i.r.y.O a j 8 +.J 6 ..+.{ { ' 4 N %.8 A G > w.i.i.i.i.i.",
"i.i.i.i.i.i.i.0.1 h % X.+...' M Z Z ` ....%.6 c j = y.r.i.i.i.r.",
"i.i.i.i.i.i.y.^ > , g 6 J +.B ..{ +.Z ..D 6 s 9 3 o.e.u.i.i.i.i.",
"i.i.i.i.u.t.i.~ - j c s 5 P t 6 +.4 Z D 6 s c l - o.r.u.i.r.i.i.",
"i.i.i.i.r.u.t.( 1 g E l l 6 f G P P s 7 l l L x : o.i.y.i.i.i.i.",
"i.i.i.i.i.i.i.~ : k x E g , 0 g 9 g , 0 g K g k ; ( y.r.i.i.u.i.",
"i.i.i.i.u.i.y./ ( . w > 2 ;  .; & &  .; & * : ; o./ u.i.i.i.i.i.",
"i.i.i.i.i.i.r.i.i.y.0.^ ! / Q ) ( ~ / ~ ^ o.w.w.i.u.u.u.i.i.u.i."
};
