/* XPM */
static char *result[] = {
/* columns rows colors chars-per-pixel */
"32 32 225 2 ",
"   c #1C1E09",
".  c #240D07",
"X  c #2B150D",
"o  c #271809",
"O  c #321509",
"+  c #220F11",
"@  c #2C1413",
"#  c #25191B",
"$  c #341817",
"%  c #1C211B",
"&  c #25200D",
"*  c #34271C",
"=  c #1C1C24",
"-  c #151A2C",
";  c #1C1C2C",
":  c #161627",
">  c #1D1E30",
",  c #241722",
"<  c #221C2E",
"1  c #2A1C2B",
"2  c #271921",
"3  c #221E34",
"4  c #211B3C",
"5  c #1C2225",
"6  c #1D2B25",
"7  c #1E232D",
"8  c #1E2B2A",
"9  c #162B2E",
"0  c #1C312C",
"q  c #1C2935",
"w  c #1E3436",
"e  c #26232B",
"r  c #262A2B",
"t  c #33262A",
"y  c #22332C",
"u  c #2A352E",
"i  c #232433",
"p  c #2C2535",
"a  c #222C34",
"s  c #2B2C3D",
"d  c #262C38",
"f  c #352936",
"g  c #233432",
"h  c #2B343C",
"j  c #2A3839",
"k  c #303539",
"l  c #452E0D",
"z  c #562D0B",
"x  c #523300",
"c  c #482717",
"v  c #542F1F",
"b  c #493413",
"n  c #5A331B",
"m  c #4A3204",
"M  c #7B3D16",
"N  c #63321C",
"B  c #4A3329",
"V  c #523121",
"C  c #573427",
"Z  c #553C37",
"A  c #4C3436",
"S  c #6B3A2B",
"D  c #7A3E29",
"F  c #723E33",
"G  c #54421C",
"H  c #58433B",
"J  c #4E453C",
"K  c #794629",
"L  c #684536",
"P  c #774931",
"I  c #1D3442",
"U  c #312F44",
"Y  c #263843",
"T  c #323B45",
"R  c #533D43",
"E  c #543A46",
"W  c #4D3E43",
"Q  c #394447",
"!  c #27414E",
"~  c #4C4348",
"^  c #554449",
"/  c #7C5447",
"(  c #6D5249",
")  c #61615F",
"_  c #555F6B",
"`  c #6D666B",
"'  c #676968",
"]  c #706971",
"[  c #777D79",
"{  c #697174",
"}  c #824418",
"|  c #8D4C23",
" . c #8C5732",
".. c #AE5D24",
"X. c #AC5E35",
"o. c #9A6838",
"O. c #B5632A",
"+. c #BA6E37",
"@. c #F0721D",
"#. c #E7751F",
"$. c #C55E23",
"%. c #D77628",
"&. c #C96C35",
"*. c #DD7F31",
"=. c #DC7E3B",
"-. c #D67536",
";. c #CB773B",
":. c #E57624",
">. c #EA7A25",
",. c #E47A2B",
"<. c #EA7C2A",
"1. c #E57926",
"2. c #F37A25",
"3. c #F47A2B",
"4. c #F97B2E",
"5. c #E47E35",
"6. c #E47A37",
"7. c #8F5F4D",
"8. c #946D41",
"9. c #996649",
"0. c #9F6D54",
"q. c #A66549",
"w. c #B36743",
"e. c #A37548",
"r. c #B6764B",
"t. c #BE7A56",
"y. c #AA7D54",
"u. c #896D6A",
"i. c #C27548",
"p. c #D77B47",
"a. c #C57C5A",
"s. c #7C837D",
"d. c #788279",
"f. c #CF8031",
"g. c #DC803F",
"h. c #ED802C",
"j. c #E88329",
"k. c #F4842D",
"l. c #F8862C",
"z. c #EA853A",
"x. c #E98634",
"c. c #F78937",
"v. c #EF933C",
"b. c #FC933C",
"n. c #FD9A3B",
"m. c #F39338",
"M. c #AF834D",
"N. c #B98A4A",
"B. c #B88853",
"V. c #81817F",
"C. c #98887B",
"Z. c #B6876C",
"A. c #C8854B",
"S. c #DD8543",
"D. c #D6854B",
"F. c #C58A53",
"G. c #CA865D",
"H. c #D78657",
"J. c #DC9558",
"K. c #D79446",
"L. c #E28B46",
"P. c #F78A42",
"I. c #E79243",
"U. c #F49444",
"Y. c #FD9441",
"T. c #FF9B42",
"R. c #F6954B",
"E. c #EA9956",
"W. c #ED9053",
"Q. c #F1A055",
"!. c #EEA252",
"~. c #D18160",
"^. c #D1916E",
"/. c #E18F60",
"(. c #E39762",
"). c #F99863",
"_. c #D5A17B",
"`. c #F6A966",
"'. c #E6A87E",
"]. c #EBA670",
"[. c #7B8786",
"{. c #7A8386",
"}. c #989695",
"|. c #9B978E",
" X c #A59796",
".X c #9A9AA3",
"XX c #CFA283",
"oX c #D4A688",
"OX c #CEA596",
"+X c #D8A998",
"@X c #EBB49B",
"#X c #CEB3A9",
"$X c #ECBCAC",
"%X c #FFD1B3",
"&X c #DDDBD3",
"*X c #DEDEDC",
"=X c #D0CDCA",
"-X c #E9D8C8",
";X c #FFD5CF",
":X c #F8DCCA",
">X c #E4DCD4",
",X c #E8DED6",
"<X c #F2DED3",
"1X c #F9DDD7",
"2X c #E2CEC3",
"3X c #DFE4DD",
"4X c #EBE0CE",
"5X c #FFE2C3",
"6X c #FFE6CD",
"7X c #E5E0D4",
"8X c #EDE3D4",
"9X c #E4E2DB",
"0X c #EDE3DB",
"qX c #ECE8DD",
"wX c #FFE4D4",
"eX c #F4E3DC",
"rX c #F1EADE",
"tX c #FCE6D9",
"yX c #DDE6E5",
"uX c #E6EAE3",
"iX c #E9EAE3",
"pX c #E9E5E3",
"aX c #F2EBE3",
"sX c #F6E4E4",
"dX c #F3F0F7",
/* pixels */
"f e ; 3 : = 5 5 1 < i ; ; - 4 < - - 4 4 i e , t 1 s : q 7 ; = i ",
"f e ; 3 : = 5 5 1 < i ; ; - 4 < - - 4 4 i e , t 1 s : q 7 ; = i ",
"f e ; 3 : = 5 5 1 < i ; ; - 4 < - - 4 4 i e , t 1 s : q 7 ; = i ",
"f e ; 3 : = 5 5 1 < i ; ; - 4 < - - 4 4 i e , t 1 s : q 7 ; = i ",
"f e ; 3 : = 5 5 1 < i ; ; - 4 < - - 4 4 i e , t 1 s : q 7 ; = i ",
"f e ; 3 : = 5 5 1 < i ; ; - 4 < - - 4 4 i e , t 1 s : q 7 ; = i ",
"f e ; 3 : = 5 5 1 < i ; ; - 4 < - - 4 4 i e , t 1 s : q 7 ; = i ",
"f e ; 3 : = 5 5 1 < i ; ; - 4 < - - 4 4 i e , t 1 s : q 7 ; = i ",
"f e ; 3 : = 5 5 1 < i ; ; - 4 < - - 4 4 i e , t 1 s : q 7 ; = i ",
"f e ; 3 : = 5 5 1 < i ; ; - 4 < - - 4 4 i e , t 1 s : q 7 ; = i ",
"f e ; 3 : = 5 5 1 < i ; ; - 4 < - - 4 4 i e , t 1 s : q 7 ; = i ",
"f e ; 3 : = 5 5 1 < i ; ; - 4 < - - 4 4 i e , t 1 s : q 7 ; = i ",
"f e - : e # o o @ $ @ + # # < < ; : 1 2 @ O O O $ , e 7 7 i 7 < ",
"T ; - 5 o n K M M } | M F A A 4 1 B F D M }  .} D S $ 2 ; : i > ",
"d e 6 * l o.A.g.g.W.).D.a.q.E W E 7.a.p.L.I.R.D.p.t.n $ 1 3 3 : ",
"k 6   * B.J.5.3.Y.R.z.=.H.q.Z ~ E / G.=.m.n.x.j.*.L.~.K $ , : i ",
"u   G M.E.x.:.2.Y.v.5.-.H.9.Z ^ E / A.*.m.n.j.>.>.<.`.r.S $ # = ",
"b b o.`.x.,.k.k.Y.c.x.g.J.q.Z ~ E ( i.v.v.b.j.<.j.l.R.W.X.N * # ",
"b 8.J.R.h.2.l.b.k.1.*.g.E.y.H W Z / A.Q.x.h.>.>.l.n.3.6.p.t.v o ",
"m B.!.x.k.:.k.Y.l.@.2.<.`.B.A R Z P A.R.c.2.4.2.l.T.,.,.6.;.z O ",
"x N.K.j.>.b.b.b.4.2.4.P.E.q.R E B 7./.W.c.3.2.c.b.b.4.:.L.D.z O ",
"x N.!.j.1.P.U.%.:.6.6.).H.7.E E B 7._.p.p.-.5.P.P.%.<.,.n.J.N . ",
"x N.!.f.5.p.;.....O.X.a.q.F f f t H a.X.X.X...-.-.$.6.%.v.(.n X ",
"x M.K.f.O.E.'._.XXXX+X+XOXu.p f t ( #XOXoXoXXX'.'./.&.S.!.F.V @ ",
"z o.N.;.i.@X6X6XwX:XwX1XsX Xf s < ` eX<XeXtX6X:X5X%Xa.G.J.y.V + ",
"V 0.r.r.$X;X1X<XwX-X-X2X8X|.d U < ` 0X>X,X8X:X-X-X:X;XG.w.t.c @ ",
"B / Z.#X;XsXsX>X8X4X-X,XaX|.d s p ] >X>XiX8X8X8X7XeXsX#X_.0.c @ ",
"t J C.<XsXeX7X7X,XaXsXpXaX.Xp s e ' 3X,X9X>XrX8XrX7XeXeX#XH t # ",
"u % ' =XaXiXaX9XiX9X>XpXdX.Xa Y 5 ' yX*X&X&XqX>X>XrX,X>X}.= p : ",
"k 6 r ) =XuX9XuXuX3X*XpXdX.Xq Y q { yXuXiXqXqX>X&X&XiXV.k = ; = ",
"g y 8 r ' s.[.d.d.[ [ {.{._ q Y w Q {.{.[.d.s.d.[ [ V.Q = 7 h d ",
"w 0 j Q g 6 g 6 0 0 u 8 q Y I ! Y 9 Y 0 g 8 y u 6 u 8 j Q q ! d "
};
