/* XPM */
static char *result[] = {
/* columns rows colors chars-per-pixel */
"32 32 163 2 ",
"   c #F8F8F8",
".  c #090603",
"X  c #0B0B0C",
"o  c #170E08",
"O  c #121315",
"+  c #251508",
"@  c #2C180F",
"#  c #341D0F",
"$  c #2E1C12",
"%  c #241B19",
"&  c #382214",
"*  c #3C2915",
"=  c #3A2719",
"-  c #161620",
";  c #171B26",
":  c #24293C",
">  c #323334",
",  c #38373C",
"<  c #472816",
"1  c #472C19",
"2  c #4C2D19",
"3  c #50331B",
"4  c #472C25",
"5  c #5A3E25",
"6  c #693C36",
"7  c #70401C",
"8  c #65492E",
"9  c #252B43",
"0  c #2F2D45",
"q  c #292F49",
"w  c #2B3245",
"e  c #2D3249",
"r  c #343144",
"t  c #3D435D",
"y  c #374465",
"u  c #3C4569",
"i  c #4E414C",
"p  c #48484E",
"a  c #52424F",
"s  c #4E534F",
"d  c #53524D",
"f  c #4F4050",
"g  c #41415B",
"h  c #504251",
"j  c #585B5A",
"k  c #61675D",
"l  c #6E5A63",
"z  c #636764",
"x  c #656A66",
"c  c #6D6D63",
"v  c #616769",
"b  c #7F6D6D",
"n  c #6C7068",
"m  c #6E6D77",
"M  c #6E7575",
"N  c #717774",
"B  c #9D552D",
"V  c #8F5736",
"C  c #85523E",
"Z  c #985930",
"A  c #A26536",
"S  c #BF6236",
"D  c #AE7838",
"F  c #EF7D1E",
"G  c #F2791E",
"H  c #C25A27",
"J  c #C45A2E",
"K  c #C75731",
"L  c #D6692C",
"P  c #CC6632",
"I  c #C86C36",
"U  c #D26D3C",
"Y  c #C6753A",
"T  c #EE7923",
"R  c #E4712D",
"E  c #EC7729",
"W  c #E47B2F",
"Q  c #EC7B2A",
"!  c #F47622",
"~  c #F97523",
"^  c #F37923",
"/  c #F27228",
"(  c #F17A2C",
")  c #E57B33",
"_  c #EE7B32",
"`  c #E27D3D",
"'  c #835243",
"]  c #895042",
"[  c #925E49",
"{  c #8A6346",
"}  c #AA7B43",
"|  c #BA714A",
" . c #AD7755",
".. c #C47144",
"X. c #C77847",
"o. c #D77744",
"O. c #D57940",
"+. c #E47D42",
"@. c #D2893C",
"#. c #EE8127",
"$. c #EE8029",
"%. c #EB882D",
"&. c #F38323",
"*. c #FA8325",
"=. c #F5842B",
"-. c #F58C2C",
";. c #FB8C2B",
":. c #F7912D",
">. c #FA932D",
",. c #EC8332",
"<. c #EB8D34",
"1. c #F08D35",
"2. c #F49332",
"3. c #FB9432",
"4. c #FC9B34",
"5. c #F6943A",
"6. c #FD9639",
"7. c #F39B3F",
"8. c #FE9B3D",
"9. c #BF9046",
"0. c #D59045",
"q. c #D19058",
"w. c #E29046",
"e. c #F19A40",
"r. c #FC9D42",
"t. c #D98867",
"y. c #D18F6D",
"u. c #CD8F76",
"i. c #D28D70",
"p. c #D59684",
"a. c #C1A49C",
"s. c #E2AF9C",
"d. c #EDAF99",
"f. c #E6B19E",
"g. c #DEB0A3",
"h. c #C3BEBA",
"j. c #E2AEA2",
"k. c #E4B2A4",
"l. c #ECBAA5",
"z. c #E3BFAF",
"x. c #EEC5A9",
"c. c #EBC8B5",
"v. c #EECFBA",
"b. c #E5D6BF",
"n. c #BDBBC0",
"m. c #C5C2C4",
"M. c #D7CCC8",
"N. c #E1D3C6",
"B. c #E3D9C3",
"V. c #E0D7C8",
"C. c #E5DDCD",
"Z. c #EADBCD",
"A. c #E6DED3",
"S. c #ECDED3",
"D. c #E3DED8",
"F. c #F2DAD8",
"G. c #E7E1D4",
"H. c #ECE2D5",
"J. c #E6E2DC",
"K. c #EBE4DC",
"L. c #F1E5D9",
"P. c #E4E3E1",
"I. c #EBE5E1",
/* pixels */
"                                                                ",
"                                                                ",
"                                                                ",
"                                                                ",
"                                                                ",
"                                                                ",
"                                                                ",
"                                                                ",
"                                                                ",
"                                                                ",
"                                                                ",
"                                                                ",
"                                                                ",
"                                                                ",
"                                                                ",
"              $ < < 3 5 2 1 % - ; ; = 2 2 3 5 2 & .             ",
"            + Y ^ _ 1.r.=.` ' e u a | _ Q %.r.,.W 7 .           ",
"          * w.Q ~ 3.4.G G E ] g u h ..! ;.4.&.! ( 2.A           ",
"        8 0.#.~ ! >.3.G G Q C g u f ..^ -.4.G ~ &.:.7.Z o .     ",
"      8 @.4.^ ~ >.:.=.~ ^ 5.[ g u f ..;.>.=.G ~ ;.>.*.T B X     ",
"      } 2.;.^ &.4.-.G ~ G r.{ t u f D 4.>.^ ~ ^ 3.>.G ! ) $     ",
"      9.2.T G &.4.-.! ! &.5.{ t u i X.4.:.~ G &.>.;.^ G W #     ",
"      9.:.T ( 8.=./ / ( 6.,.C t y i q.;./ / Q 6.=.( ^ ^ e.*     ",
"      9.:.^ / +.P J J J o.S 6 0 q ,  .I J K H O.P L ^ F e.=     ",
"      D $.R P d.k.g.f.f.l.k.l 9 9 r a.k.j.j.s.l.f.t.L 5.<.&     ",
"      A L o.p.Z.L.I.H.Z.Z.J.m 9 9 e h.S.S.I.L.S.Z.z.y.` ) #     ",
"      V U i.F.H.K.K.G.B.B.G.m : q q m.C.S.I.K.C.G.L.c.X.U @     ",
"      4 u.v.K.K.V.C.K.K.K.K.m : 9 w m.K.H.K.I.I.K.K.S.x.[ X     ",
"      . b S.K.J.K.K.J.I.K.P.p : 9 w .Z.b.B.J.K.K.I.D.M.%        ",
"        O j N.K.K.K.G.A.J.P., : 9 w n.D.C.C.H.C.B.A.h.> .       ",
"          X d z x x x k x v O : 9 w j M M M N n c n s .         ",
"                                                                "
};
