/* XPM */
static char *result[] = {
/* columns rows colors chars-per-pixel */
"32 32 103 2 ",
"   c #73321D",
".  c #523426",
"X  c #774A36",
"o  c #754E3C",
"O  c #7A5038",
"+  c #5E5050",
"@  c #6A5146",
"#  c #62544E",
"$  c #6E554D",
"%  c #795C4D",
"&  c #6C5C54",
"*  c #765E54",
"=  c #75645B",
"-  c #79645C",
";  c #646463",
":  c #6C6B6A",
">  c #746A65",
",  c #746D69",
"<  c #737271",
"1  c gray49",
"2  c #963F2F",
"3  c #91462B",
"4  c #9A412F",
"5  c #904A2B",
"6  c #804D39",
"7  c #904D31",
"8  c #9A4C31",
"9  c #B2522D",
"0  c #AF5531",
"q  c #BC5F34",
"w  c #B46039",
"e  c #BF6338",
"r  c #CE663A",
"t  c #C56A3C",
"y  c #D46339",
"u  c #E36638",
"i  c #E36E3A",
"p  c #FD6A36",
"a  c #F16138",
"s  c #FC6738",
"d  c #F16C3A",
"f  c #FC6C39",
"g  c #E1703A",
"h  c #FF7236",
"j  c #FF7937",
"k  c #F47138",
"l  c #FE743A",
"z  c #F47A3D",
"x  c #FE793A",
"c  c #8C6954",
"v  c #A7694A",
"b  c #8D7566",
"n  c #817068",
"m  c #867D7A",
"M  c #EC7A46",
"N  c #E17D4A",
"B  c #FE7D42",
"V  c #B79179",
"C  c #FE8245",
"Z  c #FC8449",
"A  c #F28651",
"S  c #FB8D55",
"D  c #CA8869",
"F  c #F89E6C",
"G  c #E39C71",
"H  c #FCA471",
"J  c #F7A079",
"K  c #848382",
"L  c #8D8582",
"P  c #898788",
"I  c #948A86",
"U  c #958D8B",
"Y  c #959394",
"T  c #9C9794",
"R  c #9E9D9D",
"E  c #A19894",
"W  c #A5A3A3",
"Q  c #AEAEAD",
"!  c #B3B2B3",
"~  c #BBB8BA",
"^  c #ECA781",
"/  c #F6B18B",
"(  c #FAB48D",
")  c #FEB88D",
"_  c #EFB999",
"`  c #F3B291",
"'  c #C0BDBF",
"]  c #FEC3A4",
"[  c #C3C4C4",
"{  c #C8C5C6",
"}  c #CBCBCB",
"|  c #CDD0CE",
" . c #D4D3D3",
".. c #D8D6D7",
"X. c #DBDCDC",
"o. c #E4E3E3",
"O. c #E6E9E7",
"+. c #EEEDEE",
"@. c #EFF0F0",
"#. c #F2F2F2",
"$. c #F8F6F6",
"%. c #F8F7F8",
"&. c #FEFEFE",
/* pixels */
"&.&.&.&.&.&.&.&.&.&.&.&.&.&.&.&.&.&.&.&.&.&.&.&.&.&.&.&.&.&.&.&.",
"&.&.&.&.&.&.&.&.&.&.&.&.&.&.&.&.&.&.&.&.&.&.&.&.&.&.&.&.&.&.&.&.",
"&.&.&.&.&.&.&.&.&.&.&.&.&.&.&.&.&.&.&.&.&.&.&.&.&.&.&.&.&.&.&.&.",
"&.&.&.&.&.&.&.&.&.&.&.&.&.&.&.&.&.&.&.&.&.&.&.&.&.&.&.&.&.&.&.&.",
"&.&.&.&.&.&.&.&.&.&.&.&.&.&.&.&.&.&.&.&.&.&.&.&.&.&.&.&.&.&.&.&.",
"&.&.&.&.&.&.&.&.&.&.&.&.&.&.&.&.&.&.&.&.&.&.&.&.&.&.&.&.&.&.&.&.",
"&.&.&.&.&.&.&.&.&.&.&.&.&.&.&.&.&.&.&.&.&.&.&.&.&.&.&.&.&.&.&.&.",
"&.&.&.&.&.&.&.&.&.&.&.&.&.&.&.&.&.&.&.&.&.&.&.&.&.&.&.&.&.&.&.&.",
"&.&.&.&.&.&.&.&.&.&.&.&.&.&.&.&.&.&.&.&.&.&.&.&.&.&.&.&.&.&.&.&.",
"&.&.&.&.&.&.&.&.&.&.&.&.&.&.&.&.&.&.&.&.&.&.&.&.&.&.&.&.&.&.&.&.",
"&.&.&.&.&.&.&.&.&.&.&.&.&.&.&.&.&.&.&.&.&.&.&.&.&.&.&.&.&.&.&.&.",
"&.&.&.&.&.&.&.&.&.&.&.&.&.&.&.&.&.&.&.&.&.&.&.&.&.&.&.&.&.&.&.&.",
"&.&.&.&.&.&.&.&.&.&.&.&.&.&.&.&.&.&.&.&.&.&.&.&.&.&.&.&.&.&.&.&.",
"&.&.&.&.&.&.&.&.&.&.&.&.@.W & o 7 3 7 O @ > U { #.&.&.&.&.&.&.&.",
"&.&.&.&.&.&.&.&.&.&.o.$ q Z B l f p l l h x f z t 6 U %.&.&.&.&.",
"&.&.&.&.&.&.&.&.&.E w l p h Z x x x p x B Z s l l B z o &.&.&.&.",
"&.&.&.&.&.&.&.&.m N B B x f j j x x x h x B x p C Z f r #.&.&.&.",
"&.&.&.&.&.&.&.} y h C x j j k x x x H Z x x l h j j x 0 @.&.&.&.",
"&.&.&.&.&.&.&.o p h j x j C / F A ^ _ / C B ) J j x x x L &.&.&.",
"&.&.&.&.&.&.n k j Z ( G v * , R [ | } ~ P = V ` B x x x % &.&.&.",
"&.&.&.&.&.I M Z z c < } $.&.&.&.&.&.&.&.&.&.O.Q & D S H b &.&.&.",
"&.&.&.&.+.e x g > X.@.&.&.&.&.&.&.&.&.&.&.&.&.&.&. .= ] b &.&.&.",
"&.&.&.} X 0 z # } X.@.&.&.&.&.&.&.&.&.&.&.&.&.&.&.&.! * > &.&.&.",
"&.&.U r i 5 . #.: X.%.&.&.&.&.&.&.&.&.&.&.&.&.&.&.+.} X.%.&.&.&.",
"&.T u f   x - &.; [ o.&.&.&.&.&.&.&.&.&.&.&.&.&.&.%.< &.&.&.&.&.",
"%.2 s 9 u d ' &.%.1 X.@.&.&.&.&.&.&.&.&.&.&.&.&.&.{ ! &.&.&.&.&.",
"&.@ 4 + s 8 %.&.&. .! ..+.%.%.&.&.&.&.&.&.&.&.&.X.W &.&.&.&.&.&.",
"&.&.%.R a m &.&.&.&.[ : ..o.O.&.&.&.&.&.%.@.W Y R &.&.&.&.&.&.&.",
"&.&.&.%.m &.&.&.&.&.&.&.< K Y W ~ W } P Y :  .%.&.&.&.&.&.&.&.&.",
"&.&.&.&.&.&.&.&.&.&.&.&.&.&.#.%.o.@. .%.&.&.&.&.&.&.&.&.&.&.&.&.",
"&.&.&.&.&.&.&.&.&.&.&.&.&.&.&.&.&.&.&.&.&.&.&.&.&.&.&.&.&.&.&.&.",
"&.&.&.&.&.&.&.&.&.&.&.&.&.&.&.&.&.&.&.&.&.&.&.&.&.&.&.&.&.&.&.&."
};
