/* XPM */
static char *Safeimagekit_resized_img1693330204[] = {
/* columns rows colors chars-per-pixel */
"32 32 186 2 ",
"   c #0D0D01",
".  c #140401",
"X  c #190100",
"o  c #140B00",
"O  c #1A0804",
"+  c #121203",
"@  c #10110B",
"#  c #1C1407",
"$  c #1D1311",
"%  c #210400",
"&  c #270F03",
"*  c #261403",
"=  c #2D1807",
"-  c #2B160C",
";  c #251808",
":  c #281307",
">  c #3B1100",
",  c #201911",
"<  c #291711",
"1  c #3E2521",
"2  c #382B25",
"3  c #431D12",
"4  c #542207",
"5  c #5E290A",
"6  c #532C19",
"7  c #573A2C",
"8  c #4E3A33",
"9  c #523F30",
"0  c #5A3D39",
"q  c #504438",
"w  c #79432B",
"e  c #704F3E",
"r  c #7F4A38",
"t  c #494045",
"y  c #6C5649",
"u  c #7D5D4E",
"i  c #694A45",
"p  c #86533C",
"a  c #995E44",
"s  c #835F55",
"d  c #8F614A",
"f  c #8F6154",
"g  c #9A6650",
"h  c #B57455",
"j  c #BB7C5B",
"k  c #8D7269",
"l  c #9E7567",
"z  c #A87662",
"x  c #B97962",
"c  c #C7784C",
"v  c #C47D57",
"b  c #CA7B54",
"n  c #C77F59",
"m  c #CB7E5C",
"M  c #DF7F57",
"N  c #D07B54",
"B  c #E67E47",
"V  c #E57E4C",
"C  c #E97F4D",
"Z  c #BC8068",
"A  c #BC8366",
"S  c #B68474",
"D  c #CE825B",
"F  c #CB8257",
"G  c #DB835A",
"H  c #ED844C",
"J  c #E48254",
"K  c #EB8354",
"L  c #EC8957",
"P  c #E4865B",
"I  c #EA855A",
"U  c #EC8A5D",
"Y  c #F28455",
"T  c #F18954",
"R  c #F18759",
"E  c #F48C5E",
"W  c #FC8D5F",
"Q  c #F79056",
"!  c #F8955E",
"~  c #C58364",
"^  c #C4856C",
"/  c #CF8D6C",
"(  c #C4886C",
")  c #DC8B64",
"_  c #D38C6B",
"`  c #DD8C6D",
"'  c #D08162",
"]  c #D5906F",
"[  c #C98C73",
"{  c #C1907F",
"}  c #CA947C",
"|  c #DF9474",
" . c #D59879",
".. c #E48D65",
"X. c #E58B6A",
"o. c #F28C62",
"O. c #EC9165",
"+. c #E6916B",
"@. c #EC936D",
"#. c #FD9463",
"$. c #FF9963",
"%. c #F3916A",
"&. c #FB966A",
"*. c #FC9A6C",
"=. c #F19566",
"-. c #E39C7A",
";. c #EA9D7A",
":. c #E99974",
">. c #F69772",
",. c #FD9A72",
"<. c #F09874",
"1. c #F8A07C",
"2. c #988D8B",
"3. c #BF9080",
"4. c #B59A8A",
"5. c #A79D91",
"6. c #B2A198",
"7. c #A29AA7",
"8. c #BDACA4",
"9. c #BFB1B1",
"0. c #C28E80",
"q. c #DC9A80",
"w. c #E59C82",
"e. c #F6A689",
"r. c #ECB79E",
"t. c #E9BA9E",
"y. c #F7B698",
"u. c #DDBEA2",
"i. c #C7B3A8",
"p. c #E6BFA3",
"a. c #F7C19F",
"s. c #DAC3AB",
"d. c #D6C4AB",
"f. c #CDC5B3",
"g. c #DECBB3",
"h. c #D7C9B6",
"j. c #D7D0B6",
"k. c #ECC2A1",
"l. c #F7C6A6",
"z. c #F8CBAE",
"x. c #E4CAB2",
"c. c #E0CFBF",
"v. c #EEC8B3",
"b. c #E6D6BD",
"n. c #FFD3B6",
"m. c #F5D2BB",
"M. c #FFDABA",
"N. c #F9D6BC",
"B. c #D0CFCA",
"V. c #D6D1CD",
"C. c #E5D4C4",
"Z. c #ECD6C3",
"A. c #E6D3CA",
"S. c #E8D4C9",
"D. c #F3DFC6",
"F. c #FFDCC3",
"G. c #EDD6D0",
"H. c #EADDD7",
"J. c #F1DED0",
"K. c #DDE3D8",
"L. c #E9E2C5",
"P. c #F3E2CE",
"I. c #E3E6DA",
"U. c #EEE7DF",
"Y. c #E7E6DA",
"T. c #F1E5D7",
"R. c #E3DFE0",
"E. c #EFDFE0",
"W. c #DDE3E3",
"Q. c #EAE9E4",
"!. c #E7E2E8",
"~. c #E7E8E5",
"^. c #F1EAE6",
"/. c #F4EEEF",
"(. c #F5E6E9",
"). c #F6F2EB",
"_. c #FFF4EC",
"`. c #E8E6F1",
"'. c #EBF3F5",
"]. c #F3F0F7",
"[. c #FBF6F4",
"{. c #FDFCF5",
"}. c #F5F2FE",
"|. c #FCF6FF",
" X c #F6FDFD",
".X c #FEFEFE",
/* pixels */
" X X.X X.X.X{..X.X.X.X.X.X.X.X.X.X.X.X.X.X.X.X.X.X.X{..X.X.X.X.X",
".X.X.X.X.X.X.X.X.X.X.X.X.X.X.X.X.X.X.X.X.X.X.X.X.X.X.X.X.X.X.X.X",
".X.X.X.X.X.X.X.X.X.X.X.X.X X.X.X.X.X.X.X.X.X.X.X.X.X.X.X.X.X.X.X",
".X.X|..X.X.X.X.X.X.X.X.X.X.X X X{..X.X.X.X.X.X.X.X.X.X.X.X.X.X.X",
"{.{.{..X.X.X X.X.X.X.X.X.X.X{..X X X.X.X.X.X.X.X.X X.X.X.X.X.X.X",
".X{..X.X.X X.X.X.X.X.X.X.X.X.X.X.X.X.X.X.X.X.X.X.X.X.X.X.X.X.X{.",
".X.X.X.X.X.X.X.X.X.X.X.X.X{.{..X.X.X|..X.X.X.X.X.X.X.X.X.X.X.X{.",
".X.X.X.X.X.X.X.X.X.X{..X.X.X.X.X.X|.|..X.X.X.X|..X.X.X.X.X.X.X.X",
".X.X.X.X.X.X|..X.X.X.X{..X|. X.X X{.{.{.{..X{..X{..X|. X.X.X X.X",
".X{.{..X.X|.{._.< - & : < < $ $ , # ; * * & = ; H.[..X|..X|..X.X",
" X.X X.X.X(.1 3 z A m h h x S x 0.0.} ( h j A z 6 1 9..X.X X{.{.",
" X X|..X!.0 f a -.X.P J @.X.| ` w.e.e.<.G O.+._ x l i 6..X.X.X X",
".X{..XG.s r / :.=.K B Q ! L M o.<.,.>.o.E E I P ;.q.z u i.{..X{.",
".X.XA.l w _ ..*.V H H $.T T C #.,.o.R R *.K V K >.) w.g u 6..X X",
" X.Xi.> ] ..L W R C I &.R Y Y #.W K I U &.J J E #.K G _ p y [. X",
" X~.4.5 ) J $.T K I ,.I I C &.#.Y I U &.I P I *.H T L :.a e V. X",
"{.5.6 -.P I &.K J U *.U H J E O.J J J *.U G o.>.o.J R @.-.d q {.",
"{.6.4 ;.G o.I N v v b b c F D v n n F c F F m m b ) o.%.X.p q {.",
"_.4.4 | ,.G m y.r.p.n.n.z.n.v.m.m.p.k.k.M.a.r.P.y./ +.@.` a 7 _.",
"2.q S [ [ x p.F.x.Z.g.s.s.Z.P.S.c.P.L.d.x.m.s.x.s.n. .~ ^ { k 2 ",
"}.7.. . X X . . H.f.h.g.b.Z.h.V.S.h.h.L.L.j.f.T.; . X % % X t }.",
" X}.]./.).^.Q.^.@ +   . o o o . O O o o       @ B.).).U.^./.`..X",
" X.X|.{.{.{. X{.~.K.I.K.Y.Q.R.R.Q.R.Q.I.I.K.~.W.'. X.X.X.X|.|..X",
".X{..X{..X.X.X X X X X{..X.X.X.X.X.X.X.X{.{. X X X X.X.X|..X.X.X",
".X{..X{. X.X.X.X.X.X{..X.X.X.X.X.X.X.X.X.X.X.X.X.X.X.X X.X{.{..X",
"{..X X{..X.X.X.X.X.X.X.X.X.X.X.X.X.X.X.X.X.X.X.X.X.X.X.X.X.X.X{.",
".X.X.X.X X.X.X.X.X|..X.X.X.X X.X.X.X.X.X.X.X.X.X.X.X.X X X.X.X.X",
".X.X.X.X.X.X.X.X.X.X.X.X.X.X X X X|..X.X{..X.X.X.X.X.X.X.X.X.X.X",
".X.X.X.X.X.X.X.X.X.X.X.X.X.X.X.X X X.X.X.X.X.X.X.X.X.X.X.X.X.X.X",
" X X.X.X.X.X.X.X.X.X.X.X.X.X.X.X X.X.X.X.X.X X.X.X.X.X.X.X.X X.X",
".X.X.X.X.X.X.X.X.X.X.X.X.X.X.X{..X.X.X.X.X.X X{.{..X.X.X.X.X.X.X",
".X.X{..X{..X{.{. X.X.X.X.X.X.X.X.X.X|..X.X.X X.X.X{..X.X.X.X.X.X"
};
