/* XPM */
static char * sushi5_xpm[] = {
"16 16 85 1",
" 	c None",
".	c #DC803A",
"+	c #F07F2C",
"@	c #F39032",
"#	c #EA7930",
"$	c #735054",
"%	c #48435B",
"&	c #D9743B",
"*	c #F28B2F",
"=	c #F28530",
"-	c #E67B30",
";	c #D78C3E",
">	c #F47C24",
",	c #F88B2B",
"'	c #F78529",
")	c #F27F2C",
"!	c #765554",
"~	c #48435D",
"{	c #DD7A36",
"]	c #F8912E",
"^	c #F47921",
"/	c #F68A28",
"(	c #E88434",
"_	c #F68C2C",
":	c #F27C22",
"<	c #FA942F",
"[	c #F67722",
"}	c #F68E34",
"|	c #795F56",
"1	c #48445E",
"2	c #E08739",
"3	c #F88729",
"4	c #F47A23",
"5	c #FA942E",
"6	c #F47822",
"7	c #D97634",
"8	c #F58629",
"9	c #F18435",
"0	c #DE6F2D",
"a	c #DD6A2D",
"b	c #E3823C",
"c	c #67464A",
"d	c #3E3B50",
"e	c #D18149",
"f	c #DD682B",
"g	c #E37A35",
"h	c #E3752E",
"i	c #F47A24",
"j	c #E79743",
"k	c #E47536",
"l	c #DFAA99",
"m	c #E6CCC5",
"n	c #E5C9BC",
"o	c #E5CBBE",
"p	c #66606A",
"q	c #2D3046",
"r	c #D7C0B6",
"s	c #E4CAC2",
"t	c #E7CCBE",
"u	c #E4BCAA",
"v	c #E2854C",
"w	c #DA7E35",
"x	c #DA9E85",
"y	c #EDE3D9",
"z	c #E7E0D1",
"A	c #E7E1D1",
"B	c #E7DFD5",
"C	c #6C6B75",
"D	c #2C3247",
"E	c #D9D3CD",
"F	c #EAE1D8",
"G	c #E9E2DA",
"H	c #EBE3DA",
"I	c #E3BDA9",
"J	c #BA6B45",
"K	c #CDC1BA",
"L	c #E9E1D9",
"M	c #E9E4DC",
"N	c #E7E2D9",
"O	c #E6E5DF",
"P	c #DCD4D0",
"Q	c #E6DBC9",
"R	c #E9E2D6",
"S	c #E8E1D5",
"T	c #D9D2D1",
"                ",
"                ",
"                ",
"                ",
"                ",
"                ",
"                ",
"  .+@#$%&*=-    ",
" ;>,')!~{]^/(   ",
" _:<[}|1234567  ",
" 890abcdefghij  ",
" klmnopqrstuvw  ",
" xyzABCDEFGHIJ  ",
" KLMNO  PQRST   ",
"                ",
"                "};
