/* XPM */
static char *result[] = {
/* columns rows colors chars-per-pixel */
"32 32 5 1 ",
"  c #67342E",
". c #C5605D",
"X c #C56A5D",
"o c #C5745D",
"O c white",
/* pixels */
"  ......  XXXXXX  oooooo  XXXXXX",
"  ......  XXXXXX  oooooo  XXXXXX",
"  ......  XXXXXX  oooooo  XXXXXX",
"  ......  XXXXXX  oooooo  XXXXXX",
"  ......  XXXXXX  oooooo  XXXXXX",
"  ......  XXXXXX  oooooo  XXXXXX",
"  ......  XXXXXX  oooooo  XXXXXX",
"  ......  XXXXXX  oooooo  XXXXXX",
"  ......  XXXXXX  oooooo  XXXXXX",
"  ......  XXXXXX  oooooo  XXXXXX",
"  ......  XXXXXX  oooooo  XXXXXX",
"  ......  XXXXXX  oooooo  XXXXXX",
"  ......  XXXXXX  oooooo  XXXXXX",
"  ......  XXXXXX  oooooo  XXXXXX",
"  ......  XXXXXX  oooooo  XXXXXX",
"  ......  XXXXXX  oooooo  XXXXXX",
"  ......  XXXXXX  oooooo  XXXXXX",
"  ......  XXXXXX  oooooo  XXXXXX",
"  ......  XXXXXX  oooooo  XXXXXX",
"  ......  XXXXXX  oooooo  XXXXXX",
"  ......  XXXXXX  oooooo  XXXXXX",
"  ......  XXXXXX  oooooo  XXXXXX",
"  ......  XXXXXX  oooooo  XXXXXX",
"  ......  XXXXXX  oooooo  XXXXXX",
"  ......  XXXXXX  oooooo  XXXXXX",
"  ......  XXXXXX  oooooo  XXXXXX",
"  ......  XXXXXX  oooooo  XXXXXX",
"  ......  XXXXXX  oooooo  XXXXXX",
"  ......  XXXXXX  oooooo  XXXXXX",
"  ......  XXXXXX  oooooo  XXXXXX",
"  ......  XXXXXX  oooooo  XXXXXX",
"  ......  XXXXXX  oooooo  XXXXXX"
};
