/* XPM */
static char * wall_xpm[] = {
"32 32 401 2",
"  	c #857F86",
". 	c #737179",
"+ 	c #86939A",
"@ 	c #847E85",
"# 	c #847C84",
"$ 	c #727D86",
"% 	c #84868D",
"& 	c #888088",
"* 	c #727D87",
"= 	c #645964",
"- 	c #86969D",
"; 	c #6D7780",
"> 	c #84888F",
", 	c #878087",
"' 	c #646A73",
") 	c #838A91",
"! 	c #747373",
"~ 	c #686368",
"{ 	c #767676",
"] 	c #6D6B6B",
"^ 	c #7A727C",
"/ 	c #6F6D6D",
"( 	c #7C727F",
"_ 	c #525053",
": 	c #706E6D",
"< 	c #776D79",
"[ 	c #727070",
"} 	c #6C646F",
"| 	c #737171",
"1 	c #665C63",
"2 	c #666060",
"3 	c #7B717C",
"4 	c #6B6766",
"5 	c #7D727F",
"6 	c #50474C",
"7 	c #706D6D",
"8 	c #686362",
"9 	c #786B78",
"0 	c #6F6C6C",
"a 	c #6B646F",
"b 	c #4A4348",
"c 	c #342E3F",
"d 	c #5F5861",
"e 	c #4B4D51",
"f 	c #454249",
"g 	c #4A4E4E",
"h 	c #41303F",
"i 	c #44414D",
"j 	c #655760",
"k 	c #565057",
"l 	c #4C4A51",
"m 	c #534148",
"n 	c #3D3942",
"o 	c #42414C",
"p 	c #505057",
"q 	c #4F474B",
"r 	c #291E38",
"s 	c #645864",
"t 	c #443F47",
"u 	c #49504F",
"v 	c #43313F",
"w 	c #3E3D4A",
"x 	c #675863",
"y 	c #585158",
"z 	c #49464F",
"A 	c #414247",
"B 	c #393846",
"C 	c #695965",
"D 	c #7E757E",
"E 	c #717C85",
"F 	c #7E767C",
"G 	c #7B757A",
"H 	c #898089",
"I 	c #727E88",
"J 	c #636063",
"K 	c #727F88",
"L 	c #85868D",
"M 	c #80777E",
"N 	c #787276",
"O 	c #646B75",
"P 	c #848A90",
"Q 	c #877F88",
"R 	c #585157",
"S 	c #696767",
"T 	c #766E78",
"U 	c #726F6F",
"V 	c #857C84",
"W 	c #7C727E",
"X 	c #636465",
"Y 	c #72706F",
"Z 	c #58595B",
"` 	c #646463",
" .	c #757079",
"..	c #6C6767",
"+.	c #7F6F7D",
"@.	c #616766",
"#.	c #7B7580",
"$.	c #6F6B6B",
"%.	c #705F6D",
"&.	c #767677",
"*.	c #545D5E",
"=.	c #5F5860",
"-.	c #4F464E",
";.	c #473F48",
">.	c #3F303E",
",.	c #494451",
"'.	c #655660",
").	c #554F56",
"!.	c #453E47",
"~.	c #534147",
"{.	c #42414D",
"].	c #605E63",
"^.	c #46464A",
"/.	c #443E47",
"(.	c #42303E",
"_.	c #605D63",
":.	c #514A51",
"<.	c #41303E",
"[.	c #41414D",
"}.	c #414047",
"|.	c #393847",
"1.	c #655D66",
"2.	c #47494C",
"3.	c #483642",
"4.	c #857E85",
"5.	c #7D747E",
"6.	c #707B84",
"7.	c #857C85",
"8.	c #727E87",
"9.	c #888089",
"0.	c #6E7780",
"a.	c #646A74",
"b.	c #848A91",
"c.	c #6A6566",
"d.	c #776A75",
"e.	c #6F6E6D",
"f.	c #7F6E7D",
"g.	c #6F5D6C",
"h.	c #636463",
"i.	c #737078",
"j.	c #696565",
"k.	c #7B727C",
"l.	c #7B7480",
"m.	c #7B747F",
"n.	c #6C6867",
"o.	c #6F6C6B",
"p.	c #696871",
"q.	c #6D6968",
"r.	c #5A5155",
"s.	c #706771",
"t.	c #7C787C",
"u.	c #6C6969",
"v.	c #6C6968",
"w.	c #5D5557",
"x.	c #6D6A72",
"y.	c #7E7A7E",
"z.	c #777676",
"A.	c #5F5557",
"B.	c #6F6770",
"C.	c #797477",
"D.	c #605558",
"E.	c #605758",
"F.	c #67656D",
"G.	c #807C81",
"H.	c #645D5D",
"I.	c #615762",
"J.	c #7F787D",
"K.	c #756472",
"L.	c #685E6A",
"M.	c #6F6373",
"N.	c #5E5561",
"O.	c #4D525C",
"P.	c #707780",
"Q.	c #716472",
"R.	c #6D6472",
"S.	c #736874",
"T.	c #645C66",
"U.	c #474550",
"V.	c #707881",
"W.	c #716473",
"X.	c #6D6373",
"Y.	c #706372",
"Z.	c #766472",
"`.	c #6D6372",
" +	c #6F7881",
".+	c #726975",
"++	c #6A5F6A",
"@+	c #3D3C49",
"#+	c #6F7E85",
"$+	c #726473",
"%+	c #726472",
"&+	c #706E6E",
"*+	c #737272",
"=+	c #787177",
"-+	c #787984",
";+	c #837D83",
">+	c #7E828E",
",+	c #7F7B80",
"'+	c #6F6E7B",
")+	c #6E6B6B",
"!+	c #616162",
"~+	c #5A5A5A",
"{+	c #584D4F",
"]+	c #423B44",
"^+	c #55505B",
"/+	c #71676F",
"(+	c #616565",
"_+	c #5C5F5E",
":+	c #594B4E",
"<+	c #463B45",
"[+	c #4D4D55",
"}+	c #6F6A70",
"|+	c #626666",
"1+	c #5C5F5F",
"2+	c #574F50",
"3+	c #514E50",
"4+	c #453C44",
"5+	c #4D4D56",
"6+	c #72666F",
"7+	c #5B5E5E",
"8+	c #4A434A",
"9+	c #43424D",
"0+	c #756B75",
"a+	c #595C5B",
"b+	c #555051",
"c+	c #525051",
"d+	c #6E6873",
"e+	c #86959D",
"f+	c #898189",
"g+	c #737E87",
"h+	c #727E86",
"i+	c #84878E",
"j+	c #655965",
"k+	c #86969E",
"l+	c #878088",
"m+	c #636A74",
"n+	c #747474",
"o+	c #605C60",
"p+	c #525153",
"q+	c #867F86",
"r+	c #6B636F",
"s+	c #6B646E",
"t+	c #5D555A",
"u+	c #686261",
"v+	c #7E717E",
"w+	c #6A6766",
"x+	c #7D717E",
"y+	c #4F484B",
"z+	c #6A6564",
"A+	c #6C626E",
"B+	c #4D474A",
"C+	c #332B3E",
"D+	c #695F6A",
"E+	c #505154",
"F+	c #48444A",
"G+	c #4D5150",
"H+	c #443340",
"I+	c #464650",
"J+	c #6A5D66",
"K+	c #5B565C",
"L+	c #514F55",
"M+	c #55454A",
"N+	c #403A42",
"O+	c #464550",
"P+	c #6B5D67",
"Q+	c #56565C",
"R+	c #524A4C",
"S+	c #2A1F38",
"T+	c #515356",
"U+	c #4A3A43",
"V+	c #3C3B49",
"W+	c #6E5F6B",
"X+	c #5D575C",
"Y+	c #4E4B52",
"Z+	c #444448",
"`+	c #6E5F6A",
" @	c #888B93",
".@	c #888189",
"+@	c #867E87",
"@@	c #6F7981",
"#@	c #857A83",
"$@	c #6E7881",
"%@	c #898B93",
"&@	c #5E5A5F",
"*@	c #666D76",
"=@	c #888F96",
"-@	c #867D85",
";@	c #60656F",
">@	c #889098",
",@	c #585159",
"'@	c #716E6E",
")@	c #605F61",
"!@	c #727170",
"~@	c #827881",
"{@	c #6D626E",
"]@	c #5A575B",
"^@	c #6B6666",
"/@	c #6B6867",
"(@	c #5C6363",
"_@	c #706C76",
":@	c #705E6C",
"<@	c #6E666D",
"[@	c #5B5559",
"}@	c #51494E",
"|@	c #483643",
"1@	c #4E4D56",
"2@	c #71666E",
"3@	c #625F63",
"4@	c #50494E",
"5@	c #594A4E",
"6@	c #443C45",
"7@	c #6E6A71",
"8@	c #493843",
"9@	c #494952",
"0@	c #6F6A71",
"a@	c #4B3944",
"b@	c #474650",
"c@	c #756873",
"d@	c #646063",
"e@	c #5A4A4E",
"f@	c #4A454A",
"g@	c #4F3E47",
"h@	c #42424D",
"i@	c #8C828C",
"j@	c #817981",
"k@	c #6D767E",
"l@	c #8B8E97",
"m@	c #8B828C",
"n@	c #6C757C",
"o@	c #887F88",
"p@	c #6C747C",
"q@	c #8A8F98",
"r@	c #6A727A",
"s@	c #8B9099",
"t@	c #5E626B",
"u@	c #8B939C",
"v@	c #5D626B",
"w@	c #7B6D79",
"x@	c #717170",
"y@	c #7E6E7C",
"z@	c #7C6C7A",
"A@	c #6D616E",
"B@	c #676564",
"C@	c #78737C",
"D@	c #78727D",
"E@	c #696870",
"F@	c #5F5759",
"G@	c #736872",
"H@	c #7C797C",
"I@	c #625A5B",
"J@	c #716C75",
"K@	c #736873",
"L@	c #777275",
"M@	c #716671",
"N@	c #7D7A7E",
"O@	c #666061",
"P@	c #605F67",
"Q@	c #7F7B7F",
"R@	c #666161",
"S@	c #655864",
"T@	c #7B7579",
"U@	c #6E6C6B",
"V@	c #705D6C",
"W@	c #615763",
"X@	c #675C6C",
"Y@	c #5E5560",
"Z@	c #43424E",
"`@	c #69727A",
" #	c #6A5D6C",
".#	c #665C6C",
"+#	c #5F5660",
"@#	c #69717A",
"##	c #6B5D6C",
"$#	c #3C3B4A",
"%#	c #68767D",
"&#	c #6C5D6C",
"*#	c #655865",
"=#	c #68777F",
"-#	c #737273",
";#	c #827B82",
">#	c #7E838F",
",#	c #827D82",
"'#	c #747682",
")#	c #6A6666",
"!#	c #5B5C5C",
"~#	c #584C4F",
"{#	c #453C45",
"]#	c #4F4D56",
"^#	c #70666D",
"/#	c #616666",
"(#	c #5B605F",
"_#	c #443D44",
":#	c #4E4D55",
"<#	c #6E6A70",
"[#	c #616667",
"}#	c #564F50",
"|#	c #514F50",
"1#	c #474046",
"2#	c #746872",
"3#	c #746B74",
"4#	c #555151",
"  . + @ @ @ # $ % @ @ @ & * % @ @ = - @ @ @ & ; > @ @ @ , ' ) @ ",
"! ~ @ { { { ] ^ { { { { / ( { { { _ @ { { { : < { { { { [ } { { ",
"| 1 @ { { : 2 3 { { { { 4 5 { { { 6 @ { { 7 8 9 { { { { 0 a { { ",
"b c d e f g h i j k l m n o j p q r s e t u v w x y z m A B C p ",
"% @ @ D E % @ F G H I % @ @ H J % @ @ H K L @ M N & O P @ @ Q R ",
"{ { { S T { U V { 7 W { { { 7 X { { { / 5 { : V { Y } { { { [ Z ",
"{ { { `  .{ { { { ..+.7 { { 4 @.{ { { 4 #.{ { { { $.%.Y &.{ 0 *.",
"=.-.;.>.,.'.).!.~.n {.].^./.(.{._.:./.<.[.'.k /.~.}.|.1.2./.3.|.",
"4.5.6.% 4.4.7.* % 4.4.4.H I % 4.4.H 8.L 4.4.9.0.> 4.4.4.& a.b.4.",
"{ c.d.{ { { ] ^ { { { { e.f.{ { { 7 f.{ { { : < { { { { [ g.{ { ",
"{ h.i.{ { { j.k.{ { { { 4 l.{ { { 4 m.{ { { n.< { { { { o.p.{ { ",
"q.r.s.t.u.v.w.x.y.z.u.v.A.B.C.v.q.D.s.y.u.v.E.F.G.{ u.v.H.I.J.v.",
"K.L.M.N.O.P.Q.R.S.T.U.V.W.X.S.Y.Z.T.`.T.U. +Q.`..+++@+#+$+`..+%+",
"{ &+*+=+-+{ { { { ;+>+{ { { { { { : *+;+>+{ { { { ,+'+{ { { { { ",
"{ { { `  .{ { { { 4 m.{ { { { { { { { 4 l.{ { { { )+p.{ { { { { ",
"!+~+{+]+^+/+(+_+:+<+[+}+|+1+2+3+X 1+:+4+5+6+|+7+:+8+9+0+|+a+b+c+",
"  d+e+4.4.4.f+g+% 4.4.4.9.h+i+4.4.j+k+4.4.@ l+m+b.4.4.@ l+m+b.4.",
"n+o+4.{ { { e.5 { { { { / W { { { p+q+{ { { [ r+{ { { { [ s+{ { ",
"*+t+4.{ { : u+v+{ { { { w+x+{ { { y+q+{ { [ z+A+{ { { { o.} { { ",
"B+C+D+E+F+G+H+I+J+K+L+M+N+O+P+Q+R+S+++T+F+G+U+V+W+X+Y+M+Z+@+`+Q+",
" @f+.@+@@@ @f+#@J.9.$@%@.@f+& &@ @f+.@l+*@=@.@-@C.9.;@>@.@f+& ,@",
"{ { { '@x+{ Y 7.{ Y v+{ { { [ )@{ { { !@S.{ *+~@{ *+{@{ { { *+]@",
"{ { { ^@m.{ { { { 4 +.[ { { /@(@{ { { v._@{ { { { 0 :@*+{ { 0 *.",
"<@[@}@|@1@2@3@4@5@6@[+7@3+4@8@9@0@X+4@a@b@c@d@4@e@f@{.0+c+4@g@h@",
"i@j@k@l@m@i@l+n@l@i@m@i@o@p@q@m@i@9.r@s@m@i@H t@u@i@m@i@H v@u@m@",
"{ )+w@{ { { [ v+{ { { { x@y@{ { { [ z@&.{ { *+A@{ { { { *+g.{ { ",
"{ B@C@{ { { 4 v+{ { { { w+m.{ { { 4 D@&.{ { o.A+{ { { { o.E@{ { ",
"0 F@G@H@0 0 I@J@H@{ 0 0 I@K@L@0 0 I@M@N@0 0 O@P@Q@{ 0 0 R@S@T@U@",
"V@W@X@Y@Z@`@ #.#{@+#{.@# #.#{@##V@+#.#I.$#%#&#.#} *#|.=#&#.#} &#",
"{ 7 -#;#>#{ { { { ;+>#{ { { { { { 7 *+,#'#{ { { { ,+'+{ { { { { ",
"{ { { )#m.{ { { { 4 m.{ { { { { { { { v._@{ { { { 0 E@{ { { { { ",
"!+!#~#{#]#^#/#(#:+_#:#<#[#1+}#|#X 1+:+1#U.2#[#a+:+f@{.3#/#a+4#c+"};
