/* XPM */
static char *result[] = {
/* columns rows colors chars-per-pixel */
"32 32 218 2 ",
"   c #3A6A6E",
".  c #32686C",
"X  c #3C6F74",
"o  c #3D7478",
"O  c #3C7074",
"+  c #406E72",
"@  c #46797D",
"#  c #4B797D",
"$  c #417175",
"%  c #4C7D80",
"&  c #497C85",
"*  c #4F8184",
"=  c #52868A",
"-  c #5B8995",
";  c #558E99",
":  c #578792",
">  c #5A929D",
",  c #5C9094",
"<  c #648B94",
"1  c #688D9A",
"2  c #728E98",
"3  c #63949D",
"4  c #6A929D",
"5  c #6D989F",
"6  c #77939D",
"7  c #5593A1",
"8  c #5995A3",
"9  c #5D9BAA",
"0  c #5898A4",
"q  c #668EA0",
"w  c #6295A5",
"e  c #6C95A3",
"r  c #649AA5",
"t  c #6A9AA3",
"y  c #6597A9",
"u  c #659CAC",
"i  c #6B9CAC",
"p  c #6D97AB",
"a  c #7295A4",
"s  c #739CA4",
"d  c #7D98A4",
"f  c #739CAE",
"g  c #7D9FAA",
"h  c #7997A3",
"j  c #6B9EB0",
"k  c #679DB0",
"l  c #739DB1",
"z  c #7A9FB0",
"x  c #5DA2B0",
"c  c #63A1AC",
"v  c #6BA3AB",
"b  c #69AAAF",
"n  c #71A2A6",
"m  c #74A4AB",
"M  c #7CA2AD",
"N  c #73A9AF",
"B  c #7AAAAF",
"V  c #65A5B5",
"C  c #6CA3B4",
"Z  c #6CA9BA",
"A  c #69A3B8",
"S  c #73A2B4",
"D  c #7BA5B4",
"F  c #75ABB2",
"G  c #7BACB2",
"H  c #73A6BA",
"J  c #7AA5BA",
"K  c #73ACBD",
"L  c #7CABBC",
"P  c #61BCBC",
"I  c #6BB7BA",
"U  c #7DB0B6",
"Y  c #75B3BD",
"T  c #7BB4BD",
"R  c #7AB9BD",
"E  c #75B1B3",
"W  c #6FAFC1",
"Q  c #73ADC2",
"!  c #7CADC2",
"~  c #69BFC2",
"^  c #74B3C2",
"/  c #7DB2C4",
"(  c #7BB9C4",
")  c #7CB5CA",
"_  c #7DBACB",
"`  c #75BAC0",
"'  c #70BFD7",
"]  c #7ABDD6",
"[  c #6AC1C3",
"{  c #6EC8CA",
"}  c #72C4C8",
"|  c #7AC6CB",
" . c #7CCFD3",
".. c #7AD3D6",
"X. c #7ECFE7",
"o. c #819FAB",
"O. c #86A3AE",
"+. c #81A3B1",
"@. c #89A6B2",
"#. c #83ABB4",
"$. c #8CAAB5",
"%. c #83ACBB",
"&. c #8BADBA",
"*. c #92ADB9",
"=. c #90ACB7",
"-. c #83B3BC",
";. c #8BB3BD",
":. c #86BABE",
">. c #93B2BD",
",. c #98B3BD",
"<. c #82AEC3",
"1. c #88AFC0",
"2. c #83B1C5",
"3. c #8CB4C3",
"4. c #83BBC2",
"5. c #8BBCC5",
"6. c #83B6CB",
"7. c #8BB5CA",
"8. c #84BBCE",
"9. c #8DBCCB",
"0. c #93B5C2",
"q. c #93BBC5",
"w. c #99BAC6",
"e. c #94BCCA",
"r. c #9ABDCA",
"t. c #84BDD3",
"y. c #8BBCD2",
"u. c #86BEDA",
"i. c #94BDD1",
"p. c #9ABED2",
"a. c #82C5CD",
"s. c #95C2CE",
"d. c #9AC0CE",
"f. c #85C0D3",
"g. c #8AC2D4",
"h. c #8BC8D6",
"j. c #8CC3DB",
"k. c #8ECBDA",
"l. c #84C7D8",
"z. c #95C3D3",
"x. c #9BC5D4",
"c. c #95C5DA",
"v. c #9AC6DB",
"b. c #93CADD",
"n. c #9BCCDD",
"m. c #8CD2DB",
"M. c #91D1DD",
"N. c #A3C2CF",
"B. c #A3C4D2",
"V. c #A5C8D6",
"C. c #A2CBDA",
"Z. c #ABCEDE",
"A. c #A1D0DF",
"S. c #B2D3DA",
"D. c #8CCAE4",
"F. c #87C9E4",
"G. c #93CCE3",
"H. c #9BCEE2",
"J. c #8BDBE2",
"K. c #94D2E3",
"L. c #9CD2E4",
"P. c #9EDAE9",
"I. c #98D4EB",
"U. c #8CD8F3",
"Y. c #94DAF7",
"T. c #A3D3E5",
"R. c #ACD4E2",
"E. c #A3D9E6",
"W. c #A3D6E9",
"Q. c #AAD6EB",
"!. c #A3DAEB",
"~. c #ABDAEC",
"^. c #B0D3E4",
"/. c #B2D7EB",
"(. c #B2DAEC",
"). c #BBDDE5",
"_. c #ACDDF2",
"`. c #A6DDF2",
"'. c #B1DDF1",
"]. c #9AE2FA",
"[. c #95E0FB",
"{. c #A4E1EE",
"}. c #ABE1EF",
"|. c #AAE8EF",
" X c #ABE3F4",
".X c #A4E2F8",
"XX c #AEEAFB",
"oX c #A8E7F8",
"OX c #B1E2F5",
"+X c #BCE4F3",
"@X c #B4E6F9",
"#X c #B9E5FA",
"$X c #B3EBFC",
"%X c #BAEBFD",
"&X c #A3F2FF",
"*X c #B4F0FD",
"=X c #BCF4FF",
"-X c #BAFCFF",
";X c #CAE6EE",
":X c #C3EDF7",
">X c #CFE9F3",
",X c #C0EFFF",
"<X c #C3E6F3",
"1X c #D6EFFA",
"2X c #C1F2FF",
"3X c #C8F7FF",
"4X c #C3FDFF",
"5X c #CDFDFF",
"6X c #DAF4FB",
"7X c #D2FFFF",
"8X c #DDFEFF",
"9X c #D2F3F9",
"0X c #EAF6FB",
"qX c #E5FEFF",
"wX c #EBFDFE",
"eX c #E5F4F9",
"rX c #F3FEFF",
"tX c #FEFFFF",
/* pixels */
"b.6.Q oX$X$XL.6.H A A u >X).q l l u u k 9 7 7 w y tXeXy.Q.'.7X5X",
"8.:XQ { ] G.H.j./ S l ! W.<Xe.Z.2.t.) ^ V 9 w y y R.6X<.c.Q.=X5X",
"f.K.K.X.) K ! ! ! J rXtXv.tXL y.~.tX6X) V 0 y u j p j <.<.x.~.4X",
"8.^ ^ U.t.) R.Z.J rXwXtXwXS H g._.qXg.Q 9 7 w u H j l z.0X7.e.4X",
"^ A H Y.t.>X0Xl z l 0XtX! ! ! J ! ) C u u > w u tXi.l z 1.1.7.`.",
"V j.Q Y.) ! p l S ;Xx.C j <.<.J J H y i 9 7 i c.i.%.%.&.q.B.B.p.",
"g.W.Q F.! p w q L H ! A C H H / 7.<.i C u r S.S.z w.w.0.0.w.0.N.",
"P.6.u.F.H j p p J ! Q H j k ).L 2.7.D C C r i D r.w.*.@.=.@.=.0.",
" XQ..Xj.2.S j S <.H Q C H / wXA.%.3.H D v r t ;.0.O.=.=.,.=.*.o.",
"7.Q.8X#X1XC.H H H H j tXrXD S tX7.6.L S y 3 a w.@.@.0.=.O.@.*.,.",
"p.p.=XOXrXtX@Xb.g.A.c.n.9Xn.%.tXR.7.L J m e M ,.@.@.=.=.w.B.0.w.",
"^./.3Xv.~.(. X@X6XtXL R.tX7.J L tX3.%.M D D q.$.$.$.&.B.w.V.0.&.",
"^./.%X/./.R.R.E.(.tXR.tXn.%.J J B.3.f 2 M >.>.>.w.N.V.>.&.r.r.q.",
"(.3X/.Z.^.~.L.R.@XtXtXtXv.6.J l %.%.a 1 @.q.s.q.0.;.r.eXV.w.w.0.",
"Q.qXOX^.Z.~.E.A.@X~.tXrXT.i.! l z 1.&.+.&.q.;.0.&.+.D r.3.&.0.%.",
"~.qX'.(.(.(.~.E.~.R.<XQ.(.H.2.9 - e &.p.r.5.2.q.q.%.D q.%.>.&.@.",
"4X8X_.T.R.(.~.E.E.E.~.OX$XW.K > : a 1 $.B.d.-.e.z.n.:.x.#.>.&.;.",
"8X8X5X-Xt.g.M.L.E.{. XXX=X%Xf.u - g o.d r.V.5.T s.rXx.s.-.;.;.d.",
"qX5X4X4X*XL.k.g.h.h.P.XX*X$X X/ e q 2 o.M x.s.e.s.x.A.;.-.;.;.d.",
"rX7X-XrXqX X XM.P.M. XXXXXP.{.a.%.@.6 6 h M 3.s.C.x.d.&.-.s.-.5.",
"XXwXtXtXqX=X X:XtXrX|.!.@X!.{.( D B.$.6 s M %.x.3.>.n < 5 -.4.( ",
"%.wXtXtXtX7XOXn.b.k.k.K.oX*Xk.z.1 ;.s.q.;.-.>.&.;.o.< 4 B G R 9X",
"C.Q.qXtXtXtX$XW.H.( ^ _ k.M.H 3 e G -.5.5.B n B ;.5 5 -.5.T G M.",
"#Xv.qXtXtXqX4X XW.K c F 8._ c > - p D U -.:.B n n #.#.B 4.rXY a.",
"Q.v.tXtXtXtXtXrX%X/ u c Y Y C 8 : t N N G :.n 5 n M n N :.tXY ` ",
"L.c.#Xv.c.W.4XqX XK i u x 9 qX;X; > m U -.a.E n B B G n R tXY Y ",
"b.b.H.#X,X2X X`.[.tXu x V V u > ; 3 N :.:.a.B n 4 + B n R |._ _ ",
"L.n.T.%X,XL.H.I.I.&XtXW V x 9 0 > c v -.:.:.-.$ #   B n R m.l.m.",
"!.L.~.2XT.v.v.L.L.I.].&Xl.Z C f F v c c b U O % #   E b R | J.J.",
"$XOX%XW.8.wX+XH.G.D.t.j.].F.A H L m r 5 > O * # @ , R I P } { ..",
"%X2XQ.y.! 2.qXt.t._ 6.u.D.G.] Z %.D 5 3 & @ * @ O R a.a.| [ [ { ",
"W.@Xn.2.<.2.y.j.D.G.G.t.y.0Xy.L ! y , & o = = . E R | }  .~ P ~ "
};
