/* XPM */
static char *result[] = {
/* columns rows colors chars-per-pixel */
"98 11 9 1 ",
"  c #FECE00",
". c #FFCE00",
"X c #FECF00",
"o c #FFCF00",
"O c #FFCE01",
"+ c #FECF01",
"@ c #FFCF01",
"# c #FFD000",
"$ c None",
/* pixels */
"oooo$$$Xooo$$$o..oooooo$$$$.o@.$$oooXX$$$$$$$$$oooo$$$$$$$$$$oo@o@@ooo$$$$ooooOoo.o@$$$ooooooooooo",
"oooo$$$oo.o$$oo.Xo.o@oX@$$$oooo$$oooo@$$$$$$$$$.ooo$$$$$$$$$oooooXooooo$$ooo@o@ooooo$$$oooo@oo@oXo",
"oooo$$$oooo$$@.ooo$$oXoo$$$oooo$$Xoooo$$$$$$$$$oooo$$$$$$$$$@ooo$$$ooo.$$o.oo.$$$$$$$$$$$$oooo$$$$",
"oo@o$$$oooX$$Xoo.o$$oooo$$$@ooo$$oooo@$$$$$$$$$@@oo$$$$$$$$$oooo$$$oooo$$ooooo$$$$$$$$$$$$o@oo$$$$",
"ooooXooo@.o$$oXo.@$$@ooo$$$oooX$$.oooo$$$$$$$$$o@o@$$$$$$$$$Xoo@$$$@@oo$$ooooXoo@Xo$$$$$$$oooo$$$$",
"ooooooooooo$$oo.oo$$@ooo$$$oooO$$ooooX$$$$$$$$$o+oo$$$$$$$$$ooo@$$$ ooo$$$oooooooooo$$$$$$+ooo$$$$",
"$ooooooXoo$$$@oooo$$oooX$$$oooo$$XoooX$$$$$$$$$oooo$$$$$$$$$oooo$$$o@oo$$$ooooo.o.o@$$$$$$oo@o$$$$",
"$$$ooooo$$$$$@oooo$$oooO$$$oXoo$$ooooo$$$$$$$$$oooo$$$$$$$$$oo.o$$$oooo$$$$$$$$$ooo.$$$$$$oooo$$$$",
"$$$o@ooo$$$$$ooooo$$oXoo$$$oXoo$$ oooo$$$$$$$$$o.oo$$$$$$$$$oo@o$$$oo@o$$$$$$$$$ooo@$$$$$$oo@o$$$$",
"$$$.oooo$$$$$@ooooXooooo$$$ooXo@.oooX@$$$$$$$$$ooooooooooo$$ooooooooooX$$ooooo.oo.oo$$$$$$oooo$$$$",
"$$$oXooo$$$$$$ooooX.oo@$$$$$o.oooooo#$$$$$$$$$$oXooXooXooo$$$ooooooo@o$$$ooooo@Xooo$$$$$$$oXo.$$$$"
};
