/* XPM */
static char *result[] = {
/* columns rows colors chars-per-pixel */
"32 32 21 1 ",
"  c black",
". c #342A25",
"X c #3C312C",
"o c #7A2D18",
"O c #512D23",
"+ c #5B3C2C",
"@ c #453A35",
"# c #4A413C",
"$ c #5A5237",
"% c #645C3F",
"& c #695D58",
"* c #5E724A",
"= c #70694F",
"- c #677755",
"; c #6A7A5A",
": c #70805F",
"> c #778667",
", c #8DAB5F",
"< c #A2A97F",
"1 c #BEC49F",
"2 c #FEFEFE",
/* pixels */
"22222222222222222222222222222222",
"22222222222222222222222222222222",
"22222222222222222222222222222222",
"22222222222222222222222222222222",
"22222222222222222222222222222222",
"22222222222222222222222222222222",
"22222222222222222222222222222222",
"22222222222222     2222222222222",
"2222222222222 +OOOO 222222222222",
"222222222222 +*+OO+* 22222222222",
"22222222222 O+*+O+*** 2222222222",
"22222222222 O+*++-*** 2222222222",
"22222222222 +*-+::-** 2222222222",
"22222222222 *-:+:::-* 2222222222",
"22222222222 -  :+:  - 2222222222",
"22222222222 -1,:+:,1- 2222222222",
"22222222222 :::::+::: 2222222222",
"22222222222 *:::::+:* 2222222222",
"2222222222 O@*<:<:<+ 22222222222",
"222222222 OO@X*<o<oX 22222222222",
"22222222 >O@XXX*ooX 222222222222",
"22222222 @> XXXX:X@  22222222222",
"22222222 @@ ...;o@@@@ 2222222222",
"22222222 @@ .....  >> 2222222222",
"22222222 @@ %%%%%%   22222222222",
"22222222 >> %%%$%%% 222222222222",
"222222222  2 %%%$%%= 22222222222",
"22222222222 ===  $== 22222222222",
"22222222222 ## 2 :: 222222222222",
"22222222222 && 22  2222222222222",
"22222222222    2    222222222222",
"22222222222222222222222222222222"
};
